%TF.GenerationSoftware,KiCad,Pcbnew,7.0.11-7.0.11~ubuntu20.04.1*%
%TF.CreationDate,2024-08-20T17:51:46+02:00*%
%TF.ProjectId,kicad-kria-pmod-alinx,6b696361-642d-46b7-9269-612d706d6f64,1.0*%
%TF.SameCoordinates,Original*%
%TF.FileFunction,Drillmap*%
%TF.FilePolarity,Positive*%
%FSLAX45Y45*%
G04 Gerber Fmt 4.5, Leading zero omitted, Abs format (unit mm)*
G04 Created by KiCad (PCBNEW 7.0.11-7.0.11~ubuntu20.04.1) date 2024-08-20 17:51:46*
%MOMM*%
%LPD*%
G01*
G04 APERTURE LIST*
%ADD10C,0.050000*%
%ADD11C,0.200000*%
%ADD12C,0.250000*%
%ADD13C,0.320000*%
G04 APERTURE END LIST*
D10*
X16193500Y-14986500D02*
G75*
G03*
X16257000Y-14923000I0J63500D01*
G01*
X7113000Y-14923000D02*
G75*
G03*
X7176500Y-14986500I63500J0D01*
G01*
X7176500Y-2413500D02*
G75*
G03*
X7113000Y-2477000I0J-63500D01*
G01*
X16257000Y-2477000D02*
G75*
G03*
X16193500Y-2413500I-63500J0D01*
G01*
X16193500Y-2413500D02*
X7176500Y-2413500D01*
X7176500Y-14986500D02*
X16193500Y-14986500D01*
X16257000Y-14923000D02*
X16257000Y-2477000D01*
X7113000Y-2477000D02*
X7113000Y-14923000D01*
D11*
D12*
X7559500Y-14290000D02*
X7809500Y-14540000D01*
X7809500Y-14290000D02*
X7559500Y-14540000D01*
X9274000Y-2797000D02*
X9524000Y-3047000D01*
X9524000Y-2797000D02*
X9274000Y-3047000D01*
X11560000Y-2797000D02*
X11810000Y-3047000D01*
X11810000Y-2797000D02*
X11560000Y-3047000D01*
X11560000Y-14290000D02*
X11810000Y-14540000D01*
X11810000Y-14290000D02*
X11560000Y-14540000D01*
X13846000Y-2797000D02*
X14096000Y-3047000D01*
X14096000Y-2797000D02*
X13846000Y-3047000D01*
X15560500Y-14290000D02*
X15810500Y-14540000D01*
X15810500Y-14290000D02*
X15560500Y-14540000D01*
D13*
X9595500Y-9000000D02*
G75*
G03*
X9275500Y-9000000I-160000J0D01*
G01*
X9275500Y-9000000D02*
G75*
G03*
X9595500Y-9000000I160000J0D01*
G01*
X9595500Y-12100000D02*
G75*
G03*
X9275500Y-12100000I-160000J0D01*
G01*
X9275500Y-12100000D02*
G75*
G03*
X9595500Y-12100000I160000J0D01*
G01*
X9935500Y-14419500D02*
G75*
G03*
X9615500Y-14419500I-160000J0D01*
G01*
X9615500Y-14419500D02*
G75*
G03*
X9935500Y-14419500I160000J0D01*
G01*
X10018000Y-10194500D02*
G75*
G03*
X9698000Y-10194500I-160000J0D01*
G01*
X9698000Y-10194500D02*
G75*
G03*
X10018000Y-10194500I160000J0D01*
G01*
X10220500Y-13064000D02*
G75*
G03*
X9900500Y-13064000I-160000J0D01*
G01*
X9900500Y-13064000D02*
G75*
G03*
X10220500Y-13064000I160000J0D01*
G01*
X13418000Y-10194500D02*
G75*
G03*
X13098000Y-10194500I-160000J0D01*
G01*
X13098000Y-10194500D02*
G75*
G03*
X13418000Y-10194500I160000J0D01*
G01*
X13980500Y-13064000D02*
G75*
G03*
X13660500Y-13064000I-160000J0D01*
G01*
X13660500Y-13064000D02*
G75*
G03*
X13980500Y-13064000I160000J0D01*
G01*
X14095500Y-9000000D02*
G75*
G03*
X13775500Y-9000000I-160000J0D01*
G01*
X13775500Y-9000000D02*
G75*
G03*
X14095500Y-9000000I160000J0D01*
G01*
X14095500Y-12100000D02*
G75*
G03*
X13775500Y-12100000I-160000J0D01*
G01*
X13775500Y-12100000D02*
G75*
G03*
X14095500Y-12100000I160000J0D01*
G01*
X14515500Y-14419500D02*
G75*
G03*
X14195500Y-14419500I-160000J0D01*
G01*
X14195500Y-14419500D02*
G75*
G03*
X14515500Y-14419500I160000J0D01*
G01*
D11*
X7371277Y-15300484D02*
X7371277Y-15100484D01*
X7371277Y-15100484D02*
X7418896Y-15100484D01*
X7418896Y-15100484D02*
X7447467Y-15110008D01*
X7447467Y-15110008D02*
X7466515Y-15129055D01*
X7466515Y-15129055D02*
X7476039Y-15148103D01*
X7476039Y-15148103D02*
X7485562Y-15186198D01*
X7485562Y-15186198D02*
X7485562Y-15214769D01*
X7485562Y-15214769D02*
X7476039Y-15252865D01*
X7476039Y-15252865D02*
X7466515Y-15271912D01*
X7466515Y-15271912D02*
X7447467Y-15290960D01*
X7447467Y-15290960D02*
X7418896Y-15300484D01*
X7418896Y-15300484D02*
X7371277Y-15300484D01*
X7571277Y-15300484D02*
X7571277Y-15167150D01*
X7571277Y-15205246D02*
X7580801Y-15186198D01*
X7580801Y-15186198D02*
X7590324Y-15176674D01*
X7590324Y-15176674D02*
X7609372Y-15167150D01*
X7609372Y-15167150D02*
X7628420Y-15167150D01*
X7695086Y-15300484D02*
X7695086Y-15167150D01*
X7695086Y-15100484D02*
X7685562Y-15110008D01*
X7685562Y-15110008D02*
X7695086Y-15119531D01*
X7695086Y-15119531D02*
X7704610Y-15110008D01*
X7704610Y-15110008D02*
X7695086Y-15100484D01*
X7695086Y-15100484D02*
X7695086Y-15119531D01*
X7818896Y-15300484D02*
X7799848Y-15290960D01*
X7799848Y-15290960D02*
X7790324Y-15271912D01*
X7790324Y-15271912D02*
X7790324Y-15100484D01*
X7923658Y-15300484D02*
X7904610Y-15290960D01*
X7904610Y-15290960D02*
X7895086Y-15271912D01*
X7895086Y-15271912D02*
X7895086Y-15100484D01*
X8152229Y-15300484D02*
X8152229Y-15100484D01*
X8152229Y-15100484D02*
X8218896Y-15243341D01*
X8218896Y-15243341D02*
X8285562Y-15100484D01*
X8285562Y-15100484D02*
X8285562Y-15300484D01*
X8466515Y-15300484D02*
X8466515Y-15195722D01*
X8466515Y-15195722D02*
X8456991Y-15176674D01*
X8456991Y-15176674D02*
X8437944Y-15167150D01*
X8437944Y-15167150D02*
X8399848Y-15167150D01*
X8399848Y-15167150D02*
X8380801Y-15176674D01*
X8466515Y-15290960D02*
X8447467Y-15300484D01*
X8447467Y-15300484D02*
X8399848Y-15300484D01*
X8399848Y-15300484D02*
X8380801Y-15290960D01*
X8380801Y-15290960D02*
X8371277Y-15271912D01*
X8371277Y-15271912D02*
X8371277Y-15252865D01*
X8371277Y-15252865D02*
X8380801Y-15233817D01*
X8380801Y-15233817D02*
X8399848Y-15224293D01*
X8399848Y-15224293D02*
X8447467Y-15224293D01*
X8447467Y-15224293D02*
X8466515Y-15214769D01*
X8561753Y-15167150D02*
X8561753Y-15367150D01*
X8561753Y-15176674D02*
X8580801Y-15167150D01*
X8580801Y-15167150D02*
X8618896Y-15167150D01*
X8618896Y-15167150D02*
X8637944Y-15176674D01*
X8637944Y-15176674D02*
X8647467Y-15186198D01*
X8647467Y-15186198D02*
X8656991Y-15205246D01*
X8656991Y-15205246D02*
X8656991Y-15262388D01*
X8656991Y-15262388D02*
X8647467Y-15281436D01*
X8647467Y-15281436D02*
X8637944Y-15290960D01*
X8637944Y-15290960D02*
X8618896Y-15300484D01*
X8618896Y-15300484D02*
X8580801Y-15300484D01*
X8580801Y-15300484D02*
X8561753Y-15290960D01*
X8742705Y-15281436D02*
X8752229Y-15290960D01*
X8752229Y-15290960D02*
X8742705Y-15300484D01*
X8742705Y-15300484D02*
X8733182Y-15290960D01*
X8733182Y-15290960D02*
X8742705Y-15281436D01*
X8742705Y-15281436D02*
X8742705Y-15300484D01*
X8742705Y-15176674D02*
X8752229Y-15186198D01*
X8752229Y-15186198D02*
X8742705Y-15195722D01*
X8742705Y-15195722D02*
X8733182Y-15186198D01*
X8733182Y-15186198D02*
X8742705Y-15176674D01*
X8742705Y-15176674D02*
X8742705Y-15195722D01*
X6910500Y-15529000D02*
X7110500Y-15729000D01*
X7110500Y-15529000D02*
X6910500Y-15729000D01*
X7361753Y-15539531D02*
X7371277Y-15530008D01*
X7371277Y-15530008D02*
X7390324Y-15520484D01*
X7390324Y-15520484D02*
X7437943Y-15520484D01*
X7437943Y-15520484D02*
X7456991Y-15530008D01*
X7456991Y-15530008D02*
X7466515Y-15539531D01*
X7466515Y-15539531D02*
X7476039Y-15558579D01*
X7476039Y-15558579D02*
X7476039Y-15577627D01*
X7476039Y-15577627D02*
X7466515Y-15606198D01*
X7466515Y-15606198D02*
X7352229Y-15720484D01*
X7352229Y-15720484D02*
X7476039Y-15720484D01*
X7561753Y-15701436D02*
X7571277Y-15710960D01*
X7571277Y-15710960D02*
X7561753Y-15720484D01*
X7561753Y-15720484D02*
X7552229Y-15710960D01*
X7552229Y-15710960D02*
X7561753Y-15701436D01*
X7561753Y-15701436D02*
X7561753Y-15720484D01*
X7752229Y-15520484D02*
X7656991Y-15520484D01*
X7656991Y-15520484D02*
X7647467Y-15615722D01*
X7647467Y-15615722D02*
X7656991Y-15606198D01*
X7656991Y-15606198D02*
X7676039Y-15596674D01*
X7676039Y-15596674D02*
X7723658Y-15596674D01*
X7723658Y-15596674D02*
X7742705Y-15606198D01*
X7742705Y-15606198D02*
X7752229Y-15615722D01*
X7752229Y-15615722D02*
X7761753Y-15634769D01*
X7761753Y-15634769D02*
X7761753Y-15682388D01*
X7761753Y-15682388D02*
X7752229Y-15701436D01*
X7752229Y-15701436D02*
X7742705Y-15710960D01*
X7742705Y-15710960D02*
X7723658Y-15720484D01*
X7723658Y-15720484D02*
X7676039Y-15720484D01*
X7676039Y-15720484D02*
X7656991Y-15710960D01*
X7656991Y-15710960D02*
X7647467Y-15701436D01*
X7885562Y-15520484D02*
X7904610Y-15520484D01*
X7904610Y-15520484D02*
X7923658Y-15530008D01*
X7923658Y-15530008D02*
X7933182Y-15539531D01*
X7933182Y-15539531D02*
X7942705Y-15558579D01*
X7942705Y-15558579D02*
X7952229Y-15596674D01*
X7952229Y-15596674D02*
X7952229Y-15644293D01*
X7952229Y-15644293D02*
X7942705Y-15682388D01*
X7942705Y-15682388D02*
X7933182Y-15701436D01*
X7933182Y-15701436D02*
X7923658Y-15710960D01*
X7923658Y-15710960D02*
X7904610Y-15720484D01*
X7904610Y-15720484D02*
X7885562Y-15720484D01*
X7885562Y-15720484D02*
X7866515Y-15710960D01*
X7866515Y-15710960D02*
X7856991Y-15701436D01*
X7856991Y-15701436D02*
X7847467Y-15682388D01*
X7847467Y-15682388D02*
X7837943Y-15644293D01*
X7837943Y-15644293D02*
X7837943Y-15596674D01*
X7837943Y-15596674D02*
X7847467Y-15558579D01*
X7847467Y-15558579D02*
X7856991Y-15539531D01*
X7856991Y-15539531D02*
X7866515Y-15530008D01*
X7866515Y-15530008D02*
X7885562Y-15520484D01*
X8076039Y-15520484D02*
X8095086Y-15520484D01*
X8095086Y-15520484D02*
X8114134Y-15530008D01*
X8114134Y-15530008D02*
X8123658Y-15539531D01*
X8123658Y-15539531D02*
X8133182Y-15558579D01*
X8133182Y-15558579D02*
X8142705Y-15596674D01*
X8142705Y-15596674D02*
X8142705Y-15644293D01*
X8142705Y-15644293D02*
X8133182Y-15682388D01*
X8133182Y-15682388D02*
X8123658Y-15701436D01*
X8123658Y-15701436D02*
X8114134Y-15710960D01*
X8114134Y-15710960D02*
X8095086Y-15720484D01*
X8095086Y-15720484D02*
X8076039Y-15720484D01*
X8076039Y-15720484D02*
X8056991Y-15710960D01*
X8056991Y-15710960D02*
X8047467Y-15701436D01*
X8047467Y-15701436D02*
X8037943Y-15682388D01*
X8037943Y-15682388D02*
X8028420Y-15644293D01*
X8028420Y-15644293D02*
X8028420Y-15596674D01*
X8028420Y-15596674D02*
X8037943Y-15558579D01*
X8037943Y-15558579D02*
X8047467Y-15539531D01*
X8047467Y-15539531D02*
X8056991Y-15530008D01*
X8056991Y-15530008D02*
X8076039Y-15520484D01*
X8228420Y-15720484D02*
X8228420Y-15587150D01*
X8228420Y-15606198D02*
X8237943Y-15596674D01*
X8237943Y-15596674D02*
X8256991Y-15587150D01*
X8256991Y-15587150D02*
X8285563Y-15587150D01*
X8285563Y-15587150D02*
X8304610Y-15596674D01*
X8304610Y-15596674D02*
X8314134Y-15615722D01*
X8314134Y-15615722D02*
X8314134Y-15720484D01*
X8314134Y-15615722D02*
X8323658Y-15596674D01*
X8323658Y-15596674D02*
X8342705Y-15587150D01*
X8342705Y-15587150D02*
X8371277Y-15587150D01*
X8371277Y-15587150D02*
X8390325Y-15596674D01*
X8390325Y-15596674D02*
X8399848Y-15615722D01*
X8399848Y-15615722D02*
X8399848Y-15720484D01*
X8495086Y-15720484D02*
X8495086Y-15587150D01*
X8495086Y-15606198D02*
X8504610Y-15596674D01*
X8504610Y-15596674D02*
X8523658Y-15587150D01*
X8523658Y-15587150D02*
X8552229Y-15587150D01*
X8552229Y-15587150D02*
X8571277Y-15596674D01*
X8571277Y-15596674D02*
X8580801Y-15615722D01*
X8580801Y-15615722D02*
X8580801Y-15720484D01*
X8580801Y-15615722D02*
X8590325Y-15596674D01*
X8590325Y-15596674D02*
X8609372Y-15587150D01*
X8609372Y-15587150D02*
X8637944Y-15587150D01*
X8637944Y-15587150D02*
X8656991Y-15596674D01*
X8656991Y-15596674D02*
X8666515Y-15615722D01*
X8666515Y-15615722D02*
X8666515Y-15720484D01*
X9056991Y-15510960D02*
X8885563Y-15768103D01*
X9314134Y-15520484D02*
X9333182Y-15520484D01*
X9333182Y-15520484D02*
X9352229Y-15530008D01*
X9352229Y-15530008D02*
X9361753Y-15539531D01*
X9361753Y-15539531D02*
X9371277Y-15558579D01*
X9371277Y-15558579D02*
X9380801Y-15596674D01*
X9380801Y-15596674D02*
X9380801Y-15644293D01*
X9380801Y-15644293D02*
X9371277Y-15682388D01*
X9371277Y-15682388D02*
X9361753Y-15701436D01*
X9361753Y-15701436D02*
X9352229Y-15710960D01*
X9352229Y-15710960D02*
X9333182Y-15720484D01*
X9333182Y-15720484D02*
X9314134Y-15720484D01*
X9314134Y-15720484D02*
X9295087Y-15710960D01*
X9295087Y-15710960D02*
X9285563Y-15701436D01*
X9285563Y-15701436D02*
X9276039Y-15682388D01*
X9276039Y-15682388D02*
X9266515Y-15644293D01*
X9266515Y-15644293D02*
X9266515Y-15596674D01*
X9266515Y-15596674D02*
X9276039Y-15558579D01*
X9276039Y-15558579D02*
X9285563Y-15539531D01*
X9285563Y-15539531D02*
X9295087Y-15530008D01*
X9295087Y-15530008D02*
X9314134Y-15520484D01*
X9466515Y-15701436D02*
X9476039Y-15710960D01*
X9476039Y-15710960D02*
X9466515Y-15720484D01*
X9466515Y-15720484D02*
X9456991Y-15710960D01*
X9456991Y-15710960D02*
X9466515Y-15701436D01*
X9466515Y-15701436D02*
X9466515Y-15720484D01*
X9599848Y-15520484D02*
X9618896Y-15520484D01*
X9618896Y-15520484D02*
X9637944Y-15530008D01*
X9637944Y-15530008D02*
X9647468Y-15539531D01*
X9647468Y-15539531D02*
X9656991Y-15558579D01*
X9656991Y-15558579D02*
X9666515Y-15596674D01*
X9666515Y-15596674D02*
X9666515Y-15644293D01*
X9666515Y-15644293D02*
X9656991Y-15682388D01*
X9656991Y-15682388D02*
X9647468Y-15701436D01*
X9647468Y-15701436D02*
X9637944Y-15710960D01*
X9637944Y-15710960D02*
X9618896Y-15720484D01*
X9618896Y-15720484D02*
X9599848Y-15720484D01*
X9599848Y-15720484D02*
X9580801Y-15710960D01*
X9580801Y-15710960D02*
X9571277Y-15701436D01*
X9571277Y-15701436D02*
X9561753Y-15682388D01*
X9561753Y-15682388D02*
X9552229Y-15644293D01*
X9552229Y-15644293D02*
X9552229Y-15596674D01*
X9552229Y-15596674D02*
X9561753Y-15558579D01*
X9561753Y-15558579D02*
X9571277Y-15539531D01*
X9571277Y-15539531D02*
X9580801Y-15530008D01*
X9580801Y-15530008D02*
X9599848Y-15520484D01*
X9761753Y-15720484D02*
X9799848Y-15720484D01*
X9799848Y-15720484D02*
X9818896Y-15710960D01*
X9818896Y-15710960D02*
X9828420Y-15701436D01*
X9828420Y-15701436D02*
X9847468Y-15672865D01*
X9847468Y-15672865D02*
X9856991Y-15634769D01*
X9856991Y-15634769D02*
X9856991Y-15558579D01*
X9856991Y-15558579D02*
X9847468Y-15539531D01*
X9847468Y-15539531D02*
X9837944Y-15530008D01*
X9837944Y-15530008D02*
X9818896Y-15520484D01*
X9818896Y-15520484D02*
X9780801Y-15520484D01*
X9780801Y-15520484D02*
X9761753Y-15530008D01*
X9761753Y-15530008D02*
X9752229Y-15539531D01*
X9752229Y-15539531D02*
X9742706Y-15558579D01*
X9742706Y-15558579D02*
X9742706Y-15606198D01*
X9742706Y-15606198D02*
X9752229Y-15625246D01*
X9752229Y-15625246D02*
X9761753Y-15634769D01*
X9761753Y-15634769D02*
X9780801Y-15644293D01*
X9780801Y-15644293D02*
X9818896Y-15644293D01*
X9818896Y-15644293D02*
X9837944Y-15634769D01*
X9837944Y-15634769D02*
X9847468Y-15625246D01*
X9847468Y-15625246D02*
X9856991Y-15606198D01*
X9971277Y-15606198D02*
X9952229Y-15596674D01*
X9952229Y-15596674D02*
X9942706Y-15587150D01*
X9942706Y-15587150D02*
X9933182Y-15568103D01*
X9933182Y-15568103D02*
X9933182Y-15558579D01*
X9933182Y-15558579D02*
X9942706Y-15539531D01*
X9942706Y-15539531D02*
X9952229Y-15530008D01*
X9952229Y-15530008D02*
X9971277Y-15520484D01*
X9971277Y-15520484D02*
X10009372Y-15520484D01*
X10009372Y-15520484D02*
X10028420Y-15530008D01*
X10028420Y-15530008D02*
X10037944Y-15539531D01*
X10037944Y-15539531D02*
X10047468Y-15558579D01*
X10047468Y-15558579D02*
X10047468Y-15568103D01*
X10047468Y-15568103D02*
X10037944Y-15587150D01*
X10037944Y-15587150D02*
X10028420Y-15596674D01*
X10028420Y-15596674D02*
X10009372Y-15606198D01*
X10009372Y-15606198D02*
X9971277Y-15606198D01*
X9971277Y-15606198D02*
X9952229Y-15615722D01*
X9952229Y-15615722D02*
X9942706Y-15625246D01*
X9942706Y-15625246D02*
X9933182Y-15644293D01*
X9933182Y-15644293D02*
X9933182Y-15682388D01*
X9933182Y-15682388D02*
X9942706Y-15701436D01*
X9942706Y-15701436D02*
X9952229Y-15710960D01*
X9952229Y-15710960D02*
X9971277Y-15720484D01*
X9971277Y-15720484D02*
X10009372Y-15720484D01*
X10009372Y-15720484D02*
X10028420Y-15710960D01*
X10028420Y-15710960D02*
X10037944Y-15701436D01*
X10037944Y-15701436D02*
X10047468Y-15682388D01*
X10047468Y-15682388D02*
X10047468Y-15644293D01*
X10047468Y-15644293D02*
X10037944Y-15625246D01*
X10037944Y-15625246D02*
X10028420Y-15615722D01*
X10028420Y-15615722D02*
X10009372Y-15606198D01*
X10218896Y-15587150D02*
X10218896Y-15720484D01*
X10171277Y-15510960D02*
X10123658Y-15653817D01*
X10123658Y-15653817D02*
X10247468Y-15653817D01*
X10314134Y-15520484D02*
X10314134Y-15558579D01*
X10390325Y-15520484D02*
X10390325Y-15558579D01*
X10685563Y-15796674D02*
X10676039Y-15787150D01*
X10676039Y-15787150D02*
X10656991Y-15758579D01*
X10656991Y-15758579D02*
X10647468Y-15739531D01*
X10647468Y-15739531D02*
X10637944Y-15710960D01*
X10637944Y-15710960D02*
X10628420Y-15663341D01*
X10628420Y-15663341D02*
X10628420Y-15625246D01*
X10628420Y-15625246D02*
X10637944Y-15577627D01*
X10637944Y-15577627D02*
X10647468Y-15549055D01*
X10647468Y-15549055D02*
X10656991Y-15530008D01*
X10656991Y-15530008D02*
X10676039Y-15501436D01*
X10676039Y-15501436D02*
X10685563Y-15491912D01*
X10847468Y-15520484D02*
X10809372Y-15520484D01*
X10809372Y-15520484D02*
X10790325Y-15530008D01*
X10790325Y-15530008D02*
X10780801Y-15539531D01*
X10780801Y-15539531D02*
X10761753Y-15568103D01*
X10761753Y-15568103D02*
X10752230Y-15606198D01*
X10752230Y-15606198D02*
X10752230Y-15682388D01*
X10752230Y-15682388D02*
X10761753Y-15701436D01*
X10761753Y-15701436D02*
X10771277Y-15710960D01*
X10771277Y-15710960D02*
X10790325Y-15720484D01*
X10790325Y-15720484D02*
X10828420Y-15720484D01*
X10828420Y-15720484D02*
X10847468Y-15710960D01*
X10847468Y-15710960D02*
X10856991Y-15701436D01*
X10856991Y-15701436D02*
X10866515Y-15682388D01*
X10866515Y-15682388D02*
X10866515Y-15634769D01*
X10866515Y-15634769D02*
X10856991Y-15615722D01*
X10856991Y-15615722D02*
X10847468Y-15606198D01*
X10847468Y-15606198D02*
X10828420Y-15596674D01*
X10828420Y-15596674D02*
X10790325Y-15596674D01*
X10790325Y-15596674D02*
X10771277Y-15606198D01*
X10771277Y-15606198D02*
X10761753Y-15615722D01*
X10761753Y-15615722D02*
X10752230Y-15634769D01*
X11104611Y-15720484D02*
X11104611Y-15520484D01*
X11190325Y-15720484D02*
X11190325Y-15615722D01*
X11190325Y-15615722D02*
X11180801Y-15596674D01*
X11180801Y-15596674D02*
X11161753Y-15587150D01*
X11161753Y-15587150D02*
X11133182Y-15587150D01*
X11133182Y-15587150D02*
X11114134Y-15596674D01*
X11114134Y-15596674D02*
X11104611Y-15606198D01*
X11314134Y-15720484D02*
X11295087Y-15710960D01*
X11295087Y-15710960D02*
X11285563Y-15701436D01*
X11285563Y-15701436D02*
X11276039Y-15682388D01*
X11276039Y-15682388D02*
X11276039Y-15625246D01*
X11276039Y-15625246D02*
X11285563Y-15606198D01*
X11285563Y-15606198D02*
X11295087Y-15596674D01*
X11295087Y-15596674D02*
X11314134Y-15587150D01*
X11314134Y-15587150D02*
X11342706Y-15587150D01*
X11342706Y-15587150D02*
X11361753Y-15596674D01*
X11361753Y-15596674D02*
X11371277Y-15606198D01*
X11371277Y-15606198D02*
X11380801Y-15625246D01*
X11380801Y-15625246D02*
X11380801Y-15682388D01*
X11380801Y-15682388D02*
X11371277Y-15701436D01*
X11371277Y-15701436D02*
X11361753Y-15710960D01*
X11361753Y-15710960D02*
X11342706Y-15720484D01*
X11342706Y-15720484D02*
X11314134Y-15720484D01*
X11495087Y-15720484D02*
X11476039Y-15710960D01*
X11476039Y-15710960D02*
X11466515Y-15691912D01*
X11466515Y-15691912D02*
X11466515Y-15520484D01*
X11647468Y-15710960D02*
X11628420Y-15720484D01*
X11628420Y-15720484D02*
X11590325Y-15720484D01*
X11590325Y-15720484D02*
X11571277Y-15710960D01*
X11571277Y-15710960D02*
X11561753Y-15691912D01*
X11561753Y-15691912D02*
X11561753Y-15615722D01*
X11561753Y-15615722D02*
X11571277Y-15596674D01*
X11571277Y-15596674D02*
X11590325Y-15587150D01*
X11590325Y-15587150D02*
X11628420Y-15587150D01*
X11628420Y-15587150D02*
X11647468Y-15596674D01*
X11647468Y-15596674D02*
X11656991Y-15615722D01*
X11656991Y-15615722D02*
X11656991Y-15634769D01*
X11656991Y-15634769D02*
X11561753Y-15653817D01*
X11733182Y-15710960D02*
X11752230Y-15720484D01*
X11752230Y-15720484D02*
X11790325Y-15720484D01*
X11790325Y-15720484D02*
X11809372Y-15710960D01*
X11809372Y-15710960D02*
X11818896Y-15691912D01*
X11818896Y-15691912D02*
X11818896Y-15682388D01*
X11818896Y-15682388D02*
X11809372Y-15663341D01*
X11809372Y-15663341D02*
X11790325Y-15653817D01*
X11790325Y-15653817D02*
X11761753Y-15653817D01*
X11761753Y-15653817D02*
X11742706Y-15644293D01*
X11742706Y-15644293D02*
X11733182Y-15625246D01*
X11733182Y-15625246D02*
X11733182Y-15615722D01*
X11733182Y-15615722D02*
X11742706Y-15596674D01*
X11742706Y-15596674D02*
X11761753Y-15587150D01*
X11761753Y-15587150D02*
X11790325Y-15587150D01*
X11790325Y-15587150D02*
X11809372Y-15596674D01*
X11885563Y-15796674D02*
X11895087Y-15787150D01*
X11895087Y-15787150D02*
X11914134Y-15758579D01*
X11914134Y-15758579D02*
X11923658Y-15739531D01*
X11923658Y-15739531D02*
X11933182Y-15710960D01*
X11933182Y-15710960D02*
X11942706Y-15663341D01*
X11942706Y-15663341D02*
X11942706Y-15625246D01*
X11942706Y-15625246D02*
X11933182Y-15577627D01*
X11933182Y-15577627D02*
X11923658Y-15549055D01*
X11923658Y-15549055D02*
X11914134Y-15530008D01*
X11914134Y-15530008D02*
X11895087Y-15501436D01*
X11895087Y-15501436D02*
X11885563Y-15491912D01*
X12247468Y-15796674D02*
X12237944Y-15787150D01*
X12237944Y-15787150D02*
X12218896Y-15758579D01*
X12218896Y-15758579D02*
X12209372Y-15739531D01*
X12209372Y-15739531D02*
X12199849Y-15710960D01*
X12199849Y-15710960D02*
X12190325Y-15663341D01*
X12190325Y-15663341D02*
X12190325Y-15625246D01*
X12190325Y-15625246D02*
X12199849Y-15577627D01*
X12199849Y-15577627D02*
X12209372Y-15549055D01*
X12209372Y-15549055D02*
X12218896Y-15530008D01*
X12218896Y-15530008D02*
X12237944Y-15501436D01*
X12237944Y-15501436D02*
X12247468Y-15491912D01*
X12323658Y-15587150D02*
X12323658Y-15720484D01*
X12323658Y-15606198D02*
X12333182Y-15596674D01*
X12333182Y-15596674D02*
X12352230Y-15587150D01*
X12352230Y-15587150D02*
X12380801Y-15587150D01*
X12380801Y-15587150D02*
X12399849Y-15596674D01*
X12399849Y-15596674D02*
X12409372Y-15615722D01*
X12409372Y-15615722D02*
X12409372Y-15720484D01*
X12533182Y-15720484D02*
X12514134Y-15710960D01*
X12514134Y-15710960D02*
X12504611Y-15701436D01*
X12504611Y-15701436D02*
X12495087Y-15682388D01*
X12495087Y-15682388D02*
X12495087Y-15625246D01*
X12495087Y-15625246D02*
X12504611Y-15606198D01*
X12504611Y-15606198D02*
X12514134Y-15596674D01*
X12514134Y-15596674D02*
X12533182Y-15587150D01*
X12533182Y-15587150D02*
X12561753Y-15587150D01*
X12561753Y-15587150D02*
X12580801Y-15596674D01*
X12580801Y-15596674D02*
X12590325Y-15606198D01*
X12590325Y-15606198D02*
X12599849Y-15625246D01*
X12599849Y-15625246D02*
X12599849Y-15682388D01*
X12599849Y-15682388D02*
X12590325Y-15701436D01*
X12590325Y-15701436D02*
X12580801Y-15710960D01*
X12580801Y-15710960D02*
X12561753Y-15720484D01*
X12561753Y-15720484D02*
X12533182Y-15720484D01*
X12656992Y-15587150D02*
X12733182Y-15587150D01*
X12685563Y-15520484D02*
X12685563Y-15691912D01*
X12685563Y-15691912D02*
X12695087Y-15710960D01*
X12695087Y-15710960D02*
X12714134Y-15720484D01*
X12714134Y-15720484D02*
X12733182Y-15720484D01*
X12952230Y-15587150D02*
X12952230Y-15787150D01*
X12952230Y-15596674D02*
X12971277Y-15587150D01*
X12971277Y-15587150D02*
X13009373Y-15587150D01*
X13009373Y-15587150D02*
X13028420Y-15596674D01*
X13028420Y-15596674D02*
X13037944Y-15606198D01*
X13037944Y-15606198D02*
X13047468Y-15625246D01*
X13047468Y-15625246D02*
X13047468Y-15682388D01*
X13047468Y-15682388D02*
X13037944Y-15701436D01*
X13037944Y-15701436D02*
X13028420Y-15710960D01*
X13028420Y-15710960D02*
X13009373Y-15720484D01*
X13009373Y-15720484D02*
X12971277Y-15720484D01*
X12971277Y-15720484D02*
X12952230Y-15710960D01*
X13161753Y-15720484D02*
X13142706Y-15710960D01*
X13142706Y-15710960D02*
X13133182Y-15691912D01*
X13133182Y-15691912D02*
X13133182Y-15520484D01*
X13323658Y-15720484D02*
X13323658Y-15615722D01*
X13323658Y-15615722D02*
X13314134Y-15596674D01*
X13314134Y-15596674D02*
X13295087Y-15587150D01*
X13295087Y-15587150D02*
X13256992Y-15587150D01*
X13256992Y-15587150D02*
X13237944Y-15596674D01*
X13323658Y-15710960D02*
X13304611Y-15720484D01*
X13304611Y-15720484D02*
X13256992Y-15720484D01*
X13256992Y-15720484D02*
X13237944Y-15710960D01*
X13237944Y-15710960D02*
X13228420Y-15691912D01*
X13228420Y-15691912D02*
X13228420Y-15672865D01*
X13228420Y-15672865D02*
X13237944Y-15653817D01*
X13237944Y-15653817D02*
X13256992Y-15644293D01*
X13256992Y-15644293D02*
X13304611Y-15644293D01*
X13304611Y-15644293D02*
X13323658Y-15634769D01*
X13390325Y-15587150D02*
X13466515Y-15587150D01*
X13418896Y-15520484D02*
X13418896Y-15691912D01*
X13418896Y-15691912D02*
X13428420Y-15710960D01*
X13428420Y-15710960D02*
X13447468Y-15720484D01*
X13447468Y-15720484D02*
X13466515Y-15720484D01*
X13609373Y-15710960D02*
X13590325Y-15720484D01*
X13590325Y-15720484D02*
X13552230Y-15720484D01*
X13552230Y-15720484D02*
X13533182Y-15710960D01*
X13533182Y-15710960D02*
X13523658Y-15691912D01*
X13523658Y-15691912D02*
X13523658Y-15615722D01*
X13523658Y-15615722D02*
X13533182Y-15596674D01*
X13533182Y-15596674D02*
X13552230Y-15587150D01*
X13552230Y-15587150D02*
X13590325Y-15587150D01*
X13590325Y-15587150D02*
X13609373Y-15596674D01*
X13609373Y-15596674D02*
X13618896Y-15615722D01*
X13618896Y-15615722D02*
X13618896Y-15634769D01*
X13618896Y-15634769D02*
X13523658Y-15653817D01*
X13790325Y-15720484D02*
X13790325Y-15520484D01*
X13790325Y-15710960D02*
X13771277Y-15720484D01*
X13771277Y-15720484D02*
X13733182Y-15720484D01*
X13733182Y-15720484D02*
X13714134Y-15710960D01*
X13714134Y-15710960D02*
X13704611Y-15701436D01*
X13704611Y-15701436D02*
X13695087Y-15682388D01*
X13695087Y-15682388D02*
X13695087Y-15625246D01*
X13695087Y-15625246D02*
X13704611Y-15606198D01*
X13704611Y-15606198D02*
X13714134Y-15596674D01*
X13714134Y-15596674D02*
X13733182Y-15587150D01*
X13733182Y-15587150D02*
X13771277Y-15587150D01*
X13771277Y-15587150D02*
X13790325Y-15596674D01*
X13866515Y-15796674D02*
X13876039Y-15787150D01*
X13876039Y-15787150D02*
X13895087Y-15758579D01*
X13895087Y-15758579D02*
X13904611Y-15739531D01*
X13904611Y-15739531D02*
X13914134Y-15710960D01*
X13914134Y-15710960D02*
X13923658Y-15663341D01*
X13923658Y-15663341D02*
X13923658Y-15625246D01*
X13923658Y-15625246D02*
X13914134Y-15577627D01*
X13914134Y-15577627D02*
X13904611Y-15549055D01*
X13904611Y-15549055D02*
X13895087Y-15530008D01*
X13895087Y-15530008D02*
X13876039Y-15501436D01*
X13876039Y-15501436D02*
X13866515Y-15491912D01*
X7110500Y-15949000D02*
G75*
G03*
X6910500Y-15949000I-100000J0D01*
G01*
X6910500Y-15949000D02*
G75*
G03*
X7110500Y-15949000I100000J0D01*
G01*
X7352229Y-15840484D02*
X7476039Y-15840484D01*
X7476039Y-15840484D02*
X7409372Y-15916674D01*
X7409372Y-15916674D02*
X7437943Y-15916674D01*
X7437943Y-15916674D02*
X7456991Y-15926198D01*
X7456991Y-15926198D02*
X7466515Y-15935722D01*
X7466515Y-15935722D02*
X7476039Y-15954769D01*
X7476039Y-15954769D02*
X7476039Y-16002388D01*
X7476039Y-16002388D02*
X7466515Y-16021436D01*
X7466515Y-16021436D02*
X7456991Y-16030960D01*
X7456991Y-16030960D02*
X7437943Y-16040484D01*
X7437943Y-16040484D02*
X7380801Y-16040484D01*
X7380801Y-16040484D02*
X7361753Y-16030960D01*
X7361753Y-16030960D02*
X7352229Y-16021436D01*
X7561753Y-16021436D02*
X7571277Y-16030960D01*
X7571277Y-16030960D02*
X7561753Y-16040484D01*
X7561753Y-16040484D02*
X7552229Y-16030960D01*
X7552229Y-16030960D02*
X7561753Y-16021436D01*
X7561753Y-16021436D02*
X7561753Y-16040484D01*
X7647467Y-15859531D02*
X7656991Y-15850008D01*
X7656991Y-15850008D02*
X7676039Y-15840484D01*
X7676039Y-15840484D02*
X7723658Y-15840484D01*
X7723658Y-15840484D02*
X7742705Y-15850008D01*
X7742705Y-15850008D02*
X7752229Y-15859531D01*
X7752229Y-15859531D02*
X7761753Y-15878579D01*
X7761753Y-15878579D02*
X7761753Y-15897627D01*
X7761753Y-15897627D02*
X7752229Y-15926198D01*
X7752229Y-15926198D02*
X7637943Y-16040484D01*
X7637943Y-16040484D02*
X7761753Y-16040484D01*
X7885562Y-15840484D02*
X7904610Y-15840484D01*
X7904610Y-15840484D02*
X7923658Y-15850008D01*
X7923658Y-15850008D02*
X7933182Y-15859531D01*
X7933182Y-15859531D02*
X7942705Y-15878579D01*
X7942705Y-15878579D02*
X7952229Y-15916674D01*
X7952229Y-15916674D02*
X7952229Y-15964293D01*
X7952229Y-15964293D02*
X7942705Y-16002388D01*
X7942705Y-16002388D02*
X7933182Y-16021436D01*
X7933182Y-16021436D02*
X7923658Y-16030960D01*
X7923658Y-16030960D02*
X7904610Y-16040484D01*
X7904610Y-16040484D02*
X7885562Y-16040484D01*
X7885562Y-16040484D02*
X7866515Y-16030960D01*
X7866515Y-16030960D02*
X7856991Y-16021436D01*
X7856991Y-16021436D02*
X7847467Y-16002388D01*
X7847467Y-16002388D02*
X7837943Y-15964293D01*
X7837943Y-15964293D02*
X7837943Y-15916674D01*
X7837943Y-15916674D02*
X7847467Y-15878579D01*
X7847467Y-15878579D02*
X7856991Y-15859531D01*
X7856991Y-15859531D02*
X7866515Y-15850008D01*
X7866515Y-15850008D02*
X7885562Y-15840484D01*
X8076039Y-15840484D02*
X8095086Y-15840484D01*
X8095086Y-15840484D02*
X8114134Y-15850008D01*
X8114134Y-15850008D02*
X8123658Y-15859531D01*
X8123658Y-15859531D02*
X8133182Y-15878579D01*
X8133182Y-15878579D02*
X8142705Y-15916674D01*
X8142705Y-15916674D02*
X8142705Y-15964293D01*
X8142705Y-15964293D02*
X8133182Y-16002388D01*
X8133182Y-16002388D02*
X8123658Y-16021436D01*
X8123658Y-16021436D02*
X8114134Y-16030960D01*
X8114134Y-16030960D02*
X8095086Y-16040484D01*
X8095086Y-16040484D02*
X8076039Y-16040484D01*
X8076039Y-16040484D02*
X8056991Y-16030960D01*
X8056991Y-16030960D02*
X8047467Y-16021436D01*
X8047467Y-16021436D02*
X8037943Y-16002388D01*
X8037943Y-16002388D02*
X8028420Y-15964293D01*
X8028420Y-15964293D02*
X8028420Y-15916674D01*
X8028420Y-15916674D02*
X8037943Y-15878579D01*
X8037943Y-15878579D02*
X8047467Y-15859531D01*
X8047467Y-15859531D02*
X8056991Y-15850008D01*
X8056991Y-15850008D02*
X8076039Y-15840484D01*
X8228420Y-16040484D02*
X8228420Y-15907150D01*
X8228420Y-15926198D02*
X8237943Y-15916674D01*
X8237943Y-15916674D02*
X8256991Y-15907150D01*
X8256991Y-15907150D02*
X8285563Y-15907150D01*
X8285563Y-15907150D02*
X8304610Y-15916674D01*
X8304610Y-15916674D02*
X8314134Y-15935722D01*
X8314134Y-15935722D02*
X8314134Y-16040484D01*
X8314134Y-15935722D02*
X8323658Y-15916674D01*
X8323658Y-15916674D02*
X8342705Y-15907150D01*
X8342705Y-15907150D02*
X8371277Y-15907150D01*
X8371277Y-15907150D02*
X8390325Y-15916674D01*
X8390325Y-15916674D02*
X8399848Y-15935722D01*
X8399848Y-15935722D02*
X8399848Y-16040484D01*
X8495086Y-16040484D02*
X8495086Y-15907150D01*
X8495086Y-15926198D02*
X8504610Y-15916674D01*
X8504610Y-15916674D02*
X8523658Y-15907150D01*
X8523658Y-15907150D02*
X8552229Y-15907150D01*
X8552229Y-15907150D02*
X8571277Y-15916674D01*
X8571277Y-15916674D02*
X8580801Y-15935722D01*
X8580801Y-15935722D02*
X8580801Y-16040484D01*
X8580801Y-15935722D02*
X8590325Y-15916674D01*
X8590325Y-15916674D02*
X8609372Y-15907150D01*
X8609372Y-15907150D02*
X8637944Y-15907150D01*
X8637944Y-15907150D02*
X8656991Y-15916674D01*
X8656991Y-15916674D02*
X8666515Y-15935722D01*
X8666515Y-15935722D02*
X8666515Y-16040484D01*
X9056991Y-15830960D02*
X8885563Y-16088103D01*
X9314134Y-15840484D02*
X9333182Y-15840484D01*
X9333182Y-15840484D02*
X9352229Y-15850008D01*
X9352229Y-15850008D02*
X9361753Y-15859531D01*
X9361753Y-15859531D02*
X9371277Y-15878579D01*
X9371277Y-15878579D02*
X9380801Y-15916674D01*
X9380801Y-15916674D02*
X9380801Y-15964293D01*
X9380801Y-15964293D02*
X9371277Y-16002388D01*
X9371277Y-16002388D02*
X9361753Y-16021436D01*
X9361753Y-16021436D02*
X9352229Y-16030960D01*
X9352229Y-16030960D02*
X9333182Y-16040484D01*
X9333182Y-16040484D02*
X9314134Y-16040484D01*
X9314134Y-16040484D02*
X9295087Y-16030960D01*
X9295087Y-16030960D02*
X9285563Y-16021436D01*
X9285563Y-16021436D02*
X9276039Y-16002388D01*
X9276039Y-16002388D02*
X9266515Y-15964293D01*
X9266515Y-15964293D02*
X9266515Y-15916674D01*
X9266515Y-15916674D02*
X9276039Y-15878579D01*
X9276039Y-15878579D02*
X9285563Y-15859531D01*
X9285563Y-15859531D02*
X9295087Y-15850008D01*
X9295087Y-15850008D02*
X9314134Y-15840484D01*
X9466515Y-16021436D02*
X9476039Y-16030960D01*
X9476039Y-16030960D02*
X9466515Y-16040484D01*
X9466515Y-16040484D02*
X9456991Y-16030960D01*
X9456991Y-16030960D02*
X9466515Y-16021436D01*
X9466515Y-16021436D02*
X9466515Y-16040484D01*
X9666515Y-16040484D02*
X9552229Y-16040484D01*
X9609372Y-16040484D02*
X9609372Y-15840484D01*
X9609372Y-15840484D02*
X9590325Y-15869055D01*
X9590325Y-15869055D02*
X9571277Y-15888103D01*
X9571277Y-15888103D02*
X9552229Y-15897627D01*
X9742706Y-15859531D02*
X9752229Y-15850008D01*
X9752229Y-15850008D02*
X9771277Y-15840484D01*
X9771277Y-15840484D02*
X9818896Y-15840484D01*
X9818896Y-15840484D02*
X9837944Y-15850008D01*
X9837944Y-15850008D02*
X9847468Y-15859531D01*
X9847468Y-15859531D02*
X9856991Y-15878579D01*
X9856991Y-15878579D02*
X9856991Y-15897627D01*
X9856991Y-15897627D02*
X9847468Y-15926198D01*
X9847468Y-15926198D02*
X9733182Y-16040484D01*
X9733182Y-16040484D02*
X9856991Y-16040484D01*
X10028420Y-15840484D02*
X9990325Y-15840484D01*
X9990325Y-15840484D02*
X9971277Y-15850008D01*
X9971277Y-15850008D02*
X9961753Y-15859531D01*
X9961753Y-15859531D02*
X9942706Y-15888103D01*
X9942706Y-15888103D02*
X9933182Y-15926198D01*
X9933182Y-15926198D02*
X9933182Y-16002388D01*
X9933182Y-16002388D02*
X9942706Y-16021436D01*
X9942706Y-16021436D02*
X9952229Y-16030960D01*
X9952229Y-16030960D02*
X9971277Y-16040484D01*
X9971277Y-16040484D02*
X10009372Y-16040484D01*
X10009372Y-16040484D02*
X10028420Y-16030960D01*
X10028420Y-16030960D02*
X10037944Y-16021436D01*
X10037944Y-16021436D02*
X10047468Y-16002388D01*
X10047468Y-16002388D02*
X10047468Y-15954769D01*
X10047468Y-15954769D02*
X10037944Y-15935722D01*
X10037944Y-15935722D02*
X10028420Y-15926198D01*
X10028420Y-15926198D02*
X10009372Y-15916674D01*
X10009372Y-15916674D02*
X9971277Y-15916674D01*
X9971277Y-15916674D02*
X9952229Y-15926198D01*
X9952229Y-15926198D02*
X9942706Y-15935722D01*
X9942706Y-15935722D02*
X9933182Y-15954769D01*
X10171277Y-15840484D02*
X10190325Y-15840484D01*
X10190325Y-15840484D02*
X10209372Y-15850008D01*
X10209372Y-15850008D02*
X10218896Y-15859531D01*
X10218896Y-15859531D02*
X10228420Y-15878579D01*
X10228420Y-15878579D02*
X10237944Y-15916674D01*
X10237944Y-15916674D02*
X10237944Y-15964293D01*
X10237944Y-15964293D02*
X10228420Y-16002388D01*
X10228420Y-16002388D02*
X10218896Y-16021436D01*
X10218896Y-16021436D02*
X10209372Y-16030960D01*
X10209372Y-16030960D02*
X10190325Y-16040484D01*
X10190325Y-16040484D02*
X10171277Y-16040484D01*
X10171277Y-16040484D02*
X10152229Y-16030960D01*
X10152229Y-16030960D02*
X10142706Y-16021436D01*
X10142706Y-16021436D02*
X10133182Y-16002388D01*
X10133182Y-16002388D02*
X10123658Y-15964293D01*
X10123658Y-15964293D02*
X10123658Y-15916674D01*
X10123658Y-15916674D02*
X10133182Y-15878579D01*
X10133182Y-15878579D02*
X10142706Y-15859531D01*
X10142706Y-15859531D02*
X10152229Y-15850008D01*
X10152229Y-15850008D02*
X10171277Y-15840484D01*
X10314134Y-15840484D02*
X10314134Y-15878579D01*
X10390325Y-15840484D02*
X10390325Y-15878579D01*
X10685563Y-16116674D02*
X10676039Y-16107150D01*
X10676039Y-16107150D02*
X10656991Y-16078579D01*
X10656991Y-16078579D02*
X10647468Y-16059531D01*
X10647468Y-16059531D02*
X10637944Y-16030960D01*
X10637944Y-16030960D02*
X10628420Y-15983341D01*
X10628420Y-15983341D02*
X10628420Y-15945246D01*
X10628420Y-15945246D02*
X10637944Y-15897627D01*
X10637944Y-15897627D02*
X10647468Y-15869055D01*
X10647468Y-15869055D02*
X10656991Y-15850008D01*
X10656991Y-15850008D02*
X10676039Y-15821436D01*
X10676039Y-15821436D02*
X10685563Y-15811912D01*
X10866515Y-16040484D02*
X10752230Y-16040484D01*
X10809372Y-16040484D02*
X10809372Y-15840484D01*
X10809372Y-15840484D02*
X10790325Y-15869055D01*
X10790325Y-15869055D02*
X10771277Y-15888103D01*
X10771277Y-15888103D02*
X10752230Y-15897627D01*
X10990325Y-15840484D02*
X11009372Y-15840484D01*
X11009372Y-15840484D02*
X11028420Y-15850008D01*
X11028420Y-15850008D02*
X11037944Y-15859531D01*
X11037944Y-15859531D02*
X11047468Y-15878579D01*
X11047468Y-15878579D02*
X11056991Y-15916674D01*
X11056991Y-15916674D02*
X11056991Y-15964293D01*
X11056991Y-15964293D02*
X11047468Y-16002388D01*
X11047468Y-16002388D02*
X11037944Y-16021436D01*
X11037944Y-16021436D02*
X11028420Y-16030960D01*
X11028420Y-16030960D02*
X11009372Y-16040484D01*
X11009372Y-16040484D02*
X10990325Y-16040484D01*
X10990325Y-16040484D02*
X10971277Y-16030960D01*
X10971277Y-16030960D02*
X10961753Y-16021436D01*
X10961753Y-16021436D02*
X10952230Y-16002388D01*
X10952230Y-16002388D02*
X10942706Y-15964293D01*
X10942706Y-15964293D02*
X10942706Y-15916674D01*
X10942706Y-15916674D02*
X10952230Y-15878579D01*
X10952230Y-15878579D02*
X10961753Y-15859531D01*
X10961753Y-15859531D02*
X10971277Y-15850008D01*
X10971277Y-15850008D02*
X10990325Y-15840484D01*
X11295087Y-16040484D02*
X11295087Y-15840484D01*
X11380801Y-16040484D02*
X11380801Y-15935722D01*
X11380801Y-15935722D02*
X11371277Y-15916674D01*
X11371277Y-15916674D02*
X11352230Y-15907150D01*
X11352230Y-15907150D02*
X11323658Y-15907150D01*
X11323658Y-15907150D02*
X11304610Y-15916674D01*
X11304610Y-15916674D02*
X11295087Y-15926198D01*
X11504610Y-16040484D02*
X11485563Y-16030960D01*
X11485563Y-16030960D02*
X11476039Y-16021436D01*
X11476039Y-16021436D02*
X11466515Y-16002388D01*
X11466515Y-16002388D02*
X11466515Y-15945246D01*
X11466515Y-15945246D02*
X11476039Y-15926198D01*
X11476039Y-15926198D02*
X11485563Y-15916674D01*
X11485563Y-15916674D02*
X11504610Y-15907150D01*
X11504610Y-15907150D02*
X11533182Y-15907150D01*
X11533182Y-15907150D02*
X11552230Y-15916674D01*
X11552230Y-15916674D02*
X11561753Y-15926198D01*
X11561753Y-15926198D02*
X11571277Y-15945246D01*
X11571277Y-15945246D02*
X11571277Y-16002388D01*
X11571277Y-16002388D02*
X11561753Y-16021436D01*
X11561753Y-16021436D02*
X11552230Y-16030960D01*
X11552230Y-16030960D02*
X11533182Y-16040484D01*
X11533182Y-16040484D02*
X11504610Y-16040484D01*
X11685563Y-16040484D02*
X11666515Y-16030960D01*
X11666515Y-16030960D02*
X11656991Y-16011912D01*
X11656991Y-16011912D02*
X11656991Y-15840484D01*
X11837944Y-16030960D02*
X11818896Y-16040484D01*
X11818896Y-16040484D02*
X11780801Y-16040484D01*
X11780801Y-16040484D02*
X11761753Y-16030960D01*
X11761753Y-16030960D02*
X11752230Y-16011912D01*
X11752230Y-16011912D02*
X11752230Y-15935722D01*
X11752230Y-15935722D02*
X11761753Y-15916674D01*
X11761753Y-15916674D02*
X11780801Y-15907150D01*
X11780801Y-15907150D02*
X11818896Y-15907150D01*
X11818896Y-15907150D02*
X11837944Y-15916674D01*
X11837944Y-15916674D02*
X11847468Y-15935722D01*
X11847468Y-15935722D02*
X11847468Y-15954769D01*
X11847468Y-15954769D02*
X11752230Y-15973817D01*
X11923658Y-16030960D02*
X11942706Y-16040484D01*
X11942706Y-16040484D02*
X11980801Y-16040484D01*
X11980801Y-16040484D02*
X11999849Y-16030960D01*
X11999849Y-16030960D02*
X12009372Y-16011912D01*
X12009372Y-16011912D02*
X12009372Y-16002388D01*
X12009372Y-16002388D02*
X11999849Y-15983341D01*
X11999849Y-15983341D02*
X11980801Y-15973817D01*
X11980801Y-15973817D02*
X11952230Y-15973817D01*
X11952230Y-15973817D02*
X11933182Y-15964293D01*
X11933182Y-15964293D02*
X11923658Y-15945246D01*
X11923658Y-15945246D02*
X11923658Y-15935722D01*
X11923658Y-15935722D02*
X11933182Y-15916674D01*
X11933182Y-15916674D02*
X11952230Y-15907150D01*
X11952230Y-15907150D02*
X11980801Y-15907150D01*
X11980801Y-15907150D02*
X11999849Y-15916674D01*
X12076039Y-16116674D02*
X12085563Y-16107150D01*
X12085563Y-16107150D02*
X12104611Y-16078579D01*
X12104611Y-16078579D02*
X12114134Y-16059531D01*
X12114134Y-16059531D02*
X12123658Y-16030960D01*
X12123658Y-16030960D02*
X12133182Y-15983341D01*
X12133182Y-15983341D02*
X12133182Y-15945246D01*
X12133182Y-15945246D02*
X12123658Y-15897627D01*
X12123658Y-15897627D02*
X12114134Y-15869055D01*
X12114134Y-15869055D02*
X12104611Y-15850008D01*
X12104611Y-15850008D02*
X12085563Y-15821436D01*
X12085563Y-15821436D02*
X12076039Y-15811912D01*
X12437944Y-16116674D02*
X12428420Y-16107150D01*
X12428420Y-16107150D02*
X12409372Y-16078579D01*
X12409372Y-16078579D02*
X12399849Y-16059531D01*
X12399849Y-16059531D02*
X12390325Y-16030960D01*
X12390325Y-16030960D02*
X12380801Y-15983341D01*
X12380801Y-15983341D02*
X12380801Y-15945246D01*
X12380801Y-15945246D02*
X12390325Y-15897627D01*
X12390325Y-15897627D02*
X12399849Y-15869055D01*
X12399849Y-15869055D02*
X12409372Y-15850008D01*
X12409372Y-15850008D02*
X12428420Y-15821436D01*
X12428420Y-15821436D02*
X12437944Y-15811912D01*
X12514134Y-15907150D02*
X12514134Y-16040484D01*
X12514134Y-15926198D02*
X12523658Y-15916674D01*
X12523658Y-15916674D02*
X12542706Y-15907150D01*
X12542706Y-15907150D02*
X12571277Y-15907150D01*
X12571277Y-15907150D02*
X12590325Y-15916674D01*
X12590325Y-15916674D02*
X12599849Y-15935722D01*
X12599849Y-15935722D02*
X12599849Y-16040484D01*
X12723658Y-16040484D02*
X12704611Y-16030960D01*
X12704611Y-16030960D02*
X12695087Y-16021436D01*
X12695087Y-16021436D02*
X12685563Y-16002388D01*
X12685563Y-16002388D02*
X12685563Y-15945246D01*
X12685563Y-15945246D02*
X12695087Y-15926198D01*
X12695087Y-15926198D02*
X12704611Y-15916674D01*
X12704611Y-15916674D02*
X12723658Y-15907150D01*
X12723658Y-15907150D02*
X12752230Y-15907150D01*
X12752230Y-15907150D02*
X12771277Y-15916674D01*
X12771277Y-15916674D02*
X12780801Y-15926198D01*
X12780801Y-15926198D02*
X12790325Y-15945246D01*
X12790325Y-15945246D02*
X12790325Y-16002388D01*
X12790325Y-16002388D02*
X12780801Y-16021436D01*
X12780801Y-16021436D02*
X12771277Y-16030960D01*
X12771277Y-16030960D02*
X12752230Y-16040484D01*
X12752230Y-16040484D02*
X12723658Y-16040484D01*
X12847468Y-15907150D02*
X12923658Y-15907150D01*
X12876039Y-15840484D02*
X12876039Y-16011912D01*
X12876039Y-16011912D02*
X12885563Y-16030960D01*
X12885563Y-16030960D02*
X12904611Y-16040484D01*
X12904611Y-16040484D02*
X12923658Y-16040484D01*
X13142706Y-15907150D02*
X13142706Y-16107150D01*
X13142706Y-15916674D02*
X13161753Y-15907150D01*
X13161753Y-15907150D02*
X13199849Y-15907150D01*
X13199849Y-15907150D02*
X13218896Y-15916674D01*
X13218896Y-15916674D02*
X13228420Y-15926198D01*
X13228420Y-15926198D02*
X13237944Y-15945246D01*
X13237944Y-15945246D02*
X13237944Y-16002388D01*
X13237944Y-16002388D02*
X13228420Y-16021436D01*
X13228420Y-16021436D02*
X13218896Y-16030960D01*
X13218896Y-16030960D02*
X13199849Y-16040484D01*
X13199849Y-16040484D02*
X13161753Y-16040484D01*
X13161753Y-16040484D02*
X13142706Y-16030960D01*
X13352230Y-16040484D02*
X13333182Y-16030960D01*
X13333182Y-16030960D02*
X13323658Y-16011912D01*
X13323658Y-16011912D02*
X13323658Y-15840484D01*
X13514134Y-16040484D02*
X13514134Y-15935722D01*
X13514134Y-15935722D02*
X13504611Y-15916674D01*
X13504611Y-15916674D02*
X13485563Y-15907150D01*
X13485563Y-15907150D02*
X13447468Y-15907150D01*
X13447468Y-15907150D02*
X13428420Y-15916674D01*
X13514134Y-16030960D02*
X13495087Y-16040484D01*
X13495087Y-16040484D02*
X13447468Y-16040484D01*
X13447468Y-16040484D02*
X13428420Y-16030960D01*
X13428420Y-16030960D02*
X13418896Y-16011912D01*
X13418896Y-16011912D02*
X13418896Y-15992865D01*
X13418896Y-15992865D02*
X13428420Y-15973817D01*
X13428420Y-15973817D02*
X13447468Y-15964293D01*
X13447468Y-15964293D02*
X13495087Y-15964293D01*
X13495087Y-15964293D02*
X13514134Y-15954769D01*
X13580801Y-15907150D02*
X13656992Y-15907150D01*
X13609373Y-15840484D02*
X13609373Y-16011912D01*
X13609373Y-16011912D02*
X13618896Y-16030960D01*
X13618896Y-16030960D02*
X13637944Y-16040484D01*
X13637944Y-16040484D02*
X13656992Y-16040484D01*
X13799849Y-16030960D02*
X13780801Y-16040484D01*
X13780801Y-16040484D02*
X13742706Y-16040484D01*
X13742706Y-16040484D02*
X13723658Y-16030960D01*
X13723658Y-16030960D02*
X13714134Y-16011912D01*
X13714134Y-16011912D02*
X13714134Y-15935722D01*
X13714134Y-15935722D02*
X13723658Y-15916674D01*
X13723658Y-15916674D02*
X13742706Y-15907150D01*
X13742706Y-15907150D02*
X13780801Y-15907150D01*
X13780801Y-15907150D02*
X13799849Y-15916674D01*
X13799849Y-15916674D02*
X13809373Y-15935722D01*
X13809373Y-15935722D02*
X13809373Y-15954769D01*
X13809373Y-15954769D02*
X13714134Y-15973817D01*
X13980801Y-16040484D02*
X13980801Y-15840484D01*
X13980801Y-16030960D02*
X13961754Y-16040484D01*
X13961754Y-16040484D02*
X13923658Y-16040484D01*
X13923658Y-16040484D02*
X13904611Y-16030960D01*
X13904611Y-16030960D02*
X13895087Y-16021436D01*
X13895087Y-16021436D02*
X13885563Y-16002388D01*
X13885563Y-16002388D02*
X13885563Y-15945246D01*
X13885563Y-15945246D02*
X13895087Y-15926198D01*
X13895087Y-15926198D02*
X13904611Y-15916674D01*
X13904611Y-15916674D02*
X13923658Y-15907150D01*
X13923658Y-15907150D02*
X13961754Y-15907150D01*
X13961754Y-15907150D02*
X13980801Y-15916674D01*
X14056992Y-16116674D02*
X14066515Y-16107150D01*
X14066515Y-16107150D02*
X14085563Y-16078579D01*
X14085563Y-16078579D02*
X14095087Y-16059531D01*
X14095087Y-16059531D02*
X14104611Y-16030960D01*
X14104611Y-16030960D02*
X14114134Y-15983341D01*
X14114134Y-15983341D02*
X14114134Y-15945246D01*
X14114134Y-15945246D02*
X14104611Y-15897627D01*
X14104611Y-15897627D02*
X14095087Y-15869055D01*
X14095087Y-15869055D02*
X14085563Y-15850008D01*
X14085563Y-15850008D02*
X14066515Y-15821436D01*
X14066515Y-15821436D02*
X14056992Y-15811912D01*
M02*
