G04 #@! TF.GenerationSoftware,KiCad,Pcbnew,7.0.11-7.0.11~ubuntu20.04.1*
G04 #@! TF.CreationDate,2024-08-20T17:51:30+02:00*
G04 #@! TF.ProjectId,kicad-kria-pmod-alinx,6b696361-642d-46b7-9269-612d706d6f64,1.0*
G04 #@! TF.SameCoordinates,Original*
G04 #@! TF.FileFunction,Soldermask,Top*
G04 #@! TF.FilePolarity,Negative*
%FSLAX46Y46*%
G04 Gerber Fmt 4.6, Leading zero omitted, Abs format (unit mm)*
G04 Created by KiCad (PCBNEW 7.0.11-7.0.11~ubuntu20.04.1) date 2024-08-20 17:51:30*
%MOMM*%
%LPD*%
G01*
G04 APERTURE LIST*
G04 Aperture macros list*
%AMRoundRect*
0 Rectangle with rounded corners*
0 $1 Rounding radius*
0 $2 $3 $4 $5 $6 $7 $8 $9 X,Y pos of 4 corners*
0 Add a 4 corners polygon primitive as box body*
4,1,4,$2,$3,$4,$5,$6,$7,$8,$9,$2,$3,0*
0 Add four circle primitives for the rounded corners*
1,1,$1+$1,$2,$3*
1,1,$1+$1,$4,$5*
1,1,$1+$1,$6,$7*
1,1,$1+$1,$8,$9*
0 Add four rect primitives between the rounded corners*
20,1,$1+$1,$2,$3,$4,$5,0*
20,1,$1+$1,$4,$5,$6,$7,0*
20,1,$1+$1,$6,$7,$8,$9,0*
20,1,$1+$1,$8,$9,$2,$3,0*%
G04 Aperture macros list end*
%ADD10C,3.200000*%
%ADD11RoundRect,0.237500X0.300000X0.237500X-0.300000X0.237500X-0.300000X-0.237500X0.300000X-0.237500X0*%
%ADD12C,2.500000*%
%ADD13RoundRect,0.237500X-0.237500X0.250000X-0.237500X-0.250000X0.237500X-0.250000X0.237500X0.250000X0*%
%ADD14RoundRect,0.237500X-0.237500X0.287500X-0.237500X-0.287500X0.237500X-0.287500X0.237500X0.287500X0*%
%ADD15R,1.700000X1.700000*%
%ADD16O,1.700000X1.700000*%
%ADD17RoundRect,0.237500X0.237500X-0.300000X0.237500X0.300000X-0.237500X0.300000X-0.237500X-0.300000X0*%
%ADD18RoundRect,0.237500X-0.237500X0.300000X-0.237500X-0.300000X0.237500X-0.300000X0.237500X0.300000X0*%
%ADD19RoundRect,0.237500X-0.300000X-0.237500X0.300000X-0.237500X0.300000X0.237500X-0.300000X0.237500X0*%
G04 APERTURE END LIST*
D10*
X143555000Y-144195000D03*
X139355000Y-121000000D03*
X138205000Y-130640000D03*
D11*
X128280000Y-57155000D03*
X126555000Y-57155000D03*
D12*
X116850000Y-144150000D03*
D13*
X152410000Y-56520000D03*
X152410000Y-58345000D03*
D10*
X132580000Y-101945000D03*
D14*
X81925000Y-56520000D03*
X81925000Y-58270000D03*
D12*
X156855000Y-144150000D03*
X93990000Y-29220000D03*
D10*
X139355000Y-90000000D03*
D12*
X139710000Y-29220000D03*
D15*
X111765000Y-30485000D03*
D16*
X111765000Y-27945000D03*
X109225000Y-30485000D03*
X109225000Y-27945000D03*
X106685000Y-30485000D03*
X106685000Y-27945000D03*
X104145000Y-30485000D03*
X104145000Y-27945000D03*
X101605000Y-30485000D03*
X101605000Y-27945000D03*
X99065000Y-30485000D03*
X99065000Y-27945000D03*
D10*
X94355000Y-90000000D03*
D15*
X88905000Y-30485000D03*
D16*
X88905000Y-27945000D03*
X86365000Y-30485000D03*
X86365000Y-27945000D03*
X83825000Y-30485000D03*
X83825000Y-27945000D03*
X81285000Y-30485000D03*
X81285000Y-27945000D03*
X78745000Y-30485000D03*
X78745000Y-27945000D03*
X76205000Y-30485000D03*
X76205000Y-27945000D03*
D17*
X144155000Y-46587500D03*
X144155000Y-44862500D03*
D10*
X100605000Y-130640000D03*
D12*
X76845000Y-144150000D03*
D15*
X140980000Y-59700000D03*
D16*
X140980000Y-62240000D03*
X138440000Y-59700000D03*
X138440000Y-62240000D03*
X135900000Y-59700000D03*
X135900000Y-62240000D03*
X133360000Y-59700000D03*
X133360000Y-62240000D03*
X130820000Y-59700000D03*
X130820000Y-62240000D03*
X128280000Y-59700000D03*
X128280000Y-62240000D03*
X125740000Y-59700000D03*
X125740000Y-62240000D03*
X123200000Y-59700000D03*
X123200000Y-62240000D03*
X120660000Y-59700000D03*
X120660000Y-62240000D03*
X118120000Y-59700000D03*
X118120000Y-62240000D03*
X115580000Y-59700000D03*
X115580000Y-62240000D03*
X113040000Y-59700000D03*
X113040000Y-62240000D03*
X110500000Y-59700000D03*
X110500000Y-62240000D03*
X107960000Y-59700000D03*
X107960000Y-62240000D03*
X105420000Y-59700000D03*
X105420000Y-62240000D03*
X102880000Y-59700000D03*
X102880000Y-62240000D03*
X100340000Y-59700000D03*
X100340000Y-62240000D03*
X97800000Y-59700000D03*
X97800000Y-62240000D03*
D10*
X94355000Y-121000000D03*
D15*
X140980000Y-44455000D03*
D16*
X140980000Y-46995000D03*
X138440000Y-44455000D03*
X138440000Y-46995000D03*
X135900000Y-44455000D03*
X135900000Y-46995000D03*
X133360000Y-44455000D03*
X133360000Y-46995000D03*
X130820000Y-44455000D03*
X130820000Y-46995000D03*
X128280000Y-44455000D03*
X128280000Y-46995000D03*
X125740000Y-44455000D03*
X125740000Y-46995000D03*
X123200000Y-44455000D03*
X123200000Y-46995000D03*
X120660000Y-44455000D03*
X120660000Y-46995000D03*
X118120000Y-44455000D03*
X118120000Y-46995000D03*
X115580000Y-44455000D03*
X115580000Y-46995000D03*
X113040000Y-44455000D03*
X113040000Y-46995000D03*
X110500000Y-44455000D03*
X110500000Y-46995000D03*
X107960000Y-44455000D03*
X107960000Y-46995000D03*
X105420000Y-44455000D03*
X105420000Y-46995000D03*
X102880000Y-44455000D03*
X102880000Y-46995000D03*
X100340000Y-44455000D03*
X100340000Y-46995000D03*
X97800000Y-44455000D03*
X97800000Y-46995000D03*
X95260000Y-44455000D03*
X95260000Y-46995000D03*
X92720000Y-44455000D03*
X92720000Y-46995000D03*
D18*
X149870000Y-49127500D03*
X149870000Y-47402500D03*
D12*
X116850000Y-29220000D03*
D13*
X84465000Y-56482500D03*
X84465000Y-58307500D03*
D10*
X98580000Y-101945000D03*
D15*
X157485000Y-30485000D03*
D16*
X157485000Y-27945000D03*
X154945000Y-30485000D03*
X154945000Y-27945000D03*
X152405000Y-30485000D03*
X152405000Y-27945000D03*
X149865000Y-30485000D03*
X149865000Y-27945000D03*
X147325000Y-30485000D03*
X147325000Y-27945000D03*
X144785000Y-30485000D03*
X144785000Y-27945000D03*
D18*
X92085000Y-52075000D03*
X92085000Y-53800000D03*
D19*
X92720000Y-41280000D03*
X94445000Y-41280000D03*
D15*
X153680000Y-49535000D03*
D16*
X153680000Y-46995000D03*
D10*
X97755000Y-144195000D03*
D14*
X154950000Y-58345000D03*
X154950000Y-56595000D03*
D15*
X134625000Y-30485000D03*
D16*
X134625000Y-27945000D03*
X132085000Y-30485000D03*
X132085000Y-27945000D03*
X129545000Y-30485000D03*
X129545000Y-27945000D03*
X127005000Y-30485000D03*
X127005000Y-27945000D03*
X124465000Y-30485000D03*
X124465000Y-27945000D03*
X121925000Y-30485000D03*
X121925000Y-27945000D03*
D17*
X144155000Y-69855000D03*
X144155000Y-68130000D03*
D15*
X140980000Y-67320000D03*
D16*
X140980000Y-69860000D03*
X138440000Y-67320000D03*
X138440000Y-69860000D03*
X135900000Y-67320000D03*
X135900000Y-69860000D03*
X133360000Y-67320000D03*
X133360000Y-69860000D03*
X130820000Y-67320000D03*
X130820000Y-69860000D03*
X128280000Y-67320000D03*
X128280000Y-69860000D03*
X125740000Y-67320000D03*
X125740000Y-69860000D03*
X123200000Y-67320000D03*
X123200000Y-69860000D03*
X120660000Y-67320000D03*
X120660000Y-69860000D03*
X118120000Y-67320000D03*
X118120000Y-69860000D03*
X115580000Y-67320000D03*
X115580000Y-69860000D03*
X113040000Y-67320000D03*
X113040000Y-69860000D03*
X110500000Y-67320000D03*
X110500000Y-69860000D03*
X107960000Y-67320000D03*
X107960000Y-69860000D03*
X105420000Y-67320000D03*
X105420000Y-69860000D03*
X102880000Y-67320000D03*
X102880000Y-69860000D03*
X100340000Y-67320000D03*
X100340000Y-69860000D03*
D15*
X133360000Y-52075000D03*
D16*
X133360000Y-54615000D03*
X130820000Y-52075000D03*
X130820000Y-54615000D03*
X128280000Y-52075000D03*
X128280000Y-54615000D03*
X125740000Y-52075000D03*
X125740000Y-54615000D03*
X123200000Y-52075000D03*
X123200000Y-54615000D03*
X120660000Y-52075000D03*
X120660000Y-54615000D03*
X118120000Y-52075000D03*
X118120000Y-54615000D03*
X115580000Y-52075000D03*
X115580000Y-54615000D03*
X113040000Y-52075000D03*
X113040000Y-54615000D03*
X110500000Y-52075000D03*
X110500000Y-54615000D03*
X107960000Y-52075000D03*
X107960000Y-54615000D03*
X105420000Y-52075000D03*
X105420000Y-54615000D03*
X102880000Y-52075000D03*
X102880000Y-54615000D03*
X100340000Y-52075000D03*
X100340000Y-54615000D03*
X97800000Y-52075000D03*
X97800000Y-54615000D03*
X95260000Y-52075000D03*
X95260000Y-54615000D03*
M02*
