M48
; DRILL file {KiCad 7.0.11-7.0.11~ubuntu20.04.1} date tor 20 avg 2024 17:51:44
; FORMAT={-:-/ absolute / metric / decimal}
; #@! TF.CreationDate,2024-08-20T17:51:44+02:00
; #@! TF.GenerationSoftware,Kicad,Pcbnew,7.0.11-7.0.11~ubuntu20.04.1
; #@! TF.FileFunction,Plated,1,2,PTH
FMAT,2
METRIC
; #@! TA.AperFunction,Plated,PTH,ComponentDrill
T1C1.000
%
G90
G05
T1
X76.205Y-27.945
X76.205Y-30.485
X78.745Y-27.945
X78.745Y-30.485
X81.285Y-27.945
X81.285Y-30.485
X83.825Y-27.945
X83.825Y-30.485
X86.365Y-27.945
X86.365Y-30.485
X88.905Y-27.945
X88.905Y-30.485
X92.72Y-44.455
X92.72Y-46.995
X95.26Y-44.455
X95.26Y-46.995
X95.26Y-52.075
X95.26Y-54.615
X97.8Y-44.455
X97.8Y-46.995
X97.8Y-52.075
X97.8Y-54.615
X97.8Y-59.7
X97.8Y-62.24
X99.065Y-27.945
X99.065Y-30.485
X100.34Y-44.455
X100.34Y-46.995
X100.34Y-52.075
X100.34Y-54.615
X100.34Y-59.7
X100.34Y-62.24
X100.34Y-67.32
X100.34Y-69.86
X101.605Y-27.945
X101.605Y-30.485
X102.88Y-44.455
X102.88Y-46.995
X102.88Y-52.075
X102.88Y-54.615
X102.88Y-59.7
X102.88Y-62.24
X102.88Y-67.32
X102.88Y-69.86
X104.145Y-27.945
X104.145Y-30.485
X105.42Y-44.455
X105.42Y-46.995
X105.42Y-52.075
X105.42Y-54.615
X105.42Y-59.7
X105.42Y-62.24
X105.42Y-67.32
X105.42Y-69.86
X106.685Y-27.945
X106.685Y-30.485
X107.96Y-44.455
X107.96Y-46.995
X107.96Y-52.075
X107.96Y-54.615
X107.96Y-59.7
X107.96Y-62.24
X107.96Y-67.32
X107.96Y-69.86
X109.225Y-27.945
X109.225Y-30.485
X110.5Y-44.455
X110.5Y-46.995
X110.5Y-52.075
X110.5Y-54.615
X110.5Y-59.7
X110.5Y-62.24
X110.5Y-67.32
X110.5Y-69.86
X111.765Y-27.945
X111.765Y-30.485
X113.04Y-44.455
X113.04Y-46.995
X113.04Y-52.075
X113.04Y-54.615
X113.04Y-59.7
X113.04Y-62.24
X113.04Y-67.32
X113.04Y-69.86
X115.58Y-44.455
X115.58Y-46.995
X115.58Y-52.075
X115.58Y-54.615
X115.58Y-59.7
X115.58Y-62.24
X115.58Y-67.32
X115.58Y-69.86
X118.12Y-44.455
X118.12Y-46.995
X118.12Y-52.075
X118.12Y-54.615
X118.12Y-59.7
X118.12Y-62.24
X118.12Y-67.32
X118.12Y-69.86
X120.66Y-44.455
X120.66Y-46.995
X120.66Y-52.075
X120.66Y-54.615
X120.66Y-59.7
X120.66Y-62.24
X120.66Y-67.32
X120.66Y-69.86
X121.925Y-27.945
X121.925Y-30.485
X123.2Y-44.455
X123.2Y-46.995
X123.2Y-52.075
X123.2Y-54.615
X123.2Y-59.7
X123.2Y-62.24
X123.2Y-67.32
X123.2Y-69.86
X124.465Y-27.945
X124.465Y-30.485
X125.74Y-44.455
X125.74Y-46.995
X125.74Y-52.075
X125.74Y-54.615
X125.74Y-59.7
X125.74Y-62.24
X125.74Y-67.32
X125.74Y-69.86
X127.005Y-27.945
X127.005Y-30.485
X128.28Y-44.455
X128.28Y-46.995
X128.28Y-52.075
X128.28Y-54.615
X128.28Y-59.7
X128.28Y-62.24
X128.28Y-67.32
X128.28Y-69.86
X129.545Y-27.945
X129.545Y-30.485
X130.82Y-44.455
X130.82Y-46.995
X130.82Y-52.075
X130.82Y-54.615
X130.82Y-59.7
X130.82Y-62.24
X130.82Y-67.32
X130.82Y-69.86
X132.085Y-27.945
X132.085Y-30.485
X133.36Y-44.455
X133.36Y-46.995
X133.36Y-52.075
X133.36Y-54.615
X133.36Y-59.7
X133.36Y-62.24
X133.36Y-67.32
X133.36Y-69.86
X134.625Y-27.945
X134.625Y-30.485
X135.9Y-44.455
X135.9Y-46.995
X135.9Y-59.7
X135.9Y-62.24
X135.9Y-67.32
X135.9Y-69.86
X138.44Y-44.455
X138.44Y-46.995
X138.44Y-59.7
X138.44Y-62.24
X138.44Y-67.32
X138.44Y-69.86
X140.98Y-44.455
X140.98Y-46.995
X140.98Y-59.7
X140.98Y-62.24
X140.98Y-67.32
X140.98Y-69.86
X144.785Y-27.945
X144.785Y-30.485
X147.325Y-27.945
X147.325Y-30.485
X149.865Y-27.945
X149.865Y-30.485
X152.405Y-27.945
X152.405Y-30.485
X153.68Y-46.995
X153.68Y-49.535
X154.945Y-27.945
X154.945Y-30.485
X157.485Y-27.945
X157.485Y-30.485
M30
