G04 #@! TF.GenerationSoftware,KiCad,Pcbnew,7.0.11-7.0.11~ubuntu20.04.1*
G04 #@! TF.CreationDate,2024-08-20T17:51:30+02:00*
G04 #@! TF.ProjectId,kicad-kria-pmod-alinx,6b696361-642d-46b7-9269-612d706d6f64,1.0*
G04 #@! TF.SameCoordinates,Original*
G04 #@! TF.FileFunction,Soldermask,Bot*
G04 #@! TF.FilePolarity,Negative*
%FSLAX46Y46*%
G04 Gerber Fmt 4.6, Leading zero omitted, Abs format (unit mm)*
G04 Created by KiCad (PCBNEW 7.0.11-7.0.11~ubuntu20.04.1) date 2024-08-20 17:51:30*
%MOMM*%
%LPD*%
G01*
G04 APERTURE LIST*
%ADD10C,3.200000*%
%ADD11C,2.500000*%
%ADD12R,1.700000X1.700000*%
%ADD13O,1.700000X1.700000*%
G04 APERTURE END LIST*
D10*
X143555000Y-144195000D03*
X139355000Y-121000000D03*
X138205000Y-130640000D03*
D11*
X116850000Y-144150000D03*
D10*
X132580000Y-101945000D03*
D11*
X156855000Y-144150000D03*
X93990000Y-29220000D03*
D10*
X139355000Y-90000000D03*
D11*
X139710000Y-29220000D03*
D12*
X111765000Y-30485000D03*
D13*
X111765000Y-27945000D03*
X109225000Y-30485000D03*
X109225000Y-27945000D03*
X106685000Y-30485000D03*
X106685000Y-27945000D03*
X104145000Y-30485000D03*
X104145000Y-27945000D03*
X101605000Y-30485000D03*
X101605000Y-27945000D03*
X99065000Y-30485000D03*
X99065000Y-27945000D03*
D10*
X94355000Y-90000000D03*
D12*
X88905000Y-30485000D03*
D13*
X88905000Y-27945000D03*
X86365000Y-30485000D03*
X86365000Y-27945000D03*
X83825000Y-30485000D03*
X83825000Y-27945000D03*
X81285000Y-30485000D03*
X81285000Y-27945000D03*
X78745000Y-30485000D03*
X78745000Y-27945000D03*
X76205000Y-30485000D03*
X76205000Y-27945000D03*
D10*
X100605000Y-130640000D03*
D11*
X76845000Y-144150000D03*
D12*
X140980000Y-59700000D03*
D13*
X140980000Y-62240000D03*
X138440000Y-59700000D03*
X138440000Y-62240000D03*
X135900000Y-59700000D03*
X135900000Y-62240000D03*
X133360000Y-59700000D03*
X133360000Y-62240000D03*
X130820000Y-59700000D03*
X130820000Y-62240000D03*
X128280000Y-59700000D03*
X128280000Y-62240000D03*
X125740000Y-59700000D03*
X125740000Y-62240000D03*
X123200000Y-59700000D03*
X123200000Y-62240000D03*
X120660000Y-59700000D03*
X120660000Y-62240000D03*
X118120000Y-59700000D03*
X118120000Y-62240000D03*
X115580000Y-59700000D03*
X115580000Y-62240000D03*
X113040000Y-59700000D03*
X113040000Y-62240000D03*
X110500000Y-59700000D03*
X110500000Y-62240000D03*
X107960000Y-59700000D03*
X107960000Y-62240000D03*
X105420000Y-59700000D03*
X105420000Y-62240000D03*
X102880000Y-59700000D03*
X102880000Y-62240000D03*
X100340000Y-59700000D03*
X100340000Y-62240000D03*
X97800000Y-59700000D03*
X97800000Y-62240000D03*
D10*
X94355000Y-121000000D03*
D12*
X140980000Y-44455000D03*
D13*
X140980000Y-46995000D03*
X138440000Y-44455000D03*
X138440000Y-46995000D03*
X135900000Y-44455000D03*
X135900000Y-46995000D03*
X133360000Y-44455000D03*
X133360000Y-46995000D03*
X130820000Y-44455000D03*
X130820000Y-46995000D03*
X128280000Y-44455000D03*
X128280000Y-46995000D03*
X125740000Y-44455000D03*
X125740000Y-46995000D03*
X123200000Y-44455000D03*
X123200000Y-46995000D03*
X120660000Y-44455000D03*
X120660000Y-46995000D03*
X118120000Y-44455000D03*
X118120000Y-46995000D03*
X115580000Y-44455000D03*
X115580000Y-46995000D03*
X113040000Y-44455000D03*
X113040000Y-46995000D03*
X110500000Y-44455000D03*
X110500000Y-46995000D03*
X107960000Y-44455000D03*
X107960000Y-46995000D03*
X105420000Y-44455000D03*
X105420000Y-46995000D03*
X102880000Y-44455000D03*
X102880000Y-46995000D03*
X100340000Y-44455000D03*
X100340000Y-46995000D03*
X97800000Y-44455000D03*
X97800000Y-46995000D03*
X95260000Y-44455000D03*
X95260000Y-46995000D03*
X92720000Y-44455000D03*
X92720000Y-46995000D03*
D11*
X116850000Y-29220000D03*
D10*
X98580000Y-101945000D03*
D12*
X157485000Y-30485000D03*
D13*
X157485000Y-27945000D03*
X154945000Y-30485000D03*
X154945000Y-27945000D03*
X152405000Y-30485000D03*
X152405000Y-27945000D03*
X149865000Y-30485000D03*
X149865000Y-27945000D03*
X147325000Y-30485000D03*
X147325000Y-27945000D03*
X144785000Y-30485000D03*
X144785000Y-27945000D03*
D12*
X153680000Y-49535000D03*
D13*
X153680000Y-46995000D03*
D10*
X97755000Y-144195000D03*
D12*
X134625000Y-30485000D03*
D13*
X134625000Y-27945000D03*
X132085000Y-30485000D03*
X132085000Y-27945000D03*
X129545000Y-30485000D03*
X129545000Y-27945000D03*
X127005000Y-30485000D03*
X127005000Y-27945000D03*
X124465000Y-30485000D03*
X124465000Y-27945000D03*
X121925000Y-30485000D03*
X121925000Y-27945000D03*
D12*
X140980000Y-67320000D03*
D13*
X140980000Y-69860000D03*
X138440000Y-67320000D03*
X138440000Y-69860000D03*
X135900000Y-67320000D03*
X135900000Y-69860000D03*
X133360000Y-67320000D03*
X133360000Y-69860000D03*
X130820000Y-67320000D03*
X130820000Y-69860000D03*
X128280000Y-67320000D03*
X128280000Y-69860000D03*
X125740000Y-67320000D03*
X125740000Y-69860000D03*
X123200000Y-67320000D03*
X123200000Y-69860000D03*
X120660000Y-67320000D03*
X120660000Y-69860000D03*
X118120000Y-67320000D03*
X118120000Y-69860000D03*
X115580000Y-67320000D03*
X115580000Y-69860000D03*
X113040000Y-67320000D03*
X113040000Y-69860000D03*
X110500000Y-67320000D03*
X110500000Y-69860000D03*
X107960000Y-67320000D03*
X107960000Y-69860000D03*
X105420000Y-67320000D03*
X105420000Y-69860000D03*
X102880000Y-67320000D03*
X102880000Y-69860000D03*
X100340000Y-67320000D03*
X100340000Y-69860000D03*
D12*
X133360000Y-52075000D03*
D13*
X133360000Y-54615000D03*
X130820000Y-52075000D03*
X130820000Y-54615000D03*
X128280000Y-52075000D03*
X128280000Y-54615000D03*
X125740000Y-52075000D03*
X125740000Y-54615000D03*
X123200000Y-52075000D03*
X123200000Y-54615000D03*
X120660000Y-52075000D03*
X120660000Y-54615000D03*
X118120000Y-52075000D03*
X118120000Y-54615000D03*
X115580000Y-52075000D03*
X115580000Y-54615000D03*
X113040000Y-52075000D03*
X113040000Y-54615000D03*
X110500000Y-52075000D03*
X110500000Y-54615000D03*
X107960000Y-52075000D03*
X107960000Y-54615000D03*
X105420000Y-52075000D03*
X105420000Y-54615000D03*
X102880000Y-52075000D03*
X102880000Y-54615000D03*
X100340000Y-52075000D03*
X100340000Y-54615000D03*
X97800000Y-52075000D03*
X97800000Y-54615000D03*
X95260000Y-52075000D03*
X95260000Y-54615000D03*
M02*
