%TF.GenerationSoftware,KiCad,Pcbnew,7.0.11-7.0.11~ubuntu20.04.1*%
%TF.CreationDate,2024-08-20T17:51:46+02:00*%
%TF.ProjectId,kicad-kria-pmod-alinx,6b696361-642d-46b7-9269-612d706d6f64,1.0*%
%TF.SameCoordinates,Original*%
%TF.FileFunction,Drillmap*%
%TF.FilePolarity,Positive*%
%FSLAX45Y45*%
G04 Gerber Fmt 4.5, Leading zero omitted, Abs format (unit mm)*
G04 Created by KiCad (PCBNEW 7.0.11-7.0.11~ubuntu20.04.1) date 2024-08-20 17:51:46*
%MOMM*%
%LPD*%
G01*
G04 APERTURE LIST*
%ADD10C,0.050000*%
%ADD11C,0.200000*%
%ADD12C,0.100000*%
G04 APERTURE END LIST*
D10*
X16193500Y-14986500D02*
G75*
G03*
X16257000Y-14923000I0J63500D01*
G01*
X7113000Y-14923000D02*
G75*
G03*
X7176500Y-14986500I63500J0D01*
G01*
X7176500Y-2413500D02*
G75*
G03*
X7113000Y-2477000I0J-63500D01*
G01*
X16257000Y-2477000D02*
G75*
G03*
X16193500Y-2413500I-63500J0D01*
G01*
X16193500Y-2413500D02*
X7176500Y-2413500D01*
X7176500Y-14986500D02*
X16193500Y-14986500D01*
X16257000Y-14923000D02*
X16257000Y-2477000D01*
X7113000Y-2477000D02*
X7113000Y-14923000D01*
D11*
D12*
X7570500Y-2744500D02*
X7670500Y-2844500D01*
X7670500Y-2744500D02*
X7570500Y-2844500D01*
X7570500Y-2998500D02*
X7670500Y-3098500D01*
X7670500Y-2998500D02*
X7570500Y-3098500D01*
X7824500Y-2744500D02*
X7924500Y-2844500D01*
X7924500Y-2744500D02*
X7824500Y-2844500D01*
X7824500Y-2998500D02*
X7924500Y-3098500D01*
X7924500Y-2998500D02*
X7824500Y-3098500D01*
X8078500Y-2744500D02*
X8178500Y-2844500D01*
X8178500Y-2744500D02*
X8078500Y-2844500D01*
X8078500Y-2998500D02*
X8178500Y-3098500D01*
X8178500Y-2998500D02*
X8078500Y-3098500D01*
X8332500Y-2744500D02*
X8432500Y-2844500D01*
X8432500Y-2744500D02*
X8332500Y-2844500D01*
X8332500Y-2998500D02*
X8432500Y-3098500D01*
X8432500Y-2998500D02*
X8332500Y-3098500D01*
X8586500Y-2744500D02*
X8686500Y-2844500D01*
X8686500Y-2744500D02*
X8586500Y-2844500D01*
X8586500Y-2998500D02*
X8686500Y-3098500D01*
X8686500Y-2998500D02*
X8586500Y-3098500D01*
X8840500Y-2744500D02*
X8940500Y-2844500D01*
X8940500Y-2744500D02*
X8840500Y-2844500D01*
X8840500Y-2998500D02*
X8940500Y-3098500D01*
X8940500Y-2998500D02*
X8840500Y-3098500D01*
X9222000Y-4395500D02*
X9322000Y-4495500D01*
X9322000Y-4395500D02*
X9222000Y-4495500D01*
X9222000Y-4649500D02*
X9322000Y-4749500D01*
X9322000Y-4649500D02*
X9222000Y-4749500D01*
X9476000Y-4395500D02*
X9576000Y-4495500D01*
X9576000Y-4395500D02*
X9476000Y-4495500D01*
X9476000Y-4649500D02*
X9576000Y-4749500D01*
X9576000Y-4649500D02*
X9476000Y-4749500D01*
X9476000Y-5157500D02*
X9576000Y-5257500D01*
X9576000Y-5157500D02*
X9476000Y-5257500D01*
X9476000Y-5411500D02*
X9576000Y-5511500D01*
X9576000Y-5411500D02*
X9476000Y-5511500D01*
X9730000Y-4395500D02*
X9830000Y-4495500D01*
X9830000Y-4395500D02*
X9730000Y-4495500D01*
X9730000Y-4649500D02*
X9830000Y-4749500D01*
X9830000Y-4649500D02*
X9730000Y-4749500D01*
X9730000Y-5157500D02*
X9830000Y-5257500D01*
X9830000Y-5157500D02*
X9730000Y-5257500D01*
X9730000Y-5411500D02*
X9830000Y-5511500D01*
X9830000Y-5411500D02*
X9730000Y-5511500D01*
X9730000Y-5920000D02*
X9830000Y-6020000D01*
X9830000Y-5920000D02*
X9730000Y-6020000D01*
X9730000Y-6174000D02*
X9830000Y-6274000D01*
X9830000Y-6174000D02*
X9730000Y-6274000D01*
X9856500Y-2744500D02*
X9956500Y-2844500D01*
X9956500Y-2744500D02*
X9856500Y-2844500D01*
X9856500Y-2998500D02*
X9956500Y-3098500D01*
X9956500Y-2998500D02*
X9856500Y-3098500D01*
X9984000Y-4395500D02*
X10084000Y-4495500D01*
X10084000Y-4395500D02*
X9984000Y-4495500D01*
X9984000Y-4649500D02*
X10084000Y-4749500D01*
X10084000Y-4649500D02*
X9984000Y-4749500D01*
X9984000Y-5157500D02*
X10084000Y-5257500D01*
X10084000Y-5157500D02*
X9984000Y-5257500D01*
X9984000Y-5411500D02*
X10084000Y-5511500D01*
X10084000Y-5411500D02*
X9984000Y-5511500D01*
X9984000Y-5920000D02*
X10084000Y-6020000D01*
X10084000Y-5920000D02*
X9984000Y-6020000D01*
X9984000Y-6174000D02*
X10084000Y-6274000D01*
X10084000Y-6174000D02*
X9984000Y-6274000D01*
X9984000Y-6682000D02*
X10084000Y-6782000D01*
X10084000Y-6682000D02*
X9984000Y-6782000D01*
X9984000Y-6936000D02*
X10084000Y-7036000D01*
X10084000Y-6936000D02*
X9984000Y-7036000D01*
X10110500Y-2744500D02*
X10210500Y-2844500D01*
X10210500Y-2744500D02*
X10110500Y-2844500D01*
X10110500Y-2998500D02*
X10210500Y-3098500D01*
X10210500Y-2998500D02*
X10110500Y-3098500D01*
X10238000Y-4395500D02*
X10338000Y-4495500D01*
X10338000Y-4395500D02*
X10238000Y-4495500D01*
X10238000Y-4649500D02*
X10338000Y-4749500D01*
X10338000Y-4649500D02*
X10238000Y-4749500D01*
X10238000Y-5157500D02*
X10338000Y-5257500D01*
X10338000Y-5157500D02*
X10238000Y-5257500D01*
X10238000Y-5411500D02*
X10338000Y-5511500D01*
X10338000Y-5411500D02*
X10238000Y-5511500D01*
X10238000Y-5920000D02*
X10338000Y-6020000D01*
X10338000Y-5920000D02*
X10238000Y-6020000D01*
X10238000Y-6174000D02*
X10338000Y-6274000D01*
X10338000Y-6174000D02*
X10238000Y-6274000D01*
X10238000Y-6682000D02*
X10338000Y-6782000D01*
X10338000Y-6682000D02*
X10238000Y-6782000D01*
X10238000Y-6936000D02*
X10338000Y-7036000D01*
X10338000Y-6936000D02*
X10238000Y-7036000D01*
X10364500Y-2744500D02*
X10464500Y-2844500D01*
X10464500Y-2744500D02*
X10364500Y-2844500D01*
X10364500Y-2998500D02*
X10464500Y-3098500D01*
X10464500Y-2998500D02*
X10364500Y-3098500D01*
X10492000Y-4395500D02*
X10592000Y-4495500D01*
X10592000Y-4395500D02*
X10492000Y-4495500D01*
X10492000Y-4649500D02*
X10592000Y-4749500D01*
X10592000Y-4649500D02*
X10492000Y-4749500D01*
X10492000Y-5157500D02*
X10592000Y-5257500D01*
X10592000Y-5157500D02*
X10492000Y-5257500D01*
X10492000Y-5411500D02*
X10592000Y-5511500D01*
X10592000Y-5411500D02*
X10492000Y-5511500D01*
X10492000Y-5920000D02*
X10592000Y-6020000D01*
X10592000Y-5920000D02*
X10492000Y-6020000D01*
X10492000Y-6174000D02*
X10592000Y-6274000D01*
X10592000Y-6174000D02*
X10492000Y-6274000D01*
X10492000Y-6682000D02*
X10592000Y-6782000D01*
X10592000Y-6682000D02*
X10492000Y-6782000D01*
X10492000Y-6936000D02*
X10592000Y-7036000D01*
X10592000Y-6936000D02*
X10492000Y-7036000D01*
X10618500Y-2744500D02*
X10718500Y-2844500D01*
X10718500Y-2744500D02*
X10618500Y-2844500D01*
X10618500Y-2998500D02*
X10718500Y-3098500D01*
X10718500Y-2998500D02*
X10618500Y-3098500D01*
X10746000Y-4395500D02*
X10846000Y-4495500D01*
X10846000Y-4395500D02*
X10746000Y-4495500D01*
X10746000Y-4649500D02*
X10846000Y-4749500D01*
X10846000Y-4649500D02*
X10746000Y-4749500D01*
X10746000Y-5157500D02*
X10846000Y-5257500D01*
X10846000Y-5157500D02*
X10746000Y-5257500D01*
X10746000Y-5411500D02*
X10846000Y-5511500D01*
X10846000Y-5411500D02*
X10746000Y-5511500D01*
X10746000Y-5920000D02*
X10846000Y-6020000D01*
X10846000Y-5920000D02*
X10746000Y-6020000D01*
X10746000Y-6174000D02*
X10846000Y-6274000D01*
X10846000Y-6174000D02*
X10746000Y-6274000D01*
X10746000Y-6682000D02*
X10846000Y-6782000D01*
X10846000Y-6682000D02*
X10746000Y-6782000D01*
X10746000Y-6936000D02*
X10846000Y-7036000D01*
X10846000Y-6936000D02*
X10746000Y-7036000D01*
X10872500Y-2744500D02*
X10972500Y-2844500D01*
X10972500Y-2744500D02*
X10872500Y-2844500D01*
X10872500Y-2998500D02*
X10972500Y-3098500D01*
X10972500Y-2998500D02*
X10872500Y-3098500D01*
X11000000Y-4395500D02*
X11100000Y-4495500D01*
X11100000Y-4395500D02*
X11000000Y-4495500D01*
X11000000Y-4649500D02*
X11100000Y-4749500D01*
X11100000Y-4649500D02*
X11000000Y-4749500D01*
X11000000Y-5157500D02*
X11100000Y-5257500D01*
X11100000Y-5157500D02*
X11000000Y-5257500D01*
X11000000Y-5411500D02*
X11100000Y-5511500D01*
X11100000Y-5411500D02*
X11000000Y-5511500D01*
X11000000Y-5920000D02*
X11100000Y-6020000D01*
X11100000Y-5920000D02*
X11000000Y-6020000D01*
X11000000Y-6174000D02*
X11100000Y-6274000D01*
X11100000Y-6174000D02*
X11000000Y-6274000D01*
X11000000Y-6682000D02*
X11100000Y-6782000D01*
X11100000Y-6682000D02*
X11000000Y-6782000D01*
X11000000Y-6936000D02*
X11100000Y-7036000D01*
X11100000Y-6936000D02*
X11000000Y-7036000D01*
X11126500Y-2744500D02*
X11226500Y-2844500D01*
X11226500Y-2744500D02*
X11126500Y-2844500D01*
X11126500Y-2998500D02*
X11226500Y-3098500D01*
X11226500Y-2998500D02*
X11126500Y-3098500D01*
X11254000Y-4395500D02*
X11354000Y-4495500D01*
X11354000Y-4395500D02*
X11254000Y-4495500D01*
X11254000Y-4649500D02*
X11354000Y-4749500D01*
X11354000Y-4649500D02*
X11254000Y-4749500D01*
X11254000Y-5157500D02*
X11354000Y-5257500D01*
X11354000Y-5157500D02*
X11254000Y-5257500D01*
X11254000Y-5411500D02*
X11354000Y-5511500D01*
X11354000Y-5411500D02*
X11254000Y-5511500D01*
X11254000Y-5920000D02*
X11354000Y-6020000D01*
X11354000Y-5920000D02*
X11254000Y-6020000D01*
X11254000Y-6174000D02*
X11354000Y-6274000D01*
X11354000Y-6174000D02*
X11254000Y-6274000D01*
X11254000Y-6682000D02*
X11354000Y-6782000D01*
X11354000Y-6682000D02*
X11254000Y-6782000D01*
X11254000Y-6936000D02*
X11354000Y-7036000D01*
X11354000Y-6936000D02*
X11254000Y-7036000D01*
X11508000Y-4395500D02*
X11608000Y-4495500D01*
X11608000Y-4395500D02*
X11508000Y-4495500D01*
X11508000Y-4649500D02*
X11608000Y-4749500D01*
X11608000Y-4649500D02*
X11508000Y-4749500D01*
X11508000Y-5157500D02*
X11608000Y-5257500D01*
X11608000Y-5157500D02*
X11508000Y-5257500D01*
X11508000Y-5411500D02*
X11608000Y-5511500D01*
X11608000Y-5411500D02*
X11508000Y-5511500D01*
X11508000Y-5920000D02*
X11608000Y-6020000D01*
X11608000Y-5920000D02*
X11508000Y-6020000D01*
X11508000Y-6174000D02*
X11608000Y-6274000D01*
X11608000Y-6174000D02*
X11508000Y-6274000D01*
X11508000Y-6682000D02*
X11608000Y-6782000D01*
X11608000Y-6682000D02*
X11508000Y-6782000D01*
X11508000Y-6936000D02*
X11608000Y-7036000D01*
X11608000Y-6936000D02*
X11508000Y-7036000D01*
X11762000Y-4395500D02*
X11862000Y-4495500D01*
X11862000Y-4395500D02*
X11762000Y-4495500D01*
X11762000Y-4649500D02*
X11862000Y-4749500D01*
X11862000Y-4649500D02*
X11762000Y-4749500D01*
X11762000Y-5157500D02*
X11862000Y-5257500D01*
X11862000Y-5157500D02*
X11762000Y-5257500D01*
X11762000Y-5411500D02*
X11862000Y-5511500D01*
X11862000Y-5411500D02*
X11762000Y-5511500D01*
X11762000Y-5920000D02*
X11862000Y-6020000D01*
X11862000Y-5920000D02*
X11762000Y-6020000D01*
X11762000Y-6174000D02*
X11862000Y-6274000D01*
X11862000Y-6174000D02*
X11762000Y-6274000D01*
X11762000Y-6682000D02*
X11862000Y-6782000D01*
X11862000Y-6682000D02*
X11762000Y-6782000D01*
X11762000Y-6936000D02*
X11862000Y-7036000D01*
X11862000Y-6936000D02*
X11762000Y-7036000D01*
X12016000Y-4395500D02*
X12116000Y-4495500D01*
X12116000Y-4395500D02*
X12016000Y-4495500D01*
X12016000Y-4649500D02*
X12116000Y-4749500D01*
X12116000Y-4649500D02*
X12016000Y-4749500D01*
X12016000Y-5157500D02*
X12116000Y-5257500D01*
X12116000Y-5157500D02*
X12016000Y-5257500D01*
X12016000Y-5411500D02*
X12116000Y-5511500D01*
X12116000Y-5411500D02*
X12016000Y-5511500D01*
X12016000Y-5920000D02*
X12116000Y-6020000D01*
X12116000Y-5920000D02*
X12016000Y-6020000D01*
X12016000Y-6174000D02*
X12116000Y-6274000D01*
X12116000Y-6174000D02*
X12016000Y-6274000D01*
X12016000Y-6682000D02*
X12116000Y-6782000D01*
X12116000Y-6682000D02*
X12016000Y-6782000D01*
X12016000Y-6936000D02*
X12116000Y-7036000D01*
X12116000Y-6936000D02*
X12016000Y-7036000D01*
X12142500Y-2744500D02*
X12242500Y-2844500D01*
X12242500Y-2744500D02*
X12142500Y-2844500D01*
X12142500Y-2998500D02*
X12242500Y-3098500D01*
X12242500Y-2998500D02*
X12142500Y-3098500D01*
X12270000Y-4395500D02*
X12370000Y-4495500D01*
X12370000Y-4395500D02*
X12270000Y-4495500D01*
X12270000Y-4649500D02*
X12370000Y-4749500D01*
X12370000Y-4649500D02*
X12270000Y-4749500D01*
X12270000Y-5157500D02*
X12370000Y-5257500D01*
X12370000Y-5157500D02*
X12270000Y-5257500D01*
X12270000Y-5411500D02*
X12370000Y-5511500D01*
X12370000Y-5411500D02*
X12270000Y-5511500D01*
X12270000Y-5920000D02*
X12370000Y-6020000D01*
X12370000Y-5920000D02*
X12270000Y-6020000D01*
X12270000Y-6174000D02*
X12370000Y-6274000D01*
X12370000Y-6174000D02*
X12270000Y-6274000D01*
X12270000Y-6682000D02*
X12370000Y-6782000D01*
X12370000Y-6682000D02*
X12270000Y-6782000D01*
X12270000Y-6936000D02*
X12370000Y-7036000D01*
X12370000Y-6936000D02*
X12270000Y-7036000D01*
X12396500Y-2744500D02*
X12496500Y-2844500D01*
X12496500Y-2744500D02*
X12396500Y-2844500D01*
X12396500Y-2998500D02*
X12496500Y-3098500D01*
X12496500Y-2998500D02*
X12396500Y-3098500D01*
X12524000Y-4395500D02*
X12624000Y-4495500D01*
X12624000Y-4395500D02*
X12524000Y-4495500D01*
X12524000Y-4649500D02*
X12624000Y-4749500D01*
X12624000Y-4649500D02*
X12524000Y-4749500D01*
X12524000Y-5157500D02*
X12624000Y-5257500D01*
X12624000Y-5157500D02*
X12524000Y-5257500D01*
X12524000Y-5411500D02*
X12624000Y-5511500D01*
X12624000Y-5411500D02*
X12524000Y-5511500D01*
X12524000Y-5920000D02*
X12624000Y-6020000D01*
X12624000Y-5920000D02*
X12524000Y-6020000D01*
X12524000Y-6174000D02*
X12624000Y-6274000D01*
X12624000Y-6174000D02*
X12524000Y-6274000D01*
X12524000Y-6682000D02*
X12624000Y-6782000D01*
X12624000Y-6682000D02*
X12524000Y-6782000D01*
X12524000Y-6936000D02*
X12624000Y-7036000D01*
X12624000Y-6936000D02*
X12524000Y-7036000D01*
X12650500Y-2744500D02*
X12750500Y-2844500D01*
X12750500Y-2744500D02*
X12650500Y-2844500D01*
X12650500Y-2998500D02*
X12750500Y-3098500D01*
X12750500Y-2998500D02*
X12650500Y-3098500D01*
X12778000Y-4395500D02*
X12878000Y-4495500D01*
X12878000Y-4395500D02*
X12778000Y-4495500D01*
X12778000Y-4649500D02*
X12878000Y-4749500D01*
X12878000Y-4649500D02*
X12778000Y-4749500D01*
X12778000Y-5157500D02*
X12878000Y-5257500D01*
X12878000Y-5157500D02*
X12778000Y-5257500D01*
X12778000Y-5411500D02*
X12878000Y-5511500D01*
X12878000Y-5411500D02*
X12778000Y-5511500D01*
X12778000Y-5920000D02*
X12878000Y-6020000D01*
X12878000Y-5920000D02*
X12778000Y-6020000D01*
X12778000Y-6174000D02*
X12878000Y-6274000D01*
X12878000Y-6174000D02*
X12778000Y-6274000D01*
X12778000Y-6682000D02*
X12878000Y-6782000D01*
X12878000Y-6682000D02*
X12778000Y-6782000D01*
X12778000Y-6936000D02*
X12878000Y-7036000D01*
X12878000Y-6936000D02*
X12778000Y-7036000D01*
X12904500Y-2744500D02*
X13004500Y-2844500D01*
X13004500Y-2744500D02*
X12904500Y-2844500D01*
X12904500Y-2998500D02*
X13004500Y-3098500D01*
X13004500Y-2998500D02*
X12904500Y-3098500D01*
X13032000Y-4395500D02*
X13132000Y-4495500D01*
X13132000Y-4395500D02*
X13032000Y-4495500D01*
X13032000Y-4649500D02*
X13132000Y-4749500D01*
X13132000Y-4649500D02*
X13032000Y-4749500D01*
X13032000Y-5157500D02*
X13132000Y-5257500D01*
X13132000Y-5157500D02*
X13032000Y-5257500D01*
X13032000Y-5411500D02*
X13132000Y-5511500D01*
X13132000Y-5411500D02*
X13032000Y-5511500D01*
X13032000Y-5920000D02*
X13132000Y-6020000D01*
X13132000Y-5920000D02*
X13032000Y-6020000D01*
X13032000Y-6174000D02*
X13132000Y-6274000D01*
X13132000Y-6174000D02*
X13032000Y-6274000D01*
X13032000Y-6682000D02*
X13132000Y-6782000D01*
X13132000Y-6682000D02*
X13032000Y-6782000D01*
X13032000Y-6936000D02*
X13132000Y-7036000D01*
X13132000Y-6936000D02*
X13032000Y-7036000D01*
X13158500Y-2744500D02*
X13258500Y-2844500D01*
X13258500Y-2744500D02*
X13158500Y-2844500D01*
X13158500Y-2998500D02*
X13258500Y-3098500D01*
X13258500Y-2998500D02*
X13158500Y-3098500D01*
X13286000Y-4395500D02*
X13386000Y-4495500D01*
X13386000Y-4395500D02*
X13286000Y-4495500D01*
X13286000Y-4649500D02*
X13386000Y-4749500D01*
X13386000Y-4649500D02*
X13286000Y-4749500D01*
X13286000Y-5157500D02*
X13386000Y-5257500D01*
X13386000Y-5157500D02*
X13286000Y-5257500D01*
X13286000Y-5411500D02*
X13386000Y-5511500D01*
X13386000Y-5411500D02*
X13286000Y-5511500D01*
X13286000Y-5920000D02*
X13386000Y-6020000D01*
X13386000Y-5920000D02*
X13286000Y-6020000D01*
X13286000Y-6174000D02*
X13386000Y-6274000D01*
X13386000Y-6174000D02*
X13286000Y-6274000D01*
X13286000Y-6682000D02*
X13386000Y-6782000D01*
X13386000Y-6682000D02*
X13286000Y-6782000D01*
X13286000Y-6936000D02*
X13386000Y-7036000D01*
X13386000Y-6936000D02*
X13286000Y-7036000D01*
X13412500Y-2744500D02*
X13512500Y-2844500D01*
X13512500Y-2744500D02*
X13412500Y-2844500D01*
X13412500Y-2998500D02*
X13512500Y-3098500D01*
X13512500Y-2998500D02*
X13412500Y-3098500D01*
X13540000Y-4395500D02*
X13640000Y-4495500D01*
X13640000Y-4395500D02*
X13540000Y-4495500D01*
X13540000Y-4649500D02*
X13640000Y-4749500D01*
X13640000Y-4649500D02*
X13540000Y-4749500D01*
X13540000Y-5920000D02*
X13640000Y-6020000D01*
X13640000Y-5920000D02*
X13540000Y-6020000D01*
X13540000Y-6174000D02*
X13640000Y-6274000D01*
X13640000Y-6174000D02*
X13540000Y-6274000D01*
X13540000Y-6682000D02*
X13640000Y-6782000D01*
X13640000Y-6682000D02*
X13540000Y-6782000D01*
X13540000Y-6936000D02*
X13640000Y-7036000D01*
X13640000Y-6936000D02*
X13540000Y-7036000D01*
X13794000Y-4395500D02*
X13894000Y-4495500D01*
X13894000Y-4395500D02*
X13794000Y-4495500D01*
X13794000Y-4649500D02*
X13894000Y-4749500D01*
X13894000Y-4649500D02*
X13794000Y-4749500D01*
X13794000Y-5920000D02*
X13894000Y-6020000D01*
X13894000Y-5920000D02*
X13794000Y-6020000D01*
X13794000Y-6174000D02*
X13894000Y-6274000D01*
X13894000Y-6174000D02*
X13794000Y-6274000D01*
X13794000Y-6682000D02*
X13894000Y-6782000D01*
X13894000Y-6682000D02*
X13794000Y-6782000D01*
X13794000Y-6936000D02*
X13894000Y-7036000D01*
X13894000Y-6936000D02*
X13794000Y-7036000D01*
X14048000Y-4395500D02*
X14148000Y-4495500D01*
X14148000Y-4395500D02*
X14048000Y-4495500D01*
X14048000Y-4649500D02*
X14148000Y-4749500D01*
X14148000Y-4649500D02*
X14048000Y-4749500D01*
X14048000Y-5920000D02*
X14148000Y-6020000D01*
X14148000Y-5920000D02*
X14048000Y-6020000D01*
X14048000Y-6174000D02*
X14148000Y-6274000D01*
X14148000Y-6174000D02*
X14048000Y-6274000D01*
X14048000Y-6682000D02*
X14148000Y-6782000D01*
X14148000Y-6682000D02*
X14048000Y-6782000D01*
X14048000Y-6936000D02*
X14148000Y-7036000D01*
X14148000Y-6936000D02*
X14048000Y-7036000D01*
X14428500Y-2744500D02*
X14528500Y-2844500D01*
X14528500Y-2744500D02*
X14428500Y-2844500D01*
X14428500Y-2998500D02*
X14528500Y-3098500D01*
X14528500Y-2998500D02*
X14428500Y-3098500D01*
X14682500Y-2744500D02*
X14782500Y-2844500D01*
X14782500Y-2744500D02*
X14682500Y-2844500D01*
X14682500Y-2998500D02*
X14782500Y-3098500D01*
X14782500Y-2998500D02*
X14682500Y-3098500D01*
X14936500Y-2744500D02*
X15036500Y-2844500D01*
X15036500Y-2744500D02*
X14936500Y-2844500D01*
X14936500Y-2998500D02*
X15036500Y-3098500D01*
X15036500Y-2998500D02*
X14936500Y-3098500D01*
X15190500Y-2744500D02*
X15290500Y-2844500D01*
X15290500Y-2744500D02*
X15190500Y-2844500D01*
X15190500Y-2998500D02*
X15290500Y-3098500D01*
X15290500Y-2998500D02*
X15190500Y-3098500D01*
X15318000Y-4649500D02*
X15418000Y-4749500D01*
X15418000Y-4649500D02*
X15318000Y-4749500D01*
X15318000Y-4903500D02*
X15418000Y-5003500D01*
X15418000Y-4903500D02*
X15318000Y-5003500D01*
X15444500Y-2744500D02*
X15544500Y-2844500D01*
X15544500Y-2744500D02*
X15444500Y-2844500D01*
X15444500Y-2998500D02*
X15544500Y-3098500D01*
X15544500Y-2998500D02*
X15444500Y-3098500D01*
X15698500Y-2744500D02*
X15798500Y-2844500D01*
X15798500Y-2744500D02*
X15698500Y-2844500D01*
X15698500Y-2998500D02*
X15798500Y-3098500D01*
X15798500Y-2998500D02*
X15698500Y-3098500D01*
D11*
X7371277Y-15300484D02*
X7371277Y-15100484D01*
X7371277Y-15100484D02*
X7418896Y-15100484D01*
X7418896Y-15100484D02*
X7447467Y-15110008D01*
X7447467Y-15110008D02*
X7466515Y-15129055D01*
X7466515Y-15129055D02*
X7476039Y-15148103D01*
X7476039Y-15148103D02*
X7485562Y-15186198D01*
X7485562Y-15186198D02*
X7485562Y-15214769D01*
X7485562Y-15214769D02*
X7476039Y-15252865D01*
X7476039Y-15252865D02*
X7466515Y-15271912D01*
X7466515Y-15271912D02*
X7447467Y-15290960D01*
X7447467Y-15290960D02*
X7418896Y-15300484D01*
X7418896Y-15300484D02*
X7371277Y-15300484D01*
X7571277Y-15300484D02*
X7571277Y-15167150D01*
X7571277Y-15205246D02*
X7580801Y-15186198D01*
X7580801Y-15186198D02*
X7590324Y-15176674D01*
X7590324Y-15176674D02*
X7609372Y-15167150D01*
X7609372Y-15167150D02*
X7628420Y-15167150D01*
X7695086Y-15300484D02*
X7695086Y-15167150D01*
X7695086Y-15100484D02*
X7685562Y-15110008D01*
X7685562Y-15110008D02*
X7695086Y-15119531D01*
X7695086Y-15119531D02*
X7704610Y-15110008D01*
X7704610Y-15110008D02*
X7695086Y-15100484D01*
X7695086Y-15100484D02*
X7695086Y-15119531D01*
X7818896Y-15300484D02*
X7799848Y-15290960D01*
X7799848Y-15290960D02*
X7790324Y-15271912D01*
X7790324Y-15271912D02*
X7790324Y-15100484D01*
X7923658Y-15300484D02*
X7904610Y-15290960D01*
X7904610Y-15290960D02*
X7895086Y-15271912D01*
X7895086Y-15271912D02*
X7895086Y-15100484D01*
X8152229Y-15300484D02*
X8152229Y-15100484D01*
X8152229Y-15100484D02*
X8218896Y-15243341D01*
X8218896Y-15243341D02*
X8285562Y-15100484D01*
X8285562Y-15100484D02*
X8285562Y-15300484D01*
X8466515Y-15300484D02*
X8466515Y-15195722D01*
X8466515Y-15195722D02*
X8456991Y-15176674D01*
X8456991Y-15176674D02*
X8437944Y-15167150D01*
X8437944Y-15167150D02*
X8399848Y-15167150D01*
X8399848Y-15167150D02*
X8380801Y-15176674D01*
X8466515Y-15290960D02*
X8447467Y-15300484D01*
X8447467Y-15300484D02*
X8399848Y-15300484D01*
X8399848Y-15300484D02*
X8380801Y-15290960D01*
X8380801Y-15290960D02*
X8371277Y-15271912D01*
X8371277Y-15271912D02*
X8371277Y-15252865D01*
X8371277Y-15252865D02*
X8380801Y-15233817D01*
X8380801Y-15233817D02*
X8399848Y-15224293D01*
X8399848Y-15224293D02*
X8447467Y-15224293D01*
X8447467Y-15224293D02*
X8466515Y-15214769D01*
X8561753Y-15167150D02*
X8561753Y-15367150D01*
X8561753Y-15176674D02*
X8580801Y-15167150D01*
X8580801Y-15167150D02*
X8618896Y-15167150D01*
X8618896Y-15167150D02*
X8637944Y-15176674D01*
X8637944Y-15176674D02*
X8647467Y-15186198D01*
X8647467Y-15186198D02*
X8656991Y-15205246D01*
X8656991Y-15205246D02*
X8656991Y-15262388D01*
X8656991Y-15262388D02*
X8647467Y-15281436D01*
X8647467Y-15281436D02*
X8637944Y-15290960D01*
X8637944Y-15290960D02*
X8618896Y-15300484D01*
X8618896Y-15300484D02*
X8580801Y-15300484D01*
X8580801Y-15300484D02*
X8561753Y-15290960D01*
X8742705Y-15281436D02*
X8752229Y-15290960D01*
X8752229Y-15290960D02*
X8742705Y-15300484D01*
X8742705Y-15300484D02*
X8733182Y-15290960D01*
X8733182Y-15290960D02*
X8742705Y-15281436D01*
X8742705Y-15281436D02*
X8742705Y-15300484D01*
X8742705Y-15176674D02*
X8752229Y-15186198D01*
X8752229Y-15186198D02*
X8742705Y-15195722D01*
X8742705Y-15195722D02*
X8733182Y-15186198D01*
X8733182Y-15186198D02*
X8742705Y-15176674D01*
X8742705Y-15176674D02*
X8742705Y-15195722D01*
D12*
X7010500Y-15579000D02*
X7110500Y-15679000D01*
X7110500Y-15579000D02*
X7010500Y-15679000D01*
D11*
X7476039Y-15720484D02*
X7361753Y-15720484D01*
X7418896Y-15720484D02*
X7418896Y-15520484D01*
X7418896Y-15520484D02*
X7399848Y-15549055D01*
X7399848Y-15549055D02*
X7380801Y-15568103D01*
X7380801Y-15568103D02*
X7361753Y-15577627D01*
X7561753Y-15701436D02*
X7571277Y-15710960D01*
X7571277Y-15710960D02*
X7561753Y-15720484D01*
X7561753Y-15720484D02*
X7552229Y-15710960D01*
X7552229Y-15710960D02*
X7561753Y-15701436D01*
X7561753Y-15701436D02*
X7561753Y-15720484D01*
X7695086Y-15520484D02*
X7714134Y-15520484D01*
X7714134Y-15520484D02*
X7733182Y-15530008D01*
X7733182Y-15530008D02*
X7742705Y-15539531D01*
X7742705Y-15539531D02*
X7752229Y-15558579D01*
X7752229Y-15558579D02*
X7761753Y-15596674D01*
X7761753Y-15596674D02*
X7761753Y-15644293D01*
X7761753Y-15644293D02*
X7752229Y-15682388D01*
X7752229Y-15682388D02*
X7742705Y-15701436D01*
X7742705Y-15701436D02*
X7733182Y-15710960D01*
X7733182Y-15710960D02*
X7714134Y-15720484D01*
X7714134Y-15720484D02*
X7695086Y-15720484D01*
X7695086Y-15720484D02*
X7676039Y-15710960D01*
X7676039Y-15710960D02*
X7666515Y-15701436D01*
X7666515Y-15701436D02*
X7656991Y-15682388D01*
X7656991Y-15682388D02*
X7647467Y-15644293D01*
X7647467Y-15644293D02*
X7647467Y-15596674D01*
X7647467Y-15596674D02*
X7656991Y-15558579D01*
X7656991Y-15558579D02*
X7666515Y-15539531D01*
X7666515Y-15539531D02*
X7676039Y-15530008D01*
X7676039Y-15530008D02*
X7695086Y-15520484D01*
X7885562Y-15520484D02*
X7904610Y-15520484D01*
X7904610Y-15520484D02*
X7923658Y-15530008D01*
X7923658Y-15530008D02*
X7933182Y-15539531D01*
X7933182Y-15539531D02*
X7942705Y-15558579D01*
X7942705Y-15558579D02*
X7952229Y-15596674D01*
X7952229Y-15596674D02*
X7952229Y-15644293D01*
X7952229Y-15644293D02*
X7942705Y-15682388D01*
X7942705Y-15682388D02*
X7933182Y-15701436D01*
X7933182Y-15701436D02*
X7923658Y-15710960D01*
X7923658Y-15710960D02*
X7904610Y-15720484D01*
X7904610Y-15720484D02*
X7885562Y-15720484D01*
X7885562Y-15720484D02*
X7866515Y-15710960D01*
X7866515Y-15710960D02*
X7856991Y-15701436D01*
X7856991Y-15701436D02*
X7847467Y-15682388D01*
X7847467Y-15682388D02*
X7837943Y-15644293D01*
X7837943Y-15644293D02*
X7837943Y-15596674D01*
X7837943Y-15596674D02*
X7847467Y-15558579D01*
X7847467Y-15558579D02*
X7856991Y-15539531D01*
X7856991Y-15539531D02*
X7866515Y-15530008D01*
X7866515Y-15530008D02*
X7885562Y-15520484D01*
X8076039Y-15520484D02*
X8095086Y-15520484D01*
X8095086Y-15520484D02*
X8114134Y-15530008D01*
X8114134Y-15530008D02*
X8123658Y-15539531D01*
X8123658Y-15539531D02*
X8133182Y-15558579D01*
X8133182Y-15558579D02*
X8142705Y-15596674D01*
X8142705Y-15596674D02*
X8142705Y-15644293D01*
X8142705Y-15644293D02*
X8133182Y-15682388D01*
X8133182Y-15682388D02*
X8123658Y-15701436D01*
X8123658Y-15701436D02*
X8114134Y-15710960D01*
X8114134Y-15710960D02*
X8095086Y-15720484D01*
X8095086Y-15720484D02*
X8076039Y-15720484D01*
X8076039Y-15720484D02*
X8056991Y-15710960D01*
X8056991Y-15710960D02*
X8047467Y-15701436D01*
X8047467Y-15701436D02*
X8037943Y-15682388D01*
X8037943Y-15682388D02*
X8028420Y-15644293D01*
X8028420Y-15644293D02*
X8028420Y-15596674D01*
X8028420Y-15596674D02*
X8037943Y-15558579D01*
X8037943Y-15558579D02*
X8047467Y-15539531D01*
X8047467Y-15539531D02*
X8056991Y-15530008D01*
X8056991Y-15530008D02*
X8076039Y-15520484D01*
X8228420Y-15720484D02*
X8228420Y-15587150D01*
X8228420Y-15606198D02*
X8237943Y-15596674D01*
X8237943Y-15596674D02*
X8256991Y-15587150D01*
X8256991Y-15587150D02*
X8285563Y-15587150D01*
X8285563Y-15587150D02*
X8304610Y-15596674D01*
X8304610Y-15596674D02*
X8314134Y-15615722D01*
X8314134Y-15615722D02*
X8314134Y-15720484D01*
X8314134Y-15615722D02*
X8323658Y-15596674D01*
X8323658Y-15596674D02*
X8342705Y-15587150D01*
X8342705Y-15587150D02*
X8371277Y-15587150D01*
X8371277Y-15587150D02*
X8390325Y-15596674D01*
X8390325Y-15596674D02*
X8399848Y-15615722D01*
X8399848Y-15615722D02*
X8399848Y-15720484D01*
X8495086Y-15720484D02*
X8495086Y-15587150D01*
X8495086Y-15606198D02*
X8504610Y-15596674D01*
X8504610Y-15596674D02*
X8523658Y-15587150D01*
X8523658Y-15587150D02*
X8552229Y-15587150D01*
X8552229Y-15587150D02*
X8571277Y-15596674D01*
X8571277Y-15596674D02*
X8580801Y-15615722D01*
X8580801Y-15615722D02*
X8580801Y-15720484D01*
X8580801Y-15615722D02*
X8590325Y-15596674D01*
X8590325Y-15596674D02*
X8609372Y-15587150D01*
X8609372Y-15587150D02*
X8637944Y-15587150D01*
X8637944Y-15587150D02*
X8656991Y-15596674D01*
X8656991Y-15596674D02*
X8666515Y-15615722D01*
X8666515Y-15615722D02*
X8666515Y-15720484D01*
X9056991Y-15510960D02*
X8885563Y-15768103D01*
X9314134Y-15520484D02*
X9333182Y-15520484D01*
X9333182Y-15520484D02*
X9352229Y-15530008D01*
X9352229Y-15530008D02*
X9361753Y-15539531D01*
X9361753Y-15539531D02*
X9371277Y-15558579D01*
X9371277Y-15558579D02*
X9380801Y-15596674D01*
X9380801Y-15596674D02*
X9380801Y-15644293D01*
X9380801Y-15644293D02*
X9371277Y-15682388D01*
X9371277Y-15682388D02*
X9361753Y-15701436D01*
X9361753Y-15701436D02*
X9352229Y-15710960D01*
X9352229Y-15710960D02*
X9333182Y-15720484D01*
X9333182Y-15720484D02*
X9314134Y-15720484D01*
X9314134Y-15720484D02*
X9295087Y-15710960D01*
X9295087Y-15710960D02*
X9285563Y-15701436D01*
X9285563Y-15701436D02*
X9276039Y-15682388D01*
X9276039Y-15682388D02*
X9266515Y-15644293D01*
X9266515Y-15644293D02*
X9266515Y-15596674D01*
X9266515Y-15596674D02*
X9276039Y-15558579D01*
X9276039Y-15558579D02*
X9285563Y-15539531D01*
X9285563Y-15539531D02*
X9295087Y-15530008D01*
X9295087Y-15530008D02*
X9314134Y-15520484D01*
X9466515Y-15701436D02*
X9476039Y-15710960D01*
X9476039Y-15710960D02*
X9466515Y-15720484D01*
X9466515Y-15720484D02*
X9456991Y-15710960D01*
X9456991Y-15710960D02*
X9466515Y-15701436D01*
X9466515Y-15701436D02*
X9466515Y-15720484D01*
X9599848Y-15520484D02*
X9618896Y-15520484D01*
X9618896Y-15520484D02*
X9637944Y-15530008D01*
X9637944Y-15530008D02*
X9647468Y-15539531D01*
X9647468Y-15539531D02*
X9656991Y-15558579D01*
X9656991Y-15558579D02*
X9666515Y-15596674D01*
X9666515Y-15596674D02*
X9666515Y-15644293D01*
X9666515Y-15644293D02*
X9656991Y-15682388D01*
X9656991Y-15682388D02*
X9647468Y-15701436D01*
X9647468Y-15701436D02*
X9637944Y-15710960D01*
X9637944Y-15710960D02*
X9618896Y-15720484D01*
X9618896Y-15720484D02*
X9599848Y-15720484D01*
X9599848Y-15720484D02*
X9580801Y-15710960D01*
X9580801Y-15710960D02*
X9571277Y-15701436D01*
X9571277Y-15701436D02*
X9561753Y-15682388D01*
X9561753Y-15682388D02*
X9552229Y-15644293D01*
X9552229Y-15644293D02*
X9552229Y-15596674D01*
X9552229Y-15596674D02*
X9561753Y-15558579D01*
X9561753Y-15558579D02*
X9571277Y-15539531D01*
X9571277Y-15539531D02*
X9580801Y-15530008D01*
X9580801Y-15530008D02*
X9599848Y-15520484D01*
X9733182Y-15520484D02*
X9856991Y-15520484D01*
X9856991Y-15520484D02*
X9790325Y-15596674D01*
X9790325Y-15596674D02*
X9818896Y-15596674D01*
X9818896Y-15596674D02*
X9837944Y-15606198D01*
X9837944Y-15606198D02*
X9847468Y-15615722D01*
X9847468Y-15615722D02*
X9856991Y-15634769D01*
X9856991Y-15634769D02*
X9856991Y-15682388D01*
X9856991Y-15682388D02*
X9847468Y-15701436D01*
X9847468Y-15701436D02*
X9837944Y-15710960D01*
X9837944Y-15710960D02*
X9818896Y-15720484D01*
X9818896Y-15720484D02*
X9761753Y-15720484D01*
X9761753Y-15720484D02*
X9742706Y-15710960D01*
X9742706Y-15710960D02*
X9733182Y-15701436D01*
X9952229Y-15720484D02*
X9990325Y-15720484D01*
X9990325Y-15720484D02*
X10009372Y-15710960D01*
X10009372Y-15710960D02*
X10018896Y-15701436D01*
X10018896Y-15701436D02*
X10037944Y-15672865D01*
X10037944Y-15672865D02*
X10047468Y-15634769D01*
X10047468Y-15634769D02*
X10047468Y-15558579D01*
X10047468Y-15558579D02*
X10037944Y-15539531D01*
X10037944Y-15539531D02*
X10028420Y-15530008D01*
X10028420Y-15530008D02*
X10009372Y-15520484D01*
X10009372Y-15520484D02*
X9971277Y-15520484D01*
X9971277Y-15520484D02*
X9952229Y-15530008D01*
X9952229Y-15530008D02*
X9942706Y-15539531D01*
X9942706Y-15539531D02*
X9933182Y-15558579D01*
X9933182Y-15558579D02*
X9933182Y-15606198D01*
X9933182Y-15606198D02*
X9942706Y-15625246D01*
X9942706Y-15625246D02*
X9952229Y-15634769D01*
X9952229Y-15634769D02*
X9971277Y-15644293D01*
X9971277Y-15644293D02*
X10009372Y-15644293D01*
X10009372Y-15644293D02*
X10028420Y-15634769D01*
X10028420Y-15634769D02*
X10037944Y-15625246D01*
X10037944Y-15625246D02*
X10047468Y-15606198D01*
X10218896Y-15587150D02*
X10218896Y-15720484D01*
X10171277Y-15510960D02*
X10123658Y-15653817D01*
X10123658Y-15653817D02*
X10247468Y-15653817D01*
X10314134Y-15520484D02*
X10314134Y-15558579D01*
X10390325Y-15520484D02*
X10390325Y-15558579D01*
X10685563Y-15796674D02*
X10676039Y-15787150D01*
X10676039Y-15787150D02*
X10656991Y-15758579D01*
X10656991Y-15758579D02*
X10647468Y-15739531D01*
X10647468Y-15739531D02*
X10637944Y-15710960D01*
X10637944Y-15710960D02*
X10628420Y-15663341D01*
X10628420Y-15663341D02*
X10628420Y-15625246D01*
X10628420Y-15625246D02*
X10637944Y-15577627D01*
X10637944Y-15577627D02*
X10647468Y-15549055D01*
X10647468Y-15549055D02*
X10656991Y-15530008D01*
X10656991Y-15530008D02*
X10676039Y-15501436D01*
X10676039Y-15501436D02*
X10685563Y-15491912D01*
X10866515Y-15720484D02*
X10752230Y-15720484D01*
X10809372Y-15720484D02*
X10809372Y-15520484D01*
X10809372Y-15520484D02*
X10790325Y-15549055D01*
X10790325Y-15549055D02*
X10771277Y-15568103D01*
X10771277Y-15568103D02*
X10752230Y-15577627D01*
X10961753Y-15720484D02*
X10999849Y-15720484D01*
X10999849Y-15720484D02*
X11018896Y-15710960D01*
X11018896Y-15710960D02*
X11028420Y-15701436D01*
X11028420Y-15701436D02*
X11047468Y-15672865D01*
X11047468Y-15672865D02*
X11056991Y-15634769D01*
X11056991Y-15634769D02*
X11056991Y-15558579D01*
X11056991Y-15558579D02*
X11047468Y-15539531D01*
X11047468Y-15539531D02*
X11037944Y-15530008D01*
X11037944Y-15530008D02*
X11018896Y-15520484D01*
X11018896Y-15520484D02*
X10980801Y-15520484D01*
X10980801Y-15520484D02*
X10961753Y-15530008D01*
X10961753Y-15530008D02*
X10952230Y-15539531D01*
X10952230Y-15539531D02*
X10942706Y-15558579D01*
X10942706Y-15558579D02*
X10942706Y-15606198D01*
X10942706Y-15606198D02*
X10952230Y-15625246D01*
X10952230Y-15625246D02*
X10961753Y-15634769D01*
X10961753Y-15634769D02*
X10980801Y-15644293D01*
X10980801Y-15644293D02*
X11018896Y-15644293D01*
X11018896Y-15644293D02*
X11037944Y-15634769D01*
X11037944Y-15634769D02*
X11047468Y-15625246D01*
X11047468Y-15625246D02*
X11056991Y-15606198D01*
X11133182Y-15539531D02*
X11142706Y-15530008D01*
X11142706Y-15530008D02*
X11161753Y-15520484D01*
X11161753Y-15520484D02*
X11209372Y-15520484D01*
X11209372Y-15520484D02*
X11228420Y-15530008D01*
X11228420Y-15530008D02*
X11237944Y-15539531D01*
X11237944Y-15539531D02*
X11247468Y-15558579D01*
X11247468Y-15558579D02*
X11247468Y-15577627D01*
X11247468Y-15577627D02*
X11237944Y-15606198D01*
X11237944Y-15606198D02*
X11123658Y-15720484D01*
X11123658Y-15720484D02*
X11247468Y-15720484D01*
X11485563Y-15720484D02*
X11485563Y-15520484D01*
X11571277Y-15720484D02*
X11571277Y-15615722D01*
X11571277Y-15615722D02*
X11561753Y-15596674D01*
X11561753Y-15596674D02*
X11542706Y-15587150D01*
X11542706Y-15587150D02*
X11514134Y-15587150D01*
X11514134Y-15587150D02*
X11495087Y-15596674D01*
X11495087Y-15596674D02*
X11485563Y-15606198D01*
X11695087Y-15720484D02*
X11676039Y-15710960D01*
X11676039Y-15710960D02*
X11666515Y-15701436D01*
X11666515Y-15701436D02*
X11656991Y-15682388D01*
X11656991Y-15682388D02*
X11656991Y-15625246D01*
X11656991Y-15625246D02*
X11666515Y-15606198D01*
X11666515Y-15606198D02*
X11676039Y-15596674D01*
X11676039Y-15596674D02*
X11695087Y-15587150D01*
X11695087Y-15587150D02*
X11723658Y-15587150D01*
X11723658Y-15587150D02*
X11742706Y-15596674D01*
X11742706Y-15596674D02*
X11752230Y-15606198D01*
X11752230Y-15606198D02*
X11761753Y-15625246D01*
X11761753Y-15625246D02*
X11761753Y-15682388D01*
X11761753Y-15682388D02*
X11752230Y-15701436D01*
X11752230Y-15701436D02*
X11742706Y-15710960D01*
X11742706Y-15710960D02*
X11723658Y-15720484D01*
X11723658Y-15720484D02*
X11695087Y-15720484D01*
X11876039Y-15720484D02*
X11856991Y-15710960D01*
X11856991Y-15710960D02*
X11847468Y-15691912D01*
X11847468Y-15691912D02*
X11847468Y-15520484D01*
X12028420Y-15710960D02*
X12009372Y-15720484D01*
X12009372Y-15720484D02*
X11971277Y-15720484D01*
X11971277Y-15720484D02*
X11952230Y-15710960D01*
X11952230Y-15710960D02*
X11942706Y-15691912D01*
X11942706Y-15691912D02*
X11942706Y-15615722D01*
X11942706Y-15615722D02*
X11952230Y-15596674D01*
X11952230Y-15596674D02*
X11971277Y-15587150D01*
X11971277Y-15587150D02*
X12009372Y-15587150D01*
X12009372Y-15587150D02*
X12028420Y-15596674D01*
X12028420Y-15596674D02*
X12037944Y-15615722D01*
X12037944Y-15615722D02*
X12037944Y-15634769D01*
X12037944Y-15634769D02*
X11942706Y-15653817D01*
X12114134Y-15710960D02*
X12133182Y-15720484D01*
X12133182Y-15720484D02*
X12171277Y-15720484D01*
X12171277Y-15720484D02*
X12190325Y-15710960D01*
X12190325Y-15710960D02*
X12199849Y-15691912D01*
X12199849Y-15691912D02*
X12199849Y-15682388D01*
X12199849Y-15682388D02*
X12190325Y-15663341D01*
X12190325Y-15663341D02*
X12171277Y-15653817D01*
X12171277Y-15653817D02*
X12142706Y-15653817D01*
X12142706Y-15653817D02*
X12123658Y-15644293D01*
X12123658Y-15644293D02*
X12114134Y-15625246D01*
X12114134Y-15625246D02*
X12114134Y-15615722D01*
X12114134Y-15615722D02*
X12123658Y-15596674D01*
X12123658Y-15596674D02*
X12142706Y-15587150D01*
X12142706Y-15587150D02*
X12171277Y-15587150D01*
X12171277Y-15587150D02*
X12190325Y-15596674D01*
X12266515Y-15796674D02*
X12276039Y-15787150D01*
X12276039Y-15787150D02*
X12295087Y-15758579D01*
X12295087Y-15758579D02*
X12304611Y-15739531D01*
X12304611Y-15739531D02*
X12314134Y-15710960D01*
X12314134Y-15710960D02*
X12323658Y-15663341D01*
X12323658Y-15663341D02*
X12323658Y-15625246D01*
X12323658Y-15625246D02*
X12314134Y-15577627D01*
X12314134Y-15577627D02*
X12304611Y-15549055D01*
X12304611Y-15549055D02*
X12295087Y-15530008D01*
X12295087Y-15530008D02*
X12276039Y-15501436D01*
X12276039Y-15501436D02*
X12266515Y-15491912D01*
M02*
