G04 #@! TF.GenerationSoftware,KiCad,Pcbnew,7.0.11-7.0.11~ubuntu20.04.1*
G04 #@! TF.CreationDate,2024-08-20T17:51:30+02:00*
G04 #@! TF.ProjectId,kicad-kria-pmod-alinx,6b696361-642d-46b7-9269-612d706d6f64,1.0*
G04 #@! TF.SameCoordinates,Original*
G04 #@! TF.FileFunction,Legend,Top*
G04 #@! TF.FilePolarity,Positive*
%FSLAX46Y46*%
G04 Gerber Fmt 4.6, Leading zero omitted, Abs format (unit mm)*
G04 Created by KiCad (PCBNEW 7.0.11-7.0.11~ubuntu20.04.1) date 2024-08-20 17:51:30*
%MOMM*%
%LPD*%
G01*
G04 APERTURE LIST*
G04 Aperture macros list*
%AMRoundRect*
0 Rectangle with rounded corners*
0 $1 Rounding radius*
0 $2 $3 $4 $5 $6 $7 $8 $9 X,Y pos of 4 corners*
0 Add a 4 corners polygon primitive as box body*
4,1,4,$2,$3,$4,$5,$6,$7,$8,$9,$2,$3,0*
0 Add four circle primitives for the rounded corners*
1,1,$1+$1,$2,$3*
1,1,$1+$1,$4,$5*
1,1,$1+$1,$6,$7*
1,1,$1+$1,$8,$9*
0 Add four rect primitives between the rounded corners*
20,1,$1+$1,$2,$3,$4,$5,0*
20,1,$1+$1,$4,$5,$6,$7,0*
20,1,$1+$1,$6,$7,$8,$9,0*
20,1,$1+$1,$8,$9,$2,$3,0*%
G04 Aperture macros list end*
%ADD10C,0.150000*%
%ADD11C,0.300000*%
%ADD12C,0.100000*%
%ADD13C,0.120000*%
%ADD14C,3.200000*%
%ADD15RoundRect,0.237500X0.300000X0.237500X-0.300000X0.237500X-0.300000X-0.237500X0.300000X-0.237500X0*%
%ADD16C,2.500000*%
%ADD17RoundRect,0.237500X-0.237500X0.250000X-0.237500X-0.250000X0.237500X-0.250000X0.237500X0.250000X0*%
%ADD18RoundRect,0.237500X-0.237500X0.287500X-0.237500X-0.287500X0.237500X-0.287500X0.237500X0.287500X0*%
%ADD19R,1.700000X1.700000*%
%ADD20O,1.700000X1.700000*%
%ADD21RoundRect,0.237500X0.237500X-0.300000X0.237500X0.300000X-0.237500X0.300000X-0.237500X-0.300000X0*%
%ADD22RoundRect,0.237500X-0.237500X0.300000X-0.237500X-0.300000X0.237500X-0.300000X0.237500X0.300000X0*%
%ADD23RoundRect,0.237500X-0.300000X-0.237500X0.300000X-0.237500X0.300000X0.237500X-0.300000X0.237500X0*%
G04 APERTURE END LIST*
D10*
X147301904Y-34763104D02*
X147301904Y-33463104D01*
X147301904Y-33463104D02*
X147797142Y-33463104D01*
X147797142Y-33463104D02*
X147920952Y-33525009D01*
X147920952Y-33525009D02*
X147982857Y-33586914D01*
X147982857Y-33586914D02*
X148044761Y-33710723D01*
X148044761Y-33710723D02*
X148044761Y-33896438D01*
X148044761Y-33896438D02*
X147982857Y-34020247D01*
X147982857Y-34020247D02*
X147920952Y-34082152D01*
X147920952Y-34082152D02*
X147797142Y-34144057D01*
X147797142Y-34144057D02*
X147301904Y-34144057D01*
X148601904Y-34763104D02*
X148601904Y-33463104D01*
X148601904Y-33463104D02*
X149035238Y-34391676D01*
X149035238Y-34391676D02*
X149468571Y-33463104D01*
X149468571Y-33463104D02*
X149468571Y-34763104D01*
X150335237Y-33463104D02*
X150582856Y-33463104D01*
X150582856Y-33463104D02*
X150706666Y-33525009D01*
X150706666Y-33525009D02*
X150830475Y-33648819D01*
X150830475Y-33648819D02*
X150892380Y-33896438D01*
X150892380Y-33896438D02*
X150892380Y-34329771D01*
X150892380Y-34329771D02*
X150830475Y-34577390D01*
X150830475Y-34577390D02*
X150706666Y-34701200D01*
X150706666Y-34701200D02*
X150582856Y-34763104D01*
X150582856Y-34763104D02*
X150335237Y-34763104D01*
X150335237Y-34763104D02*
X150211428Y-34701200D01*
X150211428Y-34701200D02*
X150087618Y-34577390D01*
X150087618Y-34577390D02*
X150025714Y-34329771D01*
X150025714Y-34329771D02*
X150025714Y-33896438D01*
X150025714Y-33896438D02*
X150087618Y-33648819D01*
X150087618Y-33648819D02*
X150211428Y-33525009D01*
X150211428Y-33525009D02*
X150335237Y-33463104D01*
X151449523Y-34763104D02*
X151449523Y-33463104D01*
X151449523Y-33463104D02*
X151759047Y-33463104D01*
X151759047Y-33463104D02*
X151944761Y-33525009D01*
X151944761Y-33525009D02*
X152068571Y-33648819D01*
X152068571Y-33648819D02*
X152130476Y-33772628D01*
X152130476Y-33772628D02*
X152192380Y-34020247D01*
X152192380Y-34020247D02*
X152192380Y-34205961D01*
X152192380Y-34205961D02*
X152130476Y-34453580D01*
X152130476Y-34453580D02*
X152068571Y-34577390D01*
X152068571Y-34577390D02*
X151944761Y-34701200D01*
X151944761Y-34701200D02*
X151759047Y-34763104D01*
X151759047Y-34763104D02*
X151449523Y-34763104D01*
X152749523Y-34267866D02*
X153740000Y-34267866D01*
X154916190Y-33896438D02*
X154916190Y-34763104D01*
X154606666Y-33401200D02*
X154297143Y-34329771D01*
X154297143Y-34329771D02*
X155101904Y-34329771D01*
X124441904Y-34763104D02*
X124441904Y-33463104D01*
X124441904Y-33463104D02*
X124937142Y-33463104D01*
X124937142Y-33463104D02*
X125060952Y-33525009D01*
X125060952Y-33525009D02*
X125122857Y-33586914D01*
X125122857Y-33586914D02*
X125184761Y-33710723D01*
X125184761Y-33710723D02*
X125184761Y-33896438D01*
X125184761Y-33896438D02*
X125122857Y-34020247D01*
X125122857Y-34020247D02*
X125060952Y-34082152D01*
X125060952Y-34082152D02*
X124937142Y-34144057D01*
X124937142Y-34144057D02*
X124441904Y-34144057D01*
X125741904Y-34763104D02*
X125741904Y-33463104D01*
X125741904Y-33463104D02*
X126175238Y-34391676D01*
X126175238Y-34391676D02*
X126608571Y-33463104D01*
X126608571Y-33463104D02*
X126608571Y-34763104D01*
X127475237Y-33463104D02*
X127722856Y-33463104D01*
X127722856Y-33463104D02*
X127846666Y-33525009D01*
X127846666Y-33525009D02*
X127970475Y-33648819D01*
X127970475Y-33648819D02*
X128032380Y-33896438D01*
X128032380Y-33896438D02*
X128032380Y-34329771D01*
X128032380Y-34329771D02*
X127970475Y-34577390D01*
X127970475Y-34577390D02*
X127846666Y-34701200D01*
X127846666Y-34701200D02*
X127722856Y-34763104D01*
X127722856Y-34763104D02*
X127475237Y-34763104D01*
X127475237Y-34763104D02*
X127351428Y-34701200D01*
X127351428Y-34701200D02*
X127227618Y-34577390D01*
X127227618Y-34577390D02*
X127165714Y-34329771D01*
X127165714Y-34329771D02*
X127165714Y-33896438D01*
X127165714Y-33896438D02*
X127227618Y-33648819D01*
X127227618Y-33648819D02*
X127351428Y-33525009D01*
X127351428Y-33525009D02*
X127475237Y-33463104D01*
X128589523Y-34763104D02*
X128589523Y-33463104D01*
X128589523Y-33463104D02*
X128899047Y-33463104D01*
X128899047Y-33463104D02*
X129084761Y-33525009D01*
X129084761Y-33525009D02*
X129208571Y-33648819D01*
X129208571Y-33648819D02*
X129270476Y-33772628D01*
X129270476Y-33772628D02*
X129332380Y-34020247D01*
X129332380Y-34020247D02*
X129332380Y-34205961D01*
X129332380Y-34205961D02*
X129270476Y-34453580D01*
X129270476Y-34453580D02*
X129208571Y-34577390D01*
X129208571Y-34577390D02*
X129084761Y-34701200D01*
X129084761Y-34701200D02*
X128899047Y-34763104D01*
X128899047Y-34763104D02*
X128589523Y-34763104D01*
X129889523Y-34267866D02*
X130880000Y-34267866D01*
X131375238Y-33463104D02*
X132180000Y-33463104D01*
X132180000Y-33463104D02*
X131746666Y-33958342D01*
X131746666Y-33958342D02*
X131932381Y-33958342D01*
X131932381Y-33958342D02*
X132056190Y-34020247D01*
X132056190Y-34020247D02*
X132118095Y-34082152D01*
X132118095Y-34082152D02*
X132180000Y-34205961D01*
X132180000Y-34205961D02*
X132180000Y-34515485D01*
X132180000Y-34515485D02*
X132118095Y-34639295D01*
X132118095Y-34639295D02*
X132056190Y-34701200D01*
X132056190Y-34701200D02*
X131932381Y-34763104D01*
X131932381Y-34763104D02*
X131560952Y-34763104D01*
X131560952Y-34763104D02*
X131437143Y-34701200D01*
X131437143Y-34701200D02*
X131375238Y-34639295D01*
X101581904Y-34763104D02*
X101581904Y-33463104D01*
X101581904Y-33463104D02*
X102077142Y-33463104D01*
X102077142Y-33463104D02*
X102200952Y-33525009D01*
X102200952Y-33525009D02*
X102262857Y-33586914D01*
X102262857Y-33586914D02*
X102324761Y-33710723D01*
X102324761Y-33710723D02*
X102324761Y-33896438D01*
X102324761Y-33896438D02*
X102262857Y-34020247D01*
X102262857Y-34020247D02*
X102200952Y-34082152D01*
X102200952Y-34082152D02*
X102077142Y-34144057D01*
X102077142Y-34144057D02*
X101581904Y-34144057D01*
X102881904Y-34763104D02*
X102881904Y-33463104D01*
X102881904Y-33463104D02*
X103315238Y-34391676D01*
X103315238Y-34391676D02*
X103748571Y-33463104D01*
X103748571Y-33463104D02*
X103748571Y-34763104D01*
X104615237Y-33463104D02*
X104862856Y-33463104D01*
X104862856Y-33463104D02*
X104986666Y-33525009D01*
X104986666Y-33525009D02*
X105110475Y-33648819D01*
X105110475Y-33648819D02*
X105172380Y-33896438D01*
X105172380Y-33896438D02*
X105172380Y-34329771D01*
X105172380Y-34329771D02*
X105110475Y-34577390D01*
X105110475Y-34577390D02*
X104986666Y-34701200D01*
X104986666Y-34701200D02*
X104862856Y-34763104D01*
X104862856Y-34763104D02*
X104615237Y-34763104D01*
X104615237Y-34763104D02*
X104491428Y-34701200D01*
X104491428Y-34701200D02*
X104367618Y-34577390D01*
X104367618Y-34577390D02*
X104305714Y-34329771D01*
X104305714Y-34329771D02*
X104305714Y-33896438D01*
X104305714Y-33896438D02*
X104367618Y-33648819D01*
X104367618Y-33648819D02*
X104491428Y-33525009D01*
X104491428Y-33525009D02*
X104615237Y-33463104D01*
X105729523Y-34763104D02*
X105729523Y-33463104D01*
X105729523Y-33463104D02*
X106039047Y-33463104D01*
X106039047Y-33463104D02*
X106224761Y-33525009D01*
X106224761Y-33525009D02*
X106348571Y-33648819D01*
X106348571Y-33648819D02*
X106410476Y-33772628D01*
X106410476Y-33772628D02*
X106472380Y-34020247D01*
X106472380Y-34020247D02*
X106472380Y-34205961D01*
X106472380Y-34205961D02*
X106410476Y-34453580D01*
X106410476Y-34453580D02*
X106348571Y-34577390D01*
X106348571Y-34577390D02*
X106224761Y-34701200D01*
X106224761Y-34701200D02*
X106039047Y-34763104D01*
X106039047Y-34763104D02*
X105729523Y-34763104D01*
X107029523Y-34267866D02*
X108020000Y-34267866D01*
X108577143Y-33586914D02*
X108639047Y-33525009D01*
X108639047Y-33525009D02*
X108762857Y-33463104D01*
X108762857Y-33463104D02*
X109072381Y-33463104D01*
X109072381Y-33463104D02*
X109196190Y-33525009D01*
X109196190Y-33525009D02*
X109258095Y-33586914D01*
X109258095Y-33586914D02*
X109320000Y-33710723D01*
X109320000Y-33710723D02*
X109320000Y-33834533D01*
X109320000Y-33834533D02*
X109258095Y-34020247D01*
X109258095Y-34020247D02*
X108515238Y-34763104D01*
X108515238Y-34763104D02*
X109320000Y-34763104D01*
X78721904Y-34763104D02*
X78721904Y-33463104D01*
X78721904Y-33463104D02*
X79217142Y-33463104D01*
X79217142Y-33463104D02*
X79340952Y-33525009D01*
X79340952Y-33525009D02*
X79402857Y-33586914D01*
X79402857Y-33586914D02*
X79464761Y-33710723D01*
X79464761Y-33710723D02*
X79464761Y-33896438D01*
X79464761Y-33896438D02*
X79402857Y-34020247D01*
X79402857Y-34020247D02*
X79340952Y-34082152D01*
X79340952Y-34082152D02*
X79217142Y-34144057D01*
X79217142Y-34144057D02*
X78721904Y-34144057D01*
X80021904Y-34763104D02*
X80021904Y-33463104D01*
X80021904Y-33463104D02*
X80455238Y-34391676D01*
X80455238Y-34391676D02*
X80888571Y-33463104D01*
X80888571Y-33463104D02*
X80888571Y-34763104D01*
X81755237Y-33463104D02*
X82002856Y-33463104D01*
X82002856Y-33463104D02*
X82126666Y-33525009D01*
X82126666Y-33525009D02*
X82250475Y-33648819D01*
X82250475Y-33648819D02*
X82312380Y-33896438D01*
X82312380Y-33896438D02*
X82312380Y-34329771D01*
X82312380Y-34329771D02*
X82250475Y-34577390D01*
X82250475Y-34577390D02*
X82126666Y-34701200D01*
X82126666Y-34701200D02*
X82002856Y-34763104D01*
X82002856Y-34763104D02*
X81755237Y-34763104D01*
X81755237Y-34763104D02*
X81631428Y-34701200D01*
X81631428Y-34701200D02*
X81507618Y-34577390D01*
X81507618Y-34577390D02*
X81445714Y-34329771D01*
X81445714Y-34329771D02*
X81445714Y-33896438D01*
X81445714Y-33896438D02*
X81507618Y-33648819D01*
X81507618Y-33648819D02*
X81631428Y-33525009D01*
X81631428Y-33525009D02*
X81755237Y-33463104D01*
X82869523Y-34763104D02*
X82869523Y-33463104D01*
X82869523Y-33463104D02*
X83179047Y-33463104D01*
X83179047Y-33463104D02*
X83364761Y-33525009D01*
X83364761Y-33525009D02*
X83488571Y-33648819D01*
X83488571Y-33648819D02*
X83550476Y-33772628D01*
X83550476Y-33772628D02*
X83612380Y-34020247D01*
X83612380Y-34020247D02*
X83612380Y-34205961D01*
X83612380Y-34205961D02*
X83550476Y-34453580D01*
X83550476Y-34453580D02*
X83488571Y-34577390D01*
X83488571Y-34577390D02*
X83364761Y-34701200D01*
X83364761Y-34701200D02*
X83179047Y-34763104D01*
X83179047Y-34763104D02*
X82869523Y-34763104D01*
X84169523Y-34267866D02*
X85160000Y-34267866D01*
X86460000Y-34763104D02*
X85717143Y-34763104D01*
X86088571Y-34763104D02*
X86088571Y-33463104D01*
X86088571Y-33463104D02*
X85964762Y-33648819D01*
X85964762Y-33648819D02*
X85840952Y-33772628D01*
X85840952Y-33772628D02*
X85717143Y-33834533D01*
D11*
X78075114Y-136539060D02*
X76275114Y-136539060D01*
X78075114Y-135510489D02*
X77046542Y-136281917D01*
X76275114Y-135510489D02*
X77303685Y-136539060D01*
X78075114Y-134739060D02*
X76875114Y-134739060D01*
X77217971Y-134739060D02*
X77046542Y-134653346D01*
X77046542Y-134653346D02*
X76960828Y-134567632D01*
X76960828Y-134567632D02*
X76875114Y-134396203D01*
X76875114Y-134396203D02*
X76875114Y-134224774D01*
X78075114Y-133624774D02*
X76875114Y-133624774D01*
X76275114Y-133624774D02*
X76360828Y-133710488D01*
X76360828Y-133710488D02*
X76446542Y-133624774D01*
X76446542Y-133624774D02*
X76360828Y-133539060D01*
X76360828Y-133539060D02*
X76275114Y-133624774D01*
X76275114Y-133624774D02*
X76446542Y-133624774D01*
X78075114Y-131996203D02*
X77132257Y-131996203D01*
X77132257Y-131996203D02*
X76960828Y-132081917D01*
X76960828Y-132081917D02*
X76875114Y-132253345D01*
X76875114Y-132253345D02*
X76875114Y-132596203D01*
X76875114Y-132596203D02*
X76960828Y-132767631D01*
X77989400Y-131996203D02*
X78075114Y-132167631D01*
X78075114Y-132167631D02*
X78075114Y-132596203D01*
X78075114Y-132596203D02*
X77989400Y-132767631D01*
X77989400Y-132767631D02*
X77817971Y-132853345D01*
X77817971Y-132853345D02*
X77646542Y-132853345D01*
X77646542Y-132853345D02*
X77475114Y-132767631D01*
X77475114Y-132767631D02*
X77389400Y-132596203D01*
X77389400Y-132596203D02*
X77389400Y-132167631D01*
X77389400Y-132167631D02*
X77303685Y-131996203D01*
X77389400Y-131139060D02*
X77389400Y-129767632D01*
X78075114Y-128910489D02*
X76275114Y-128910489D01*
X76275114Y-128910489D02*
X76275114Y-128224775D01*
X76275114Y-128224775D02*
X76360828Y-128053346D01*
X76360828Y-128053346D02*
X76446542Y-127967632D01*
X76446542Y-127967632D02*
X76617971Y-127881918D01*
X76617971Y-127881918D02*
X76875114Y-127881918D01*
X76875114Y-127881918D02*
X77046542Y-127967632D01*
X77046542Y-127967632D02*
X77132257Y-128053346D01*
X77132257Y-128053346D02*
X77217971Y-128224775D01*
X77217971Y-128224775D02*
X77217971Y-128910489D01*
X78075114Y-127110489D02*
X76275114Y-127110489D01*
X76275114Y-127110489D02*
X77560828Y-126510489D01*
X77560828Y-126510489D02*
X76275114Y-125910489D01*
X76275114Y-125910489D02*
X78075114Y-125910489D01*
X76275114Y-124710489D02*
X76275114Y-124367632D01*
X76275114Y-124367632D02*
X76360828Y-124196203D01*
X76360828Y-124196203D02*
X76532257Y-124024775D01*
X76532257Y-124024775D02*
X76875114Y-123939060D01*
X76875114Y-123939060D02*
X77475114Y-123939060D01*
X77475114Y-123939060D02*
X77817971Y-124024775D01*
X77817971Y-124024775D02*
X77989400Y-124196203D01*
X77989400Y-124196203D02*
X78075114Y-124367632D01*
X78075114Y-124367632D02*
X78075114Y-124710489D01*
X78075114Y-124710489D02*
X77989400Y-124881918D01*
X77989400Y-124881918D02*
X77817971Y-125053346D01*
X77817971Y-125053346D02*
X77475114Y-125139060D01*
X77475114Y-125139060D02*
X76875114Y-125139060D01*
X76875114Y-125139060D02*
X76532257Y-125053346D01*
X76532257Y-125053346D02*
X76360828Y-124881918D01*
X76360828Y-124881918D02*
X76275114Y-124710489D01*
X78075114Y-123167632D02*
X76275114Y-123167632D01*
X76275114Y-123167632D02*
X76275114Y-122739061D01*
X76275114Y-122739061D02*
X76360828Y-122481918D01*
X76360828Y-122481918D02*
X76532257Y-122310489D01*
X76532257Y-122310489D02*
X76703685Y-122224775D01*
X76703685Y-122224775D02*
X77046542Y-122139061D01*
X77046542Y-122139061D02*
X77303685Y-122139061D01*
X77303685Y-122139061D02*
X77646542Y-122224775D01*
X77646542Y-122224775D02*
X77817971Y-122310489D01*
X77817971Y-122310489D02*
X77989400Y-122481918D01*
X77989400Y-122481918D02*
X78075114Y-122739061D01*
X78075114Y-122739061D02*
X78075114Y-123167632D01*
X77389400Y-121367632D02*
X77389400Y-119996204D01*
X77560828Y-119224775D02*
X77560828Y-118367633D01*
X78075114Y-119396204D02*
X76275114Y-118796204D01*
X76275114Y-118796204D02*
X78075114Y-118196204D01*
X78075114Y-117339061D02*
X77989400Y-117510490D01*
X77989400Y-117510490D02*
X77817971Y-117596204D01*
X77817971Y-117596204D02*
X76275114Y-117596204D01*
X78075114Y-116653347D02*
X76875114Y-116653347D01*
X76275114Y-116653347D02*
X76360828Y-116739061D01*
X76360828Y-116739061D02*
X76446542Y-116653347D01*
X76446542Y-116653347D02*
X76360828Y-116567633D01*
X76360828Y-116567633D02*
X76275114Y-116653347D01*
X76275114Y-116653347D02*
X76446542Y-116653347D01*
X76875114Y-115796204D02*
X78075114Y-115796204D01*
X77046542Y-115796204D02*
X76960828Y-115710490D01*
X76960828Y-115710490D02*
X76875114Y-115539061D01*
X76875114Y-115539061D02*
X76875114Y-115281918D01*
X76875114Y-115281918D02*
X76960828Y-115110490D01*
X76960828Y-115110490D02*
X77132257Y-115024776D01*
X77132257Y-115024776D02*
X78075114Y-115024776D01*
X78075114Y-114339062D02*
X76875114Y-113396205D01*
X76875114Y-114339062D02*
X78075114Y-113396205D01*
X79344542Y-136624774D02*
X79258828Y-136539060D01*
X79258828Y-136539060D02*
X79173114Y-136367632D01*
X79173114Y-136367632D02*
X79173114Y-135939060D01*
X79173114Y-135939060D02*
X79258828Y-135767632D01*
X79258828Y-135767632D02*
X79344542Y-135681917D01*
X79344542Y-135681917D02*
X79515971Y-135596203D01*
X79515971Y-135596203D02*
X79687400Y-135596203D01*
X79687400Y-135596203D02*
X79944542Y-135681917D01*
X79944542Y-135681917D02*
X80973114Y-136710489D01*
X80973114Y-136710489D02*
X80973114Y-135596203D01*
X79173114Y-134481917D02*
X79173114Y-134310488D01*
X79173114Y-134310488D02*
X79258828Y-134139060D01*
X79258828Y-134139060D02*
X79344542Y-134053346D01*
X79344542Y-134053346D02*
X79515971Y-133967631D01*
X79515971Y-133967631D02*
X79858828Y-133881917D01*
X79858828Y-133881917D02*
X80287400Y-133881917D01*
X80287400Y-133881917D02*
X80630257Y-133967631D01*
X80630257Y-133967631D02*
X80801685Y-134053346D01*
X80801685Y-134053346D02*
X80887400Y-134139060D01*
X80887400Y-134139060D02*
X80973114Y-134310488D01*
X80973114Y-134310488D02*
X80973114Y-134481917D01*
X80973114Y-134481917D02*
X80887400Y-134653346D01*
X80887400Y-134653346D02*
X80801685Y-134739060D01*
X80801685Y-134739060D02*
X80630257Y-134824774D01*
X80630257Y-134824774D02*
X80287400Y-134910488D01*
X80287400Y-134910488D02*
X79858828Y-134910488D01*
X79858828Y-134910488D02*
X79515971Y-134824774D01*
X79515971Y-134824774D02*
X79344542Y-134739060D01*
X79344542Y-134739060D02*
X79258828Y-134653346D01*
X79258828Y-134653346D02*
X79173114Y-134481917D01*
X79344542Y-133196202D02*
X79258828Y-133110488D01*
X79258828Y-133110488D02*
X79173114Y-132939060D01*
X79173114Y-132939060D02*
X79173114Y-132510488D01*
X79173114Y-132510488D02*
X79258828Y-132339060D01*
X79258828Y-132339060D02*
X79344542Y-132253345D01*
X79344542Y-132253345D02*
X79515971Y-132167631D01*
X79515971Y-132167631D02*
X79687400Y-132167631D01*
X79687400Y-132167631D02*
X79944542Y-132253345D01*
X79944542Y-132253345D02*
X80973114Y-133281917D01*
X80973114Y-133281917D02*
X80973114Y-132167631D01*
X79773114Y-130624774D02*
X80973114Y-130624774D01*
X79087400Y-131053345D02*
X80373114Y-131481916D01*
X80373114Y-131481916D02*
X80373114Y-130367631D01*
X80287400Y-129681916D02*
X80287400Y-128310488D01*
X79173114Y-127110488D02*
X79173114Y-126939059D01*
X79173114Y-126939059D02*
X79258828Y-126767631D01*
X79258828Y-126767631D02*
X79344542Y-126681917D01*
X79344542Y-126681917D02*
X79515971Y-126596202D01*
X79515971Y-126596202D02*
X79858828Y-126510488D01*
X79858828Y-126510488D02*
X80287400Y-126510488D01*
X80287400Y-126510488D02*
X80630257Y-126596202D01*
X80630257Y-126596202D02*
X80801685Y-126681917D01*
X80801685Y-126681917D02*
X80887400Y-126767631D01*
X80887400Y-126767631D02*
X80973114Y-126939059D01*
X80973114Y-126939059D02*
X80973114Y-127110488D01*
X80973114Y-127110488D02*
X80887400Y-127281917D01*
X80887400Y-127281917D02*
X80801685Y-127367631D01*
X80801685Y-127367631D02*
X80630257Y-127453345D01*
X80630257Y-127453345D02*
X80287400Y-127539059D01*
X80287400Y-127539059D02*
X79858828Y-127539059D01*
X79858828Y-127539059D02*
X79515971Y-127453345D01*
X79515971Y-127453345D02*
X79344542Y-127367631D01*
X79344542Y-127367631D02*
X79258828Y-127281917D01*
X79258828Y-127281917D02*
X79173114Y-127110488D01*
X79944542Y-125481916D02*
X79858828Y-125653345D01*
X79858828Y-125653345D02*
X79773114Y-125739059D01*
X79773114Y-125739059D02*
X79601685Y-125824773D01*
X79601685Y-125824773D02*
X79515971Y-125824773D01*
X79515971Y-125824773D02*
X79344542Y-125739059D01*
X79344542Y-125739059D02*
X79258828Y-125653345D01*
X79258828Y-125653345D02*
X79173114Y-125481916D01*
X79173114Y-125481916D02*
X79173114Y-125139059D01*
X79173114Y-125139059D02*
X79258828Y-124967631D01*
X79258828Y-124967631D02*
X79344542Y-124881916D01*
X79344542Y-124881916D02*
X79515971Y-124796202D01*
X79515971Y-124796202D02*
X79601685Y-124796202D01*
X79601685Y-124796202D02*
X79773114Y-124881916D01*
X79773114Y-124881916D02*
X79858828Y-124967631D01*
X79858828Y-124967631D02*
X79944542Y-125139059D01*
X79944542Y-125139059D02*
X79944542Y-125481916D01*
X79944542Y-125481916D02*
X80030257Y-125653345D01*
X80030257Y-125653345D02*
X80115971Y-125739059D01*
X80115971Y-125739059D02*
X80287400Y-125824773D01*
X80287400Y-125824773D02*
X80630257Y-125824773D01*
X80630257Y-125824773D02*
X80801685Y-125739059D01*
X80801685Y-125739059D02*
X80887400Y-125653345D01*
X80887400Y-125653345D02*
X80973114Y-125481916D01*
X80973114Y-125481916D02*
X80973114Y-125139059D01*
X80973114Y-125139059D02*
X80887400Y-124967631D01*
X80887400Y-124967631D02*
X80801685Y-124881916D01*
X80801685Y-124881916D02*
X80630257Y-124796202D01*
X80630257Y-124796202D02*
X80287400Y-124796202D01*
X80287400Y-124796202D02*
X80115971Y-124881916D01*
X80115971Y-124881916D02*
X80030257Y-124967631D01*
X80030257Y-124967631D02*
X79944542Y-125139059D01*
X80287400Y-124024773D02*
X80287400Y-122653345D01*
X79344542Y-121881916D02*
X79258828Y-121796202D01*
X79258828Y-121796202D02*
X79173114Y-121624774D01*
X79173114Y-121624774D02*
X79173114Y-121196202D01*
X79173114Y-121196202D02*
X79258828Y-121024774D01*
X79258828Y-121024774D02*
X79344542Y-120939059D01*
X79344542Y-120939059D02*
X79515971Y-120853345D01*
X79515971Y-120853345D02*
X79687400Y-120853345D01*
X79687400Y-120853345D02*
X79944542Y-120939059D01*
X79944542Y-120939059D02*
X80973114Y-121967631D01*
X80973114Y-121967631D02*
X80973114Y-120853345D01*
X79173114Y-119739059D02*
X79173114Y-119567630D01*
X79173114Y-119567630D02*
X79258828Y-119396202D01*
X79258828Y-119396202D02*
X79344542Y-119310488D01*
X79344542Y-119310488D02*
X79515971Y-119224773D01*
X79515971Y-119224773D02*
X79858828Y-119139059D01*
X79858828Y-119139059D02*
X80287400Y-119139059D01*
X80287400Y-119139059D02*
X80630257Y-119224773D01*
X80630257Y-119224773D02*
X80801685Y-119310488D01*
X80801685Y-119310488D02*
X80887400Y-119396202D01*
X80887400Y-119396202D02*
X80973114Y-119567630D01*
X80973114Y-119567630D02*
X80973114Y-119739059D01*
X80973114Y-119739059D02*
X80887400Y-119910488D01*
X80887400Y-119910488D02*
X80801685Y-119996202D01*
X80801685Y-119996202D02*
X80630257Y-120081916D01*
X80630257Y-120081916D02*
X80287400Y-120167630D01*
X80287400Y-120167630D02*
X79858828Y-120167630D01*
X79858828Y-120167630D02*
X79515971Y-120081916D01*
X79515971Y-120081916D02*
X79344542Y-119996202D01*
X79344542Y-119996202D02*
X79258828Y-119910488D01*
X79258828Y-119910488D02*
X79173114Y-119739059D01*
X83871114Y-135596203D02*
X83871114Y-136624774D01*
X83871114Y-136110489D02*
X82071114Y-136110489D01*
X82071114Y-136110489D02*
X82328257Y-136281917D01*
X82328257Y-136281917D02*
X82499685Y-136453346D01*
X82499685Y-136453346D02*
X82585400Y-136624774D01*
X83699685Y-134824774D02*
X83785400Y-134739060D01*
X83785400Y-134739060D02*
X83871114Y-134824774D01*
X83871114Y-134824774D02*
X83785400Y-134910488D01*
X83785400Y-134910488D02*
X83699685Y-134824774D01*
X83699685Y-134824774D02*
X83871114Y-134824774D01*
X82071114Y-133624774D02*
X82071114Y-133453345D01*
X82071114Y-133453345D02*
X82156828Y-133281917D01*
X82156828Y-133281917D02*
X82242542Y-133196203D01*
X82242542Y-133196203D02*
X82413971Y-133110488D01*
X82413971Y-133110488D02*
X82756828Y-133024774D01*
X82756828Y-133024774D02*
X83185400Y-133024774D01*
X83185400Y-133024774D02*
X83528257Y-133110488D01*
X83528257Y-133110488D02*
X83699685Y-133196203D01*
X83699685Y-133196203D02*
X83785400Y-133281917D01*
X83785400Y-133281917D02*
X83871114Y-133453345D01*
X83871114Y-133453345D02*
X83871114Y-133624774D01*
X83871114Y-133624774D02*
X83785400Y-133796203D01*
X83785400Y-133796203D02*
X83699685Y-133881917D01*
X83699685Y-133881917D02*
X83528257Y-133967631D01*
X83528257Y-133967631D02*
X83185400Y-134053345D01*
X83185400Y-134053345D02*
X82756828Y-134053345D01*
X82756828Y-134053345D02*
X82413971Y-133967631D01*
X82413971Y-133967631D02*
X82242542Y-133881917D01*
X82242542Y-133881917D02*
X82156828Y-133796203D01*
X82156828Y-133796203D02*
X82071114Y-133624774D01*
X86769114Y-136539060D02*
X84969114Y-136539060D01*
X85654828Y-136539060D02*
X85569114Y-136367632D01*
X85569114Y-136367632D02*
X85569114Y-136024774D01*
X85569114Y-136024774D02*
X85654828Y-135853346D01*
X85654828Y-135853346D02*
X85740542Y-135767632D01*
X85740542Y-135767632D02*
X85911971Y-135681917D01*
X85911971Y-135681917D02*
X86426257Y-135681917D01*
X86426257Y-135681917D02*
X86597685Y-135767632D01*
X86597685Y-135767632D02*
X86683400Y-135853346D01*
X86683400Y-135853346D02*
X86769114Y-136024774D01*
X86769114Y-136024774D02*
X86769114Y-136367632D01*
X86769114Y-136367632D02*
X86683400Y-136539060D01*
X85569114Y-135081918D02*
X86769114Y-134653346D01*
X85569114Y-134224775D02*
X86769114Y-134653346D01*
X86769114Y-134653346D02*
X87197685Y-134824775D01*
X87197685Y-134824775D02*
X87283400Y-134910489D01*
X87283400Y-134910489D02*
X87369114Y-135081918D01*
X86683400Y-132253345D02*
X86769114Y-131996203D01*
X86769114Y-131996203D02*
X86769114Y-131567631D01*
X86769114Y-131567631D02*
X86683400Y-131396203D01*
X86683400Y-131396203D02*
X86597685Y-131310488D01*
X86597685Y-131310488D02*
X86426257Y-131224774D01*
X86426257Y-131224774D02*
X86254828Y-131224774D01*
X86254828Y-131224774D02*
X86083400Y-131310488D01*
X86083400Y-131310488D02*
X85997685Y-131396203D01*
X85997685Y-131396203D02*
X85911971Y-131567631D01*
X85911971Y-131567631D02*
X85826257Y-131910488D01*
X85826257Y-131910488D02*
X85740542Y-132081917D01*
X85740542Y-132081917D02*
X85654828Y-132167631D01*
X85654828Y-132167631D02*
X85483400Y-132253345D01*
X85483400Y-132253345D02*
X85311971Y-132253345D01*
X85311971Y-132253345D02*
X85140542Y-132167631D01*
X85140542Y-132167631D02*
X85054828Y-132081917D01*
X85054828Y-132081917D02*
X84969114Y-131910488D01*
X84969114Y-131910488D02*
X84969114Y-131481917D01*
X84969114Y-131481917D02*
X85054828Y-131224774D01*
X84969114Y-129596202D02*
X84969114Y-130453345D01*
X84969114Y-130453345D02*
X85826257Y-130539059D01*
X85826257Y-130539059D02*
X85740542Y-130453345D01*
X85740542Y-130453345D02*
X85654828Y-130281917D01*
X85654828Y-130281917D02*
X85654828Y-129853345D01*
X85654828Y-129853345D02*
X85740542Y-129681917D01*
X85740542Y-129681917D02*
X85826257Y-129596202D01*
X85826257Y-129596202D02*
X85997685Y-129510488D01*
X85997685Y-129510488D02*
X86426257Y-129510488D01*
X86426257Y-129510488D02*
X86597685Y-129596202D01*
X86597685Y-129596202D02*
X86683400Y-129681917D01*
X86683400Y-129681917D02*
X86769114Y-129853345D01*
X86769114Y-129853345D02*
X86769114Y-130281917D01*
X86769114Y-130281917D02*
X86683400Y-130453345D01*
X86683400Y-130453345D02*
X86597685Y-130539059D01*
X86769114Y-128653345D02*
X86769114Y-128310488D01*
X86769114Y-128310488D02*
X86683400Y-128139059D01*
X86683400Y-128139059D02*
X86597685Y-128053345D01*
X86597685Y-128053345D02*
X86340542Y-127881916D01*
X86340542Y-127881916D02*
X85997685Y-127796202D01*
X85997685Y-127796202D02*
X85311971Y-127796202D01*
X85311971Y-127796202D02*
X85140542Y-127881916D01*
X85140542Y-127881916D02*
X85054828Y-127967631D01*
X85054828Y-127967631D02*
X84969114Y-128139059D01*
X84969114Y-128139059D02*
X84969114Y-128481916D01*
X84969114Y-128481916D02*
X85054828Y-128653345D01*
X85054828Y-128653345D02*
X85140542Y-128739059D01*
X85140542Y-128739059D02*
X85311971Y-128824773D01*
X85311971Y-128824773D02*
X85740542Y-128824773D01*
X85740542Y-128824773D02*
X85911971Y-128739059D01*
X85911971Y-128739059D02*
X85997685Y-128653345D01*
X85997685Y-128653345D02*
X86083400Y-128481916D01*
X86083400Y-128481916D02*
X86083400Y-128139059D01*
X86083400Y-128139059D02*
X85997685Y-127967631D01*
X85997685Y-127967631D02*
X85911971Y-127881916D01*
X85911971Y-127881916D02*
X85740542Y-127796202D01*
X86769114Y-127024773D02*
X84969114Y-127024773D01*
X84969114Y-127024773D02*
X86254828Y-126424773D01*
X86254828Y-126424773D02*
X84969114Y-125824773D01*
X84969114Y-125824773D02*
X86769114Y-125824773D01*
X84969114Y-125139059D02*
X84969114Y-123939059D01*
X84969114Y-123939059D02*
X86769114Y-125139059D01*
X86769114Y-125139059D02*
X86769114Y-123939059D01*
D12*
X97109523Y-49375752D02*
X97109523Y-50185276D01*
X97109523Y-50185276D02*
X97061904Y-50280514D01*
X97061904Y-50280514D02*
X97014285Y-50328133D01*
X97014285Y-50328133D02*
X96919047Y-50375752D01*
X96919047Y-50375752D02*
X96776190Y-50375752D01*
X96776190Y-50375752D02*
X96680952Y-50328133D01*
X97109523Y-49994800D02*
X97014285Y-50042419D01*
X97014285Y-50042419D02*
X96823809Y-50042419D01*
X96823809Y-50042419D02*
X96728571Y-49994800D01*
X96728571Y-49994800D02*
X96680952Y-49947180D01*
X96680952Y-49947180D02*
X96633333Y-49851942D01*
X96633333Y-49851942D02*
X96633333Y-49566228D01*
X96633333Y-49566228D02*
X96680952Y-49470990D01*
X96680952Y-49470990D02*
X96728571Y-49423371D01*
X96728571Y-49423371D02*
X96823809Y-49375752D01*
X96823809Y-49375752D02*
X97014285Y-49375752D01*
X97014285Y-49375752D02*
X97109523Y-49423371D01*
X97585714Y-49375752D02*
X97585714Y-50042419D01*
X97585714Y-49470990D02*
X97633333Y-49423371D01*
X97633333Y-49423371D02*
X97728571Y-49375752D01*
X97728571Y-49375752D02*
X97871428Y-49375752D01*
X97871428Y-49375752D02*
X97966666Y-49423371D01*
X97966666Y-49423371D02*
X98014285Y-49518609D01*
X98014285Y-49518609D02*
X98014285Y-50042419D01*
X98919047Y-50042419D02*
X98919047Y-49042419D01*
X98919047Y-49994800D02*
X98823809Y-50042419D01*
X98823809Y-50042419D02*
X98633333Y-50042419D01*
X98633333Y-50042419D02*
X98538095Y-49994800D01*
X98538095Y-49994800D02*
X98490476Y-49947180D01*
X98490476Y-49947180D02*
X98442857Y-49851942D01*
X98442857Y-49851942D02*
X98442857Y-49566228D01*
X98442857Y-49566228D02*
X98490476Y-49470990D01*
X98490476Y-49470990D02*
X98538095Y-49423371D01*
X98538095Y-49423371D02*
X98633333Y-49375752D01*
X98633333Y-49375752D02*
X98823809Y-49375752D01*
X98823809Y-49375752D02*
X98919047Y-49423371D01*
X97109523Y-56487752D02*
X97109523Y-57297276D01*
X97109523Y-57297276D02*
X97061904Y-57392514D01*
X97061904Y-57392514D02*
X97014285Y-57440133D01*
X97014285Y-57440133D02*
X96919047Y-57487752D01*
X96919047Y-57487752D02*
X96776190Y-57487752D01*
X96776190Y-57487752D02*
X96680952Y-57440133D01*
X97109523Y-57106800D02*
X97014285Y-57154419D01*
X97014285Y-57154419D02*
X96823809Y-57154419D01*
X96823809Y-57154419D02*
X96728571Y-57106800D01*
X96728571Y-57106800D02*
X96680952Y-57059180D01*
X96680952Y-57059180D02*
X96633333Y-56963942D01*
X96633333Y-56963942D02*
X96633333Y-56678228D01*
X96633333Y-56678228D02*
X96680952Y-56582990D01*
X96680952Y-56582990D02*
X96728571Y-56535371D01*
X96728571Y-56535371D02*
X96823809Y-56487752D01*
X96823809Y-56487752D02*
X97014285Y-56487752D01*
X97014285Y-56487752D02*
X97109523Y-56535371D01*
X97585714Y-56487752D02*
X97585714Y-57154419D01*
X97585714Y-56582990D02*
X97633333Y-56535371D01*
X97633333Y-56535371D02*
X97728571Y-56487752D01*
X97728571Y-56487752D02*
X97871428Y-56487752D01*
X97871428Y-56487752D02*
X97966666Y-56535371D01*
X97966666Y-56535371D02*
X98014285Y-56630609D01*
X98014285Y-56630609D02*
X98014285Y-57154419D01*
X98919047Y-57154419D02*
X98919047Y-56154419D01*
X98919047Y-57106800D02*
X98823809Y-57154419D01*
X98823809Y-57154419D02*
X98633333Y-57154419D01*
X98633333Y-57154419D02*
X98538095Y-57106800D01*
X98538095Y-57106800D02*
X98490476Y-57059180D01*
X98490476Y-57059180D02*
X98442857Y-56963942D01*
X98442857Y-56963942D02*
X98442857Y-56678228D01*
X98442857Y-56678228D02*
X98490476Y-56582990D01*
X98490476Y-56582990D02*
X98538095Y-56535371D01*
X98538095Y-56535371D02*
X98633333Y-56487752D01*
X98633333Y-56487752D02*
X98823809Y-56487752D01*
X98823809Y-56487752D02*
X98919047Y-56535371D01*
X140289523Y-64615752D02*
X140289523Y-65425276D01*
X140289523Y-65425276D02*
X140241904Y-65520514D01*
X140241904Y-65520514D02*
X140194285Y-65568133D01*
X140194285Y-65568133D02*
X140099047Y-65615752D01*
X140099047Y-65615752D02*
X139956190Y-65615752D01*
X139956190Y-65615752D02*
X139860952Y-65568133D01*
X140289523Y-65234800D02*
X140194285Y-65282419D01*
X140194285Y-65282419D02*
X140003809Y-65282419D01*
X140003809Y-65282419D02*
X139908571Y-65234800D01*
X139908571Y-65234800D02*
X139860952Y-65187180D01*
X139860952Y-65187180D02*
X139813333Y-65091942D01*
X139813333Y-65091942D02*
X139813333Y-64806228D01*
X139813333Y-64806228D02*
X139860952Y-64710990D01*
X139860952Y-64710990D02*
X139908571Y-64663371D01*
X139908571Y-64663371D02*
X140003809Y-64615752D01*
X140003809Y-64615752D02*
X140194285Y-64615752D01*
X140194285Y-64615752D02*
X140289523Y-64663371D01*
X140765714Y-64615752D02*
X140765714Y-65282419D01*
X140765714Y-64710990D02*
X140813333Y-64663371D01*
X140813333Y-64663371D02*
X140908571Y-64615752D01*
X140908571Y-64615752D02*
X141051428Y-64615752D01*
X141051428Y-64615752D02*
X141146666Y-64663371D01*
X141146666Y-64663371D02*
X141194285Y-64758609D01*
X141194285Y-64758609D02*
X141194285Y-65282419D01*
X142099047Y-65282419D02*
X142099047Y-64282419D01*
X142099047Y-65234800D02*
X142003809Y-65282419D01*
X142003809Y-65282419D02*
X141813333Y-65282419D01*
X141813333Y-65282419D02*
X141718095Y-65234800D01*
X141718095Y-65234800D02*
X141670476Y-65187180D01*
X141670476Y-65187180D02*
X141622857Y-65091942D01*
X141622857Y-65091942D02*
X141622857Y-64806228D01*
X141622857Y-64806228D02*
X141670476Y-64710990D01*
X141670476Y-64710990D02*
X141718095Y-64663371D01*
X141718095Y-64663371D02*
X141813333Y-64615752D01*
X141813333Y-64615752D02*
X142003809Y-64615752D01*
X142003809Y-64615752D02*
X142099047Y-64663371D01*
X104729523Y-64107752D02*
X104729523Y-64917276D01*
X104729523Y-64917276D02*
X104681904Y-65012514D01*
X104681904Y-65012514D02*
X104634285Y-65060133D01*
X104634285Y-65060133D02*
X104539047Y-65107752D01*
X104539047Y-65107752D02*
X104396190Y-65107752D01*
X104396190Y-65107752D02*
X104300952Y-65060133D01*
X104729523Y-64726800D02*
X104634285Y-64774419D01*
X104634285Y-64774419D02*
X104443809Y-64774419D01*
X104443809Y-64774419D02*
X104348571Y-64726800D01*
X104348571Y-64726800D02*
X104300952Y-64679180D01*
X104300952Y-64679180D02*
X104253333Y-64583942D01*
X104253333Y-64583942D02*
X104253333Y-64298228D01*
X104253333Y-64298228D02*
X104300952Y-64202990D01*
X104300952Y-64202990D02*
X104348571Y-64155371D01*
X104348571Y-64155371D02*
X104443809Y-64107752D01*
X104443809Y-64107752D02*
X104634285Y-64107752D01*
X104634285Y-64107752D02*
X104729523Y-64155371D01*
X105205714Y-64107752D02*
X105205714Y-64774419D01*
X105205714Y-64202990D02*
X105253333Y-64155371D01*
X105253333Y-64155371D02*
X105348571Y-64107752D01*
X105348571Y-64107752D02*
X105491428Y-64107752D01*
X105491428Y-64107752D02*
X105586666Y-64155371D01*
X105586666Y-64155371D02*
X105634285Y-64250609D01*
X105634285Y-64250609D02*
X105634285Y-64774419D01*
X106539047Y-64774419D02*
X106539047Y-63774419D01*
X106539047Y-64726800D02*
X106443809Y-64774419D01*
X106443809Y-64774419D02*
X106253333Y-64774419D01*
X106253333Y-64774419D02*
X106158095Y-64726800D01*
X106158095Y-64726800D02*
X106110476Y-64679180D01*
X106110476Y-64679180D02*
X106062857Y-64583942D01*
X106062857Y-64583942D02*
X106062857Y-64298228D01*
X106062857Y-64298228D02*
X106110476Y-64202990D01*
X106110476Y-64202990D02*
X106158095Y-64155371D01*
X106158095Y-64155371D02*
X106253333Y-64107752D01*
X106253333Y-64107752D02*
X106443809Y-64107752D01*
X106443809Y-64107752D02*
X106539047Y-64155371D01*
X127589523Y-64107752D02*
X127589523Y-64917276D01*
X127589523Y-64917276D02*
X127541904Y-65012514D01*
X127541904Y-65012514D02*
X127494285Y-65060133D01*
X127494285Y-65060133D02*
X127399047Y-65107752D01*
X127399047Y-65107752D02*
X127256190Y-65107752D01*
X127256190Y-65107752D02*
X127160952Y-65060133D01*
X127589523Y-64726800D02*
X127494285Y-64774419D01*
X127494285Y-64774419D02*
X127303809Y-64774419D01*
X127303809Y-64774419D02*
X127208571Y-64726800D01*
X127208571Y-64726800D02*
X127160952Y-64679180D01*
X127160952Y-64679180D02*
X127113333Y-64583942D01*
X127113333Y-64583942D02*
X127113333Y-64298228D01*
X127113333Y-64298228D02*
X127160952Y-64202990D01*
X127160952Y-64202990D02*
X127208571Y-64155371D01*
X127208571Y-64155371D02*
X127303809Y-64107752D01*
X127303809Y-64107752D02*
X127494285Y-64107752D01*
X127494285Y-64107752D02*
X127589523Y-64155371D01*
X128065714Y-64107752D02*
X128065714Y-64774419D01*
X128065714Y-64202990D02*
X128113333Y-64155371D01*
X128113333Y-64155371D02*
X128208571Y-64107752D01*
X128208571Y-64107752D02*
X128351428Y-64107752D01*
X128351428Y-64107752D02*
X128446666Y-64155371D01*
X128446666Y-64155371D02*
X128494285Y-64250609D01*
X128494285Y-64250609D02*
X128494285Y-64774419D01*
X129399047Y-64774419D02*
X129399047Y-63774419D01*
X129399047Y-64726800D02*
X129303809Y-64774419D01*
X129303809Y-64774419D02*
X129113333Y-64774419D01*
X129113333Y-64774419D02*
X129018095Y-64726800D01*
X129018095Y-64726800D02*
X128970476Y-64679180D01*
X128970476Y-64679180D02*
X128922857Y-64583942D01*
X128922857Y-64583942D02*
X128922857Y-64298228D01*
X128922857Y-64298228D02*
X128970476Y-64202990D01*
X128970476Y-64202990D02*
X129018095Y-64155371D01*
X129018095Y-64155371D02*
X129113333Y-64107752D01*
X129113333Y-64107752D02*
X129303809Y-64107752D01*
X129303809Y-64107752D02*
X129399047Y-64155371D01*
X139694286Y-72521466D02*
X140456191Y-72521466D01*
X140075238Y-72902419D02*
X140075238Y-72140514D01*
X141408571Y-71902419D02*
X140932381Y-71902419D01*
X140932381Y-71902419D02*
X140884762Y-72378609D01*
X140884762Y-72378609D02*
X140932381Y-72330990D01*
X140932381Y-72330990D02*
X141027619Y-72283371D01*
X141027619Y-72283371D02*
X141265714Y-72283371D01*
X141265714Y-72283371D02*
X141360952Y-72330990D01*
X141360952Y-72330990D02*
X141408571Y-72378609D01*
X141408571Y-72378609D02*
X141456190Y-72473847D01*
X141456190Y-72473847D02*
X141456190Y-72711942D01*
X141456190Y-72711942D02*
X141408571Y-72807180D01*
X141408571Y-72807180D02*
X141360952Y-72854800D01*
X141360952Y-72854800D02*
X141265714Y-72902419D01*
X141265714Y-72902419D02*
X141027619Y-72902419D01*
X141027619Y-72902419D02*
X140932381Y-72854800D01*
X140932381Y-72854800D02*
X140884762Y-72807180D01*
X141741905Y-71902419D02*
X142075238Y-72902419D01*
X142075238Y-72902419D02*
X142408571Y-71902419D01*
X88259286Y-51566466D02*
X89021191Y-51566466D01*
X88640238Y-51947419D02*
X88640238Y-51185514D01*
X89973571Y-50947419D02*
X89497381Y-50947419D01*
X89497381Y-50947419D02*
X89449762Y-51423609D01*
X89449762Y-51423609D02*
X89497381Y-51375990D01*
X89497381Y-51375990D02*
X89592619Y-51328371D01*
X89592619Y-51328371D02*
X89830714Y-51328371D01*
X89830714Y-51328371D02*
X89925952Y-51375990D01*
X89925952Y-51375990D02*
X89973571Y-51423609D01*
X89973571Y-51423609D02*
X90021190Y-51518847D01*
X90021190Y-51518847D02*
X90021190Y-51756942D01*
X90021190Y-51756942D02*
X89973571Y-51852180D01*
X89973571Y-51852180D02*
X89925952Y-51899800D01*
X89925952Y-51899800D02*
X89830714Y-51947419D01*
X89830714Y-51947419D02*
X89592619Y-51947419D01*
X89592619Y-51947419D02*
X89497381Y-51899800D01*
X89497381Y-51899800D02*
X89449762Y-51852180D01*
X90306905Y-50947419D02*
X90640238Y-51947419D01*
X90640238Y-51947419D02*
X90973571Y-50947419D01*
X86352306Y-45216466D02*
X87114211Y-45216466D01*
X86733258Y-45597419D02*
X86733258Y-44835514D01*
X87495163Y-44597419D02*
X88114210Y-44597419D01*
X88114210Y-44597419D02*
X87780877Y-44978371D01*
X87780877Y-44978371D02*
X87923734Y-44978371D01*
X87923734Y-44978371D02*
X88018972Y-45025990D01*
X88018972Y-45025990D02*
X88066591Y-45073609D01*
X88066591Y-45073609D02*
X88114210Y-45168847D01*
X88114210Y-45168847D02*
X88114210Y-45406942D01*
X88114210Y-45406942D02*
X88066591Y-45502180D01*
X88066591Y-45502180D02*
X88018972Y-45549800D01*
X88018972Y-45549800D02*
X87923734Y-45597419D01*
X87923734Y-45597419D02*
X87638020Y-45597419D01*
X87638020Y-45597419D02*
X87542782Y-45549800D01*
X87542782Y-45549800D02*
X87495163Y-45502180D01*
X88399925Y-44597419D02*
X88733258Y-45597419D01*
X88733258Y-45597419D02*
X89066591Y-44597419D01*
X89304687Y-44597419D02*
X89923734Y-44597419D01*
X89923734Y-44597419D02*
X89590401Y-44978371D01*
X89590401Y-44978371D02*
X89733258Y-44978371D01*
X89733258Y-44978371D02*
X89828496Y-45025990D01*
X89828496Y-45025990D02*
X89876115Y-45073609D01*
X89876115Y-45073609D02*
X89923734Y-45168847D01*
X89923734Y-45168847D02*
X89923734Y-45406942D01*
X89923734Y-45406942D02*
X89876115Y-45502180D01*
X89876115Y-45502180D02*
X89828496Y-45549800D01*
X89828496Y-45549800D02*
X89733258Y-45597419D01*
X89733258Y-45597419D02*
X89447544Y-45597419D01*
X89447544Y-45597419D02*
X89352306Y-45549800D01*
X89352306Y-45549800D02*
X89304687Y-45502180D01*
X96474523Y-41120752D02*
X96474523Y-41930276D01*
X96474523Y-41930276D02*
X96426904Y-42025514D01*
X96426904Y-42025514D02*
X96379285Y-42073133D01*
X96379285Y-42073133D02*
X96284047Y-42120752D01*
X96284047Y-42120752D02*
X96141190Y-42120752D01*
X96141190Y-42120752D02*
X96045952Y-42073133D01*
X96474523Y-41739800D02*
X96379285Y-41787419D01*
X96379285Y-41787419D02*
X96188809Y-41787419D01*
X96188809Y-41787419D02*
X96093571Y-41739800D01*
X96093571Y-41739800D02*
X96045952Y-41692180D01*
X96045952Y-41692180D02*
X95998333Y-41596942D01*
X95998333Y-41596942D02*
X95998333Y-41311228D01*
X95998333Y-41311228D02*
X96045952Y-41215990D01*
X96045952Y-41215990D02*
X96093571Y-41168371D01*
X96093571Y-41168371D02*
X96188809Y-41120752D01*
X96188809Y-41120752D02*
X96379285Y-41120752D01*
X96379285Y-41120752D02*
X96474523Y-41168371D01*
X96950714Y-41120752D02*
X96950714Y-41787419D01*
X96950714Y-41215990D02*
X96998333Y-41168371D01*
X96998333Y-41168371D02*
X97093571Y-41120752D01*
X97093571Y-41120752D02*
X97236428Y-41120752D01*
X97236428Y-41120752D02*
X97331666Y-41168371D01*
X97331666Y-41168371D02*
X97379285Y-41263609D01*
X97379285Y-41263609D02*
X97379285Y-41787419D01*
X98284047Y-41787419D02*
X98284047Y-40787419D01*
X98284047Y-41739800D02*
X98188809Y-41787419D01*
X98188809Y-41787419D02*
X97998333Y-41787419D01*
X97998333Y-41787419D02*
X97903095Y-41739800D01*
X97903095Y-41739800D02*
X97855476Y-41692180D01*
X97855476Y-41692180D02*
X97807857Y-41596942D01*
X97807857Y-41596942D02*
X97807857Y-41311228D01*
X97807857Y-41311228D02*
X97855476Y-41215990D01*
X97855476Y-41215990D02*
X97903095Y-41168371D01*
X97903095Y-41168371D02*
X97998333Y-41120752D01*
X97998333Y-41120752D02*
X98188809Y-41120752D01*
X98188809Y-41120752D02*
X98284047Y-41168371D01*
X129534286Y-57281466D02*
X130296191Y-57281466D01*
X129915238Y-57662419D02*
X129915238Y-56900514D01*
X131248571Y-56662419D02*
X130772381Y-56662419D01*
X130772381Y-56662419D02*
X130724762Y-57138609D01*
X130724762Y-57138609D02*
X130772381Y-57090990D01*
X130772381Y-57090990D02*
X130867619Y-57043371D01*
X130867619Y-57043371D02*
X131105714Y-57043371D01*
X131105714Y-57043371D02*
X131200952Y-57090990D01*
X131200952Y-57090990D02*
X131248571Y-57138609D01*
X131248571Y-57138609D02*
X131296190Y-57233847D01*
X131296190Y-57233847D02*
X131296190Y-57471942D01*
X131296190Y-57471942D02*
X131248571Y-57567180D01*
X131248571Y-57567180D02*
X131200952Y-57614800D01*
X131200952Y-57614800D02*
X131105714Y-57662419D01*
X131105714Y-57662419D02*
X130867619Y-57662419D01*
X130867619Y-57662419D02*
X130772381Y-57614800D01*
X130772381Y-57614800D02*
X130724762Y-57567180D01*
X131581905Y-56662419D02*
X131915238Y-57662419D01*
X131915238Y-57662419D02*
X132248571Y-56662419D01*
X139694286Y-49661466D02*
X140456191Y-49661466D01*
X140075238Y-50042419D02*
X140075238Y-49280514D01*
X141408571Y-49042419D02*
X140932381Y-49042419D01*
X140932381Y-49042419D02*
X140884762Y-49518609D01*
X140884762Y-49518609D02*
X140932381Y-49470990D01*
X140932381Y-49470990D02*
X141027619Y-49423371D01*
X141027619Y-49423371D02*
X141265714Y-49423371D01*
X141265714Y-49423371D02*
X141360952Y-49470990D01*
X141360952Y-49470990D02*
X141408571Y-49518609D01*
X141408571Y-49518609D02*
X141456190Y-49613847D01*
X141456190Y-49613847D02*
X141456190Y-49851942D01*
X141456190Y-49851942D02*
X141408571Y-49947180D01*
X141408571Y-49947180D02*
X141360952Y-49994800D01*
X141360952Y-49994800D02*
X141265714Y-50042419D01*
X141265714Y-50042419D02*
X141027619Y-50042419D01*
X141027619Y-50042419D02*
X140932381Y-49994800D01*
X140932381Y-49994800D02*
X140884762Y-49947180D01*
X141741905Y-49042419D02*
X142075238Y-50042419D01*
X142075238Y-50042419D02*
X142408571Y-49042419D01*
X140289523Y-41755752D02*
X140289523Y-42565276D01*
X140289523Y-42565276D02*
X140241904Y-42660514D01*
X140241904Y-42660514D02*
X140194285Y-42708133D01*
X140194285Y-42708133D02*
X140099047Y-42755752D01*
X140099047Y-42755752D02*
X139956190Y-42755752D01*
X139956190Y-42755752D02*
X139860952Y-42708133D01*
X140289523Y-42374800D02*
X140194285Y-42422419D01*
X140194285Y-42422419D02*
X140003809Y-42422419D01*
X140003809Y-42422419D02*
X139908571Y-42374800D01*
X139908571Y-42374800D02*
X139860952Y-42327180D01*
X139860952Y-42327180D02*
X139813333Y-42231942D01*
X139813333Y-42231942D02*
X139813333Y-41946228D01*
X139813333Y-41946228D02*
X139860952Y-41850990D01*
X139860952Y-41850990D02*
X139908571Y-41803371D01*
X139908571Y-41803371D02*
X140003809Y-41755752D01*
X140003809Y-41755752D02*
X140194285Y-41755752D01*
X140194285Y-41755752D02*
X140289523Y-41803371D01*
X140765714Y-41755752D02*
X140765714Y-42422419D01*
X140765714Y-41850990D02*
X140813333Y-41803371D01*
X140813333Y-41803371D02*
X140908571Y-41755752D01*
X140908571Y-41755752D02*
X141051428Y-41755752D01*
X141051428Y-41755752D02*
X141146666Y-41803371D01*
X141146666Y-41803371D02*
X141194285Y-41898609D01*
X141194285Y-41898609D02*
X141194285Y-42422419D01*
X142099047Y-42422419D02*
X142099047Y-41422419D01*
X142099047Y-42374800D02*
X142003809Y-42422419D01*
X142003809Y-42422419D02*
X141813333Y-42422419D01*
X141813333Y-42422419D02*
X141718095Y-42374800D01*
X141718095Y-42374800D02*
X141670476Y-42327180D01*
X141670476Y-42327180D02*
X141622857Y-42231942D01*
X141622857Y-42231942D02*
X141622857Y-41946228D01*
X141622857Y-41946228D02*
X141670476Y-41850990D01*
X141670476Y-41850990D02*
X141718095Y-41803371D01*
X141718095Y-41803371D02*
X141813333Y-41755752D01*
X141813333Y-41755752D02*
X142003809Y-41755752D01*
X142003809Y-41755752D02*
X142099047Y-41803371D01*
X80798095Y-60696466D02*
X81560000Y-60696466D01*
X81179047Y-61077419D02*
X81179047Y-60315514D01*
X81940952Y-60077419D02*
X82559999Y-60077419D01*
X82559999Y-60077419D02*
X82226666Y-60458371D01*
X82226666Y-60458371D02*
X82369523Y-60458371D01*
X82369523Y-60458371D02*
X82464761Y-60505990D01*
X82464761Y-60505990D02*
X82512380Y-60553609D01*
X82512380Y-60553609D02*
X82559999Y-60648847D01*
X82559999Y-60648847D02*
X82559999Y-60886942D01*
X82559999Y-60886942D02*
X82512380Y-60982180D01*
X82512380Y-60982180D02*
X82464761Y-61029800D01*
X82464761Y-61029800D02*
X82369523Y-61077419D01*
X82369523Y-61077419D02*
X82083809Y-61077419D01*
X82083809Y-61077419D02*
X81988571Y-61029800D01*
X81988571Y-61029800D02*
X81940952Y-60982180D01*
X82845714Y-60077419D02*
X83179047Y-61077419D01*
X83179047Y-61077419D02*
X83512380Y-60077419D01*
X83750476Y-60077419D02*
X84369523Y-60077419D01*
X84369523Y-60077419D02*
X84036190Y-60458371D01*
X84036190Y-60458371D02*
X84179047Y-60458371D01*
X84179047Y-60458371D02*
X84274285Y-60505990D01*
X84274285Y-60505990D02*
X84321904Y-60553609D01*
X84321904Y-60553609D02*
X84369523Y-60648847D01*
X84369523Y-60648847D02*
X84369523Y-60886942D01*
X84369523Y-60886942D02*
X84321904Y-60982180D01*
X84321904Y-60982180D02*
X84274285Y-61029800D01*
X84274285Y-61029800D02*
X84179047Y-61077419D01*
X84179047Y-61077419D02*
X83893333Y-61077419D01*
X83893333Y-61077419D02*
X83798095Y-61029800D01*
X83798095Y-61029800D02*
X83750476Y-60982180D01*
X152394286Y-60771466D02*
X153156191Y-60771466D01*
X152775238Y-61152419D02*
X152775238Y-60390514D01*
X154108571Y-60152419D02*
X153632381Y-60152419D01*
X153632381Y-60152419D02*
X153584762Y-60628609D01*
X153584762Y-60628609D02*
X153632381Y-60580990D01*
X153632381Y-60580990D02*
X153727619Y-60533371D01*
X153727619Y-60533371D02*
X153965714Y-60533371D01*
X153965714Y-60533371D02*
X154060952Y-60580990D01*
X154060952Y-60580990D02*
X154108571Y-60628609D01*
X154108571Y-60628609D02*
X154156190Y-60723847D01*
X154156190Y-60723847D02*
X154156190Y-60961942D01*
X154156190Y-60961942D02*
X154108571Y-61057180D01*
X154108571Y-61057180D02*
X154060952Y-61104800D01*
X154060952Y-61104800D02*
X153965714Y-61152419D01*
X153965714Y-61152419D02*
X153727619Y-61152419D01*
X153727619Y-61152419D02*
X153632381Y-61104800D01*
X153632381Y-61104800D02*
X153584762Y-61057180D01*
X154441905Y-60152419D02*
X154775238Y-61152419D01*
X154775238Y-61152419D02*
X155108571Y-60152419D01*
X152918095Y-52265038D02*
X152822857Y-52217419D01*
X152822857Y-52217419D02*
X152680000Y-52217419D01*
X152680000Y-52217419D02*
X152537143Y-52265038D01*
X152537143Y-52265038D02*
X152441905Y-52360276D01*
X152441905Y-52360276D02*
X152394286Y-52455514D01*
X152394286Y-52455514D02*
X152346667Y-52645990D01*
X152346667Y-52645990D02*
X152346667Y-52788847D01*
X152346667Y-52788847D02*
X152394286Y-52979323D01*
X152394286Y-52979323D02*
X152441905Y-53074561D01*
X152441905Y-53074561D02*
X152537143Y-53169800D01*
X152537143Y-53169800D02*
X152680000Y-53217419D01*
X152680000Y-53217419D02*
X152775238Y-53217419D01*
X152775238Y-53217419D02*
X152918095Y-53169800D01*
X152918095Y-53169800D02*
X152965714Y-53122180D01*
X152965714Y-53122180D02*
X152965714Y-52788847D01*
X152965714Y-52788847D02*
X152775238Y-52788847D01*
X153394286Y-53217419D02*
X153394286Y-52217419D01*
X153394286Y-52217419D02*
X153965714Y-53217419D01*
X153965714Y-53217419D02*
X153965714Y-52217419D01*
X154441905Y-53217419D02*
X154441905Y-52217419D01*
X154441905Y-52217419D02*
X154680000Y-52217419D01*
X154680000Y-52217419D02*
X154822857Y-52265038D01*
X154822857Y-52265038D02*
X154918095Y-52360276D01*
X154918095Y-52360276D02*
X154965714Y-52455514D01*
X154965714Y-52455514D02*
X155013333Y-52645990D01*
X155013333Y-52645990D02*
X155013333Y-52788847D01*
X155013333Y-52788847D02*
X154965714Y-52979323D01*
X154965714Y-52979323D02*
X154918095Y-53074561D01*
X154918095Y-53074561D02*
X154822857Y-53169800D01*
X154822857Y-53169800D02*
X154680000Y-53217419D01*
X154680000Y-53217419D02*
X154441905Y-53217419D01*
X152394286Y-43946466D02*
X153156191Y-43946466D01*
X152775238Y-44327419D02*
X152775238Y-43565514D01*
X154108571Y-43327419D02*
X153632381Y-43327419D01*
X153632381Y-43327419D02*
X153584762Y-43803609D01*
X153584762Y-43803609D02*
X153632381Y-43755990D01*
X153632381Y-43755990D02*
X153727619Y-43708371D01*
X153727619Y-43708371D02*
X153965714Y-43708371D01*
X153965714Y-43708371D02*
X154060952Y-43755990D01*
X154060952Y-43755990D02*
X154108571Y-43803609D01*
X154108571Y-43803609D02*
X154156190Y-43898847D01*
X154156190Y-43898847D02*
X154156190Y-44136942D01*
X154156190Y-44136942D02*
X154108571Y-44232180D01*
X154108571Y-44232180D02*
X154060952Y-44279800D01*
X154060952Y-44279800D02*
X153965714Y-44327419D01*
X153965714Y-44327419D02*
X153727619Y-44327419D01*
X153727619Y-44327419D02*
X153632381Y-44279800D01*
X153632381Y-44279800D02*
X153584762Y-44232180D01*
X154441905Y-43327419D02*
X154775238Y-44327419D01*
X154775238Y-44327419D02*
X155108571Y-43327419D01*
D10*
X124303333Y-57514580D02*
X124255714Y-57562200D01*
X124255714Y-57562200D02*
X124112857Y-57609819D01*
X124112857Y-57609819D02*
X124017619Y-57609819D01*
X124017619Y-57609819D02*
X123874762Y-57562200D01*
X123874762Y-57562200D02*
X123779524Y-57466961D01*
X123779524Y-57466961D02*
X123731905Y-57371723D01*
X123731905Y-57371723D02*
X123684286Y-57181247D01*
X123684286Y-57181247D02*
X123684286Y-57038390D01*
X123684286Y-57038390D02*
X123731905Y-56847914D01*
X123731905Y-56847914D02*
X123779524Y-56752676D01*
X123779524Y-56752676D02*
X123874762Y-56657438D01*
X123874762Y-56657438D02*
X124017619Y-56609819D01*
X124017619Y-56609819D02*
X124112857Y-56609819D01*
X124112857Y-56609819D02*
X124255714Y-56657438D01*
X124255714Y-56657438D02*
X124303333Y-56705057D01*
X125160476Y-56943152D02*
X125160476Y-57609819D01*
X124922381Y-56562200D02*
X124684286Y-57276485D01*
X124684286Y-57276485D02*
X125303333Y-57276485D01*
X150338333Y-57887319D02*
X150005000Y-57411128D01*
X149766905Y-57887319D02*
X149766905Y-56887319D01*
X149766905Y-56887319D02*
X150147857Y-56887319D01*
X150147857Y-56887319D02*
X150243095Y-56934938D01*
X150243095Y-56934938D02*
X150290714Y-56982557D01*
X150290714Y-56982557D02*
X150338333Y-57077795D01*
X150338333Y-57077795D02*
X150338333Y-57220652D01*
X150338333Y-57220652D02*
X150290714Y-57315890D01*
X150290714Y-57315890D02*
X150243095Y-57363509D01*
X150243095Y-57363509D02*
X150147857Y-57411128D01*
X150147857Y-57411128D02*
X149766905Y-57411128D01*
X151290714Y-57887319D02*
X150719286Y-57887319D01*
X151005000Y-57887319D02*
X151005000Y-56887319D01*
X151005000Y-56887319D02*
X150909762Y-57030176D01*
X150909762Y-57030176D02*
X150814524Y-57125414D01*
X150814524Y-57125414D02*
X150719286Y-57173033D01*
X78646905Y-57849819D02*
X78646905Y-56849819D01*
X78646905Y-56849819D02*
X78885000Y-56849819D01*
X78885000Y-56849819D02*
X79027857Y-56897438D01*
X79027857Y-56897438D02*
X79123095Y-56992676D01*
X79123095Y-56992676D02*
X79170714Y-57087914D01*
X79170714Y-57087914D02*
X79218333Y-57278390D01*
X79218333Y-57278390D02*
X79218333Y-57421247D01*
X79218333Y-57421247D02*
X79170714Y-57611723D01*
X79170714Y-57611723D02*
X79123095Y-57706961D01*
X79123095Y-57706961D02*
X79027857Y-57802200D01*
X79027857Y-57802200D02*
X78885000Y-57849819D01*
X78885000Y-57849819D02*
X78646905Y-57849819D01*
X79599286Y-56945057D02*
X79646905Y-56897438D01*
X79646905Y-56897438D02*
X79742143Y-56849819D01*
X79742143Y-56849819D02*
X79980238Y-56849819D01*
X79980238Y-56849819D02*
X80075476Y-56897438D01*
X80075476Y-56897438D02*
X80123095Y-56945057D01*
X80123095Y-56945057D02*
X80170714Y-57040295D01*
X80170714Y-57040295D02*
X80170714Y-57135533D01*
X80170714Y-57135533D02*
X80123095Y-57278390D01*
X80123095Y-57278390D02*
X79551667Y-57849819D01*
X79551667Y-57849819D02*
X80170714Y-57849819D01*
X111436666Y-32484819D02*
X111436666Y-33199104D01*
X111436666Y-33199104D02*
X111389047Y-33341961D01*
X111389047Y-33341961D02*
X111293809Y-33437200D01*
X111293809Y-33437200D02*
X111150952Y-33484819D01*
X111150952Y-33484819D02*
X111055714Y-33484819D01*
X111865238Y-32580057D02*
X111912857Y-32532438D01*
X111912857Y-32532438D02*
X112008095Y-32484819D01*
X112008095Y-32484819D02*
X112246190Y-32484819D01*
X112246190Y-32484819D02*
X112341428Y-32532438D01*
X112341428Y-32532438D02*
X112389047Y-32580057D01*
X112389047Y-32580057D02*
X112436666Y-32675295D01*
X112436666Y-32675295D02*
X112436666Y-32770533D01*
X112436666Y-32770533D02*
X112389047Y-32913390D01*
X112389047Y-32913390D02*
X111817619Y-33484819D01*
X111817619Y-33484819D02*
X112436666Y-33484819D01*
X88576666Y-32484819D02*
X88576666Y-33199104D01*
X88576666Y-33199104D02*
X88529047Y-33341961D01*
X88529047Y-33341961D02*
X88433809Y-33437200D01*
X88433809Y-33437200D02*
X88290952Y-33484819D01*
X88290952Y-33484819D02*
X88195714Y-33484819D01*
X89576666Y-33484819D02*
X89005238Y-33484819D01*
X89290952Y-33484819D02*
X89290952Y-32484819D01*
X89290952Y-32484819D02*
X89195714Y-32627676D01*
X89195714Y-32627676D02*
X89100476Y-32722914D01*
X89100476Y-32722914D02*
X89005238Y-32770533D01*
X143988333Y-42909580D02*
X143940714Y-42957200D01*
X143940714Y-42957200D02*
X143797857Y-43004819D01*
X143797857Y-43004819D02*
X143702619Y-43004819D01*
X143702619Y-43004819D02*
X143559762Y-42957200D01*
X143559762Y-42957200D02*
X143464524Y-42861961D01*
X143464524Y-42861961D02*
X143416905Y-42766723D01*
X143416905Y-42766723D02*
X143369286Y-42576247D01*
X143369286Y-42576247D02*
X143369286Y-42433390D01*
X143369286Y-42433390D02*
X143416905Y-42242914D01*
X143416905Y-42242914D02*
X143464524Y-42147676D01*
X143464524Y-42147676D02*
X143559762Y-42052438D01*
X143559762Y-42052438D02*
X143702619Y-42004819D01*
X143702619Y-42004819D02*
X143797857Y-42004819D01*
X143797857Y-42004819D02*
X143940714Y-42052438D01*
X143940714Y-42052438D02*
X143988333Y-42100057D01*
X144369286Y-42100057D02*
X144416905Y-42052438D01*
X144416905Y-42052438D02*
X144512143Y-42004819D01*
X144512143Y-42004819D02*
X144750238Y-42004819D01*
X144750238Y-42004819D02*
X144845476Y-42052438D01*
X144845476Y-42052438D02*
X144893095Y-42100057D01*
X144893095Y-42100057D02*
X144940714Y-42195295D01*
X144940714Y-42195295D02*
X144940714Y-42290533D01*
X144940714Y-42290533D02*
X144893095Y-42433390D01*
X144893095Y-42433390D02*
X144321667Y-43004819D01*
X144321667Y-43004819D02*
X144940714Y-43004819D01*
X144471666Y-60424819D02*
X144471666Y-61139104D01*
X144471666Y-61139104D02*
X144424047Y-61281961D01*
X144424047Y-61281961D02*
X144328809Y-61377200D01*
X144328809Y-61377200D02*
X144185952Y-61424819D01*
X144185952Y-61424819D02*
X144090714Y-61424819D01*
X144995476Y-61424819D02*
X145185952Y-61424819D01*
X145185952Y-61424819D02*
X145281190Y-61377200D01*
X145281190Y-61377200D02*
X145328809Y-61329580D01*
X145328809Y-61329580D02*
X145424047Y-61186723D01*
X145424047Y-61186723D02*
X145471666Y-60996247D01*
X145471666Y-60996247D02*
X145471666Y-60615295D01*
X145471666Y-60615295D02*
X145424047Y-60520057D01*
X145424047Y-60520057D02*
X145376428Y-60472438D01*
X145376428Y-60472438D02*
X145281190Y-60424819D01*
X145281190Y-60424819D02*
X145090714Y-60424819D01*
X145090714Y-60424819D02*
X144995476Y-60472438D01*
X144995476Y-60472438D02*
X144947857Y-60520057D01*
X144947857Y-60520057D02*
X144900238Y-60615295D01*
X144900238Y-60615295D02*
X144900238Y-60853390D01*
X144900238Y-60853390D02*
X144947857Y-60948628D01*
X144947857Y-60948628D02*
X144995476Y-60996247D01*
X144995476Y-60996247D02*
X145090714Y-61043866D01*
X145090714Y-61043866D02*
X145281190Y-61043866D01*
X145281190Y-61043866D02*
X145376428Y-60996247D01*
X145376428Y-60996247D02*
X145424047Y-60948628D01*
X145424047Y-60948628D02*
X145471666Y-60853390D01*
X136836666Y-41369819D02*
X136836666Y-42084104D01*
X136836666Y-42084104D02*
X136789047Y-42226961D01*
X136789047Y-42226961D02*
X136693809Y-42322200D01*
X136693809Y-42322200D02*
X136550952Y-42369819D01*
X136550952Y-42369819D02*
X136455714Y-42369819D01*
X137741428Y-41369819D02*
X137550952Y-41369819D01*
X137550952Y-41369819D02*
X137455714Y-41417438D01*
X137455714Y-41417438D02*
X137408095Y-41465057D01*
X137408095Y-41465057D02*
X137312857Y-41607914D01*
X137312857Y-41607914D02*
X137265238Y-41798390D01*
X137265238Y-41798390D02*
X137265238Y-42179342D01*
X137265238Y-42179342D02*
X137312857Y-42274580D01*
X137312857Y-42274580D02*
X137360476Y-42322200D01*
X137360476Y-42322200D02*
X137455714Y-42369819D01*
X137455714Y-42369819D02*
X137646190Y-42369819D01*
X137646190Y-42369819D02*
X137741428Y-42322200D01*
X137741428Y-42322200D02*
X137789047Y-42274580D01*
X137789047Y-42274580D02*
X137836666Y-42179342D01*
X137836666Y-42179342D02*
X137836666Y-41941247D01*
X137836666Y-41941247D02*
X137789047Y-41846009D01*
X137789047Y-41846009D02*
X137741428Y-41798390D01*
X137741428Y-41798390D02*
X137646190Y-41750771D01*
X137646190Y-41750771D02*
X137455714Y-41750771D01*
X137455714Y-41750771D02*
X137360476Y-41798390D01*
X137360476Y-41798390D02*
X137312857Y-41846009D01*
X137312857Y-41846009D02*
X137265238Y-41941247D01*
X147798333Y-48624580D02*
X147750714Y-48672200D01*
X147750714Y-48672200D02*
X147607857Y-48719819D01*
X147607857Y-48719819D02*
X147512619Y-48719819D01*
X147512619Y-48719819D02*
X147369762Y-48672200D01*
X147369762Y-48672200D02*
X147274524Y-48576961D01*
X147274524Y-48576961D02*
X147226905Y-48481723D01*
X147226905Y-48481723D02*
X147179286Y-48291247D01*
X147179286Y-48291247D02*
X147179286Y-48148390D01*
X147179286Y-48148390D02*
X147226905Y-47957914D01*
X147226905Y-47957914D02*
X147274524Y-47862676D01*
X147274524Y-47862676D02*
X147369762Y-47767438D01*
X147369762Y-47767438D02*
X147512619Y-47719819D01*
X147512619Y-47719819D02*
X147607857Y-47719819D01*
X147607857Y-47719819D02*
X147750714Y-47767438D01*
X147750714Y-47767438D02*
X147798333Y-47815057D01*
X148750714Y-48719819D02*
X148179286Y-48719819D01*
X148465000Y-48719819D02*
X148465000Y-47719819D01*
X148465000Y-47719819D02*
X148369762Y-47862676D01*
X148369762Y-47862676D02*
X148274524Y-47957914D01*
X148274524Y-47957914D02*
X148179286Y-48005533D01*
X86838333Y-57849819D02*
X86505000Y-57373628D01*
X86266905Y-57849819D02*
X86266905Y-56849819D01*
X86266905Y-56849819D02*
X86647857Y-56849819D01*
X86647857Y-56849819D02*
X86743095Y-56897438D01*
X86743095Y-56897438D02*
X86790714Y-56945057D01*
X86790714Y-56945057D02*
X86838333Y-57040295D01*
X86838333Y-57040295D02*
X86838333Y-57183152D01*
X86838333Y-57183152D02*
X86790714Y-57278390D01*
X86790714Y-57278390D02*
X86743095Y-57326009D01*
X86743095Y-57326009D02*
X86647857Y-57373628D01*
X86647857Y-57373628D02*
X86266905Y-57373628D01*
X87219286Y-56945057D02*
X87266905Y-56897438D01*
X87266905Y-56897438D02*
X87362143Y-56849819D01*
X87362143Y-56849819D02*
X87600238Y-56849819D01*
X87600238Y-56849819D02*
X87695476Y-56897438D01*
X87695476Y-56897438D02*
X87743095Y-56945057D01*
X87743095Y-56945057D02*
X87790714Y-57040295D01*
X87790714Y-57040295D02*
X87790714Y-57135533D01*
X87790714Y-57135533D02*
X87743095Y-57278390D01*
X87743095Y-57278390D02*
X87171667Y-57849819D01*
X87171667Y-57849819D02*
X87790714Y-57849819D01*
X157156666Y-32484819D02*
X157156666Y-33199104D01*
X157156666Y-33199104D02*
X157109047Y-33341961D01*
X157109047Y-33341961D02*
X157013809Y-33437200D01*
X157013809Y-33437200D02*
X156870952Y-33484819D01*
X156870952Y-33484819D02*
X156775714Y-33484819D01*
X158061428Y-32818152D02*
X158061428Y-33484819D01*
X157823333Y-32437200D02*
X157585238Y-33151485D01*
X157585238Y-33151485D02*
X158204285Y-33151485D01*
X91918333Y-56244580D02*
X91870714Y-56292200D01*
X91870714Y-56292200D02*
X91727857Y-56339819D01*
X91727857Y-56339819D02*
X91632619Y-56339819D01*
X91632619Y-56339819D02*
X91489762Y-56292200D01*
X91489762Y-56292200D02*
X91394524Y-56196961D01*
X91394524Y-56196961D02*
X91346905Y-56101723D01*
X91346905Y-56101723D02*
X91299286Y-55911247D01*
X91299286Y-55911247D02*
X91299286Y-55768390D01*
X91299286Y-55768390D02*
X91346905Y-55577914D01*
X91346905Y-55577914D02*
X91394524Y-55482676D01*
X91394524Y-55482676D02*
X91489762Y-55387438D01*
X91489762Y-55387438D02*
X91632619Y-55339819D01*
X91632619Y-55339819D02*
X91727857Y-55339819D01*
X91727857Y-55339819D02*
X91870714Y-55387438D01*
X91870714Y-55387438D02*
X91918333Y-55435057D01*
X92251667Y-55339819D02*
X92870714Y-55339819D01*
X92870714Y-55339819D02*
X92537381Y-55720771D01*
X92537381Y-55720771D02*
X92680238Y-55720771D01*
X92680238Y-55720771D02*
X92775476Y-55768390D01*
X92775476Y-55768390D02*
X92823095Y-55816009D01*
X92823095Y-55816009D02*
X92870714Y-55911247D01*
X92870714Y-55911247D02*
X92870714Y-56149342D01*
X92870714Y-56149342D02*
X92823095Y-56244580D01*
X92823095Y-56244580D02*
X92775476Y-56292200D01*
X92775476Y-56292200D02*
X92680238Y-56339819D01*
X92680238Y-56339819D02*
X92394524Y-56339819D01*
X92394524Y-56339819D02*
X92299286Y-56292200D01*
X92299286Y-56292200D02*
X92251667Y-56244580D01*
X93415833Y-40209580D02*
X93368214Y-40257200D01*
X93368214Y-40257200D02*
X93225357Y-40304819D01*
X93225357Y-40304819D02*
X93130119Y-40304819D01*
X93130119Y-40304819D02*
X92987262Y-40257200D01*
X92987262Y-40257200D02*
X92892024Y-40161961D01*
X92892024Y-40161961D02*
X92844405Y-40066723D01*
X92844405Y-40066723D02*
X92796786Y-39876247D01*
X92796786Y-39876247D02*
X92796786Y-39733390D01*
X92796786Y-39733390D02*
X92844405Y-39542914D01*
X92844405Y-39542914D02*
X92892024Y-39447676D01*
X92892024Y-39447676D02*
X92987262Y-39352438D01*
X92987262Y-39352438D02*
X93130119Y-39304819D01*
X93130119Y-39304819D02*
X93225357Y-39304819D01*
X93225357Y-39304819D02*
X93368214Y-39352438D01*
X93368214Y-39352438D02*
X93415833Y-39400057D01*
X94272976Y-39304819D02*
X94082500Y-39304819D01*
X94082500Y-39304819D02*
X93987262Y-39352438D01*
X93987262Y-39352438D02*
X93939643Y-39400057D01*
X93939643Y-39400057D02*
X93844405Y-39542914D01*
X93844405Y-39542914D02*
X93796786Y-39733390D01*
X93796786Y-39733390D02*
X93796786Y-40114342D01*
X93796786Y-40114342D02*
X93844405Y-40209580D01*
X93844405Y-40209580D02*
X93892024Y-40257200D01*
X93892024Y-40257200D02*
X93987262Y-40304819D01*
X93987262Y-40304819D02*
X94177738Y-40304819D01*
X94177738Y-40304819D02*
X94272976Y-40257200D01*
X94272976Y-40257200D02*
X94320595Y-40209580D01*
X94320595Y-40209580D02*
X94368214Y-40114342D01*
X94368214Y-40114342D02*
X94368214Y-39876247D01*
X94368214Y-39876247D02*
X94320595Y-39781009D01*
X94320595Y-39781009D02*
X94272976Y-39733390D01*
X94272976Y-39733390D02*
X94177738Y-39685771D01*
X94177738Y-39685771D02*
X93987262Y-39685771D01*
X93987262Y-39685771D02*
X93892024Y-39733390D01*
X93892024Y-39733390D02*
X93844405Y-39781009D01*
X93844405Y-39781009D02*
X93796786Y-39876247D01*
X156521666Y-47719819D02*
X156521666Y-48434104D01*
X156521666Y-48434104D02*
X156474047Y-48576961D01*
X156474047Y-48576961D02*
X156378809Y-48672200D01*
X156378809Y-48672200D02*
X156235952Y-48719819D01*
X156235952Y-48719819D02*
X156140714Y-48719819D01*
X157474047Y-47719819D02*
X156997857Y-47719819D01*
X156997857Y-47719819D02*
X156950238Y-48196009D01*
X156950238Y-48196009D02*
X156997857Y-48148390D01*
X156997857Y-48148390D02*
X157093095Y-48100771D01*
X157093095Y-48100771D02*
X157331190Y-48100771D01*
X157331190Y-48100771D02*
X157426428Y-48148390D01*
X157426428Y-48148390D02*
X157474047Y-48196009D01*
X157474047Y-48196009D02*
X157521666Y-48291247D01*
X157521666Y-48291247D02*
X157521666Y-48529342D01*
X157521666Y-48529342D02*
X157474047Y-48624580D01*
X157474047Y-48624580D02*
X157426428Y-48672200D01*
X157426428Y-48672200D02*
X157331190Y-48719819D01*
X157331190Y-48719819D02*
X157093095Y-48719819D01*
X157093095Y-48719819D02*
X156997857Y-48672200D01*
X156997857Y-48672200D02*
X156950238Y-48624580D01*
X156511905Y-57924819D02*
X156511905Y-56924819D01*
X156511905Y-56924819D02*
X156750000Y-56924819D01*
X156750000Y-56924819D02*
X156892857Y-56972438D01*
X156892857Y-56972438D02*
X156988095Y-57067676D01*
X156988095Y-57067676D02*
X157035714Y-57162914D01*
X157035714Y-57162914D02*
X157083333Y-57353390D01*
X157083333Y-57353390D02*
X157083333Y-57496247D01*
X157083333Y-57496247D02*
X157035714Y-57686723D01*
X157035714Y-57686723D02*
X156988095Y-57781961D01*
X156988095Y-57781961D02*
X156892857Y-57877200D01*
X156892857Y-57877200D02*
X156750000Y-57924819D01*
X156750000Y-57924819D02*
X156511905Y-57924819D01*
X158035714Y-57924819D02*
X157464286Y-57924819D01*
X157750000Y-57924819D02*
X157750000Y-56924819D01*
X157750000Y-56924819D02*
X157654762Y-57067676D01*
X157654762Y-57067676D02*
X157559524Y-57162914D01*
X157559524Y-57162914D02*
X157464286Y-57210533D01*
X134296666Y-32484819D02*
X134296666Y-33199104D01*
X134296666Y-33199104D02*
X134249047Y-33341961D01*
X134249047Y-33341961D02*
X134153809Y-33437200D01*
X134153809Y-33437200D02*
X134010952Y-33484819D01*
X134010952Y-33484819D02*
X133915714Y-33484819D01*
X134677619Y-32484819D02*
X135296666Y-32484819D01*
X135296666Y-32484819D02*
X134963333Y-32865771D01*
X134963333Y-32865771D02*
X135106190Y-32865771D01*
X135106190Y-32865771D02*
X135201428Y-32913390D01*
X135201428Y-32913390D02*
X135249047Y-32961009D01*
X135249047Y-32961009D02*
X135296666Y-33056247D01*
X135296666Y-33056247D02*
X135296666Y-33294342D01*
X135296666Y-33294342D02*
X135249047Y-33389580D01*
X135249047Y-33389580D02*
X135201428Y-33437200D01*
X135201428Y-33437200D02*
X135106190Y-33484819D01*
X135106190Y-33484819D02*
X134820476Y-33484819D01*
X134820476Y-33484819D02*
X134725238Y-33437200D01*
X134725238Y-33437200D02*
X134677619Y-33389580D01*
X143988333Y-66177080D02*
X143940714Y-66224700D01*
X143940714Y-66224700D02*
X143797857Y-66272319D01*
X143797857Y-66272319D02*
X143702619Y-66272319D01*
X143702619Y-66272319D02*
X143559762Y-66224700D01*
X143559762Y-66224700D02*
X143464524Y-66129461D01*
X143464524Y-66129461D02*
X143416905Y-66034223D01*
X143416905Y-66034223D02*
X143369286Y-65843747D01*
X143369286Y-65843747D02*
X143369286Y-65700890D01*
X143369286Y-65700890D02*
X143416905Y-65510414D01*
X143416905Y-65510414D02*
X143464524Y-65415176D01*
X143464524Y-65415176D02*
X143559762Y-65319938D01*
X143559762Y-65319938D02*
X143702619Y-65272319D01*
X143702619Y-65272319D02*
X143797857Y-65272319D01*
X143797857Y-65272319D02*
X143940714Y-65319938D01*
X143940714Y-65319938D02*
X143988333Y-65367557D01*
X144893095Y-65272319D02*
X144416905Y-65272319D01*
X144416905Y-65272319D02*
X144369286Y-65748509D01*
X144369286Y-65748509D02*
X144416905Y-65700890D01*
X144416905Y-65700890D02*
X144512143Y-65653271D01*
X144512143Y-65653271D02*
X144750238Y-65653271D01*
X144750238Y-65653271D02*
X144845476Y-65700890D01*
X144845476Y-65700890D02*
X144893095Y-65748509D01*
X144893095Y-65748509D02*
X144940714Y-65843747D01*
X144940714Y-65843747D02*
X144940714Y-66081842D01*
X144940714Y-66081842D02*
X144893095Y-66177080D01*
X144893095Y-66177080D02*
X144845476Y-66224700D01*
X144845476Y-66224700D02*
X144750238Y-66272319D01*
X144750238Y-66272319D02*
X144512143Y-66272319D01*
X144512143Y-66272319D02*
X144416905Y-66224700D01*
X144416905Y-66224700D02*
X144369286Y-66177080D01*
X96196666Y-68039819D02*
X96196666Y-68754104D01*
X96196666Y-68754104D02*
X96149047Y-68896961D01*
X96149047Y-68896961D02*
X96053809Y-68992200D01*
X96053809Y-68992200D02*
X95910952Y-69039819D01*
X95910952Y-69039819D02*
X95815714Y-69039819D01*
X96815714Y-68468390D02*
X96720476Y-68420771D01*
X96720476Y-68420771D02*
X96672857Y-68373152D01*
X96672857Y-68373152D02*
X96625238Y-68277914D01*
X96625238Y-68277914D02*
X96625238Y-68230295D01*
X96625238Y-68230295D02*
X96672857Y-68135057D01*
X96672857Y-68135057D02*
X96720476Y-68087438D01*
X96720476Y-68087438D02*
X96815714Y-68039819D01*
X96815714Y-68039819D02*
X97006190Y-68039819D01*
X97006190Y-68039819D02*
X97101428Y-68087438D01*
X97101428Y-68087438D02*
X97149047Y-68135057D01*
X97149047Y-68135057D02*
X97196666Y-68230295D01*
X97196666Y-68230295D02*
X97196666Y-68277914D01*
X97196666Y-68277914D02*
X97149047Y-68373152D01*
X97149047Y-68373152D02*
X97101428Y-68420771D01*
X97101428Y-68420771D02*
X97006190Y-68468390D01*
X97006190Y-68468390D02*
X96815714Y-68468390D01*
X96815714Y-68468390D02*
X96720476Y-68516009D01*
X96720476Y-68516009D02*
X96672857Y-68563628D01*
X96672857Y-68563628D02*
X96625238Y-68658866D01*
X96625238Y-68658866D02*
X96625238Y-68849342D01*
X96625238Y-68849342D02*
X96672857Y-68944580D01*
X96672857Y-68944580D02*
X96720476Y-68992200D01*
X96720476Y-68992200D02*
X96815714Y-69039819D01*
X96815714Y-69039819D02*
X97006190Y-69039819D01*
X97006190Y-69039819D02*
X97101428Y-68992200D01*
X97101428Y-68992200D02*
X97149047Y-68944580D01*
X97149047Y-68944580D02*
X97196666Y-68849342D01*
X97196666Y-68849342D02*
X97196666Y-68658866D01*
X97196666Y-68658866D02*
X97149047Y-68563628D01*
X97149047Y-68563628D02*
X97101428Y-68516009D01*
X97101428Y-68516009D02*
X97006190Y-68468390D01*
X136836666Y-52799819D02*
X136836666Y-53514104D01*
X136836666Y-53514104D02*
X136789047Y-53656961D01*
X136789047Y-53656961D02*
X136693809Y-53752200D01*
X136693809Y-53752200D02*
X136550952Y-53799819D01*
X136550952Y-53799819D02*
X136455714Y-53799819D01*
X137217619Y-52799819D02*
X137884285Y-52799819D01*
X137884285Y-52799819D02*
X137455714Y-53799819D01*
D13*
X127563767Y-57665000D02*
X127271233Y-57665000D01*
X127563767Y-56645000D02*
X127271233Y-56645000D01*
X152932500Y-57177776D02*
X152932500Y-57687224D01*
X151887500Y-57177776D02*
X151887500Y-57687224D01*
X82660000Y-55735000D02*
X81190000Y-55735000D01*
X81190000Y-55735000D02*
X81190000Y-58195000D01*
X82660000Y-58195000D02*
X82660000Y-55735000D01*
X113035000Y-31755000D02*
X111765000Y-31755000D01*
X113035000Y-31755000D02*
X113035000Y-30485000D01*
X101225000Y-29442071D02*
X101225000Y-28987929D01*
X101985000Y-29442071D02*
X101985000Y-28987929D01*
X103765000Y-29442071D02*
X103765000Y-28987929D01*
X104525000Y-29442071D02*
X104525000Y-28987929D01*
X106305000Y-29442071D02*
X106305000Y-28987929D01*
X107065000Y-29442071D02*
X107065000Y-28987929D01*
X108845000Y-29442071D02*
X108845000Y-28987929D01*
X109605000Y-29442071D02*
X109605000Y-28987929D01*
X111385000Y-29442071D02*
X111385000Y-28987929D01*
X112145000Y-29442071D02*
X112145000Y-28987929D01*
X98685000Y-29375000D02*
X98685000Y-28987929D01*
X99445000Y-29375000D02*
X99445000Y-28987929D01*
X98685000Y-26902071D02*
X98685000Y-26505000D01*
X99445000Y-26902071D02*
X99445000Y-26505000D01*
X101225000Y-26902071D02*
X101225000Y-26505000D01*
X101985000Y-26902071D02*
X101985000Y-26505000D01*
X103765000Y-26902071D02*
X103765000Y-26505000D01*
X104525000Y-26902071D02*
X104525000Y-26505000D01*
X106305000Y-26902071D02*
X106305000Y-26505000D01*
X107065000Y-26902071D02*
X107065000Y-26505000D01*
X108845000Y-26902071D02*
X108845000Y-26505000D01*
X109605000Y-26902071D02*
X109605000Y-26505000D01*
X111385000Y-26902071D02*
X111385000Y-26505000D01*
X112145000Y-26902071D02*
X112145000Y-26505000D01*
X97735000Y-26505000D02*
X113095000Y-26505000D01*
X100335000Y-26505000D02*
X100335000Y-24389000D01*
X102875000Y-26505000D02*
X102875000Y-24389000D01*
X105415000Y-26505000D02*
X105415000Y-24389000D01*
X107955000Y-26505000D02*
X107955000Y-24389000D01*
X110495000Y-26505000D02*
X110495000Y-24389000D01*
X113095000Y-26505000D02*
X113095000Y-24389000D01*
X97735000Y-24389000D02*
X97735000Y-26505000D01*
X113095000Y-24389000D02*
X97735000Y-24389000D01*
X90175000Y-31755000D02*
X88905000Y-31755000D01*
X90175000Y-31755000D02*
X90175000Y-30485000D01*
X78365000Y-29442071D02*
X78365000Y-28987929D01*
X79125000Y-29442071D02*
X79125000Y-28987929D01*
X80905000Y-29442071D02*
X80905000Y-28987929D01*
X81665000Y-29442071D02*
X81665000Y-28987929D01*
X83445000Y-29442071D02*
X83445000Y-28987929D01*
X84205000Y-29442071D02*
X84205000Y-28987929D01*
X85985000Y-29442071D02*
X85985000Y-28987929D01*
X86745000Y-29442071D02*
X86745000Y-28987929D01*
X88525000Y-29442071D02*
X88525000Y-28987929D01*
X89285000Y-29442071D02*
X89285000Y-28987929D01*
X75825000Y-29375000D02*
X75825000Y-28987929D01*
X76585000Y-29375000D02*
X76585000Y-28987929D01*
X75825000Y-26902071D02*
X75825000Y-26505000D01*
X76585000Y-26902071D02*
X76585000Y-26505000D01*
X78365000Y-26902071D02*
X78365000Y-26505000D01*
X79125000Y-26902071D02*
X79125000Y-26505000D01*
X80905000Y-26902071D02*
X80905000Y-26505000D01*
X81665000Y-26902071D02*
X81665000Y-26505000D01*
X83445000Y-26902071D02*
X83445000Y-26505000D01*
X84205000Y-26902071D02*
X84205000Y-26505000D01*
X85985000Y-26902071D02*
X85985000Y-26505000D01*
X86745000Y-26902071D02*
X86745000Y-26505000D01*
X88525000Y-26902071D02*
X88525000Y-26505000D01*
X89285000Y-26902071D02*
X89285000Y-26505000D01*
X74875000Y-26505000D02*
X90235000Y-26505000D01*
X77475000Y-26505000D02*
X77475000Y-24389000D01*
X80015000Y-26505000D02*
X80015000Y-24389000D01*
X82555000Y-26505000D02*
X82555000Y-24389000D01*
X85095000Y-26505000D02*
X85095000Y-24389000D01*
X87635000Y-26505000D02*
X87635000Y-24389000D01*
X90235000Y-26505000D02*
X90235000Y-24389000D01*
X74875000Y-24389000D02*
X74875000Y-26505000D01*
X90235000Y-24389000D02*
X74875000Y-24389000D01*
X143645000Y-45871267D02*
X143645000Y-45578733D01*
X144665000Y-45871267D02*
X144665000Y-45578733D01*
X142310000Y-58370000D02*
X142310000Y-59700000D01*
X140980000Y-58370000D02*
X142310000Y-58370000D01*
X139710000Y-58370000D02*
X96470000Y-58370000D01*
X139710000Y-58370000D02*
X139710000Y-60970000D01*
X96470000Y-58370000D02*
X96470000Y-63570000D01*
X142310000Y-60970000D02*
X142310000Y-63570000D01*
X139710000Y-60970000D02*
X142310000Y-60970000D01*
X142310000Y-63570000D02*
X96470000Y-63570000D01*
X142310000Y-43125000D02*
X142310000Y-44455000D01*
X140980000Y-43125000D02*
X142310000Y-43125000D01*
X139710000Y-43125000D02*
X91390000Y-43125000D01*
X139710000Y-43125000D02*
X139710000Y-45725000D01*
X91390000Y-43125000D02*
X91390000Y-48325000D01*
X142310000Y-45725000D02*
X142310000Y-48325000D01*
X139710000Y-45725000D02*
X142310000Y-45725000D01*
X142310000Y-48325000D02*
X91390000Y-48325000D01*
X149360000Y-48118733D02*
X149360000Y-48411267D01*
X150380000Y-48118733D02*
X150380000Y-48411267D01*
X84987500Y-57140276D02*
X84987500Y-57649724D01*
X83942500Y-57140276D02*
X83942500Y-57649724D01*
X158755000Y-31755000D02*
X157485000Y-31755000D01*
X158755000Y-31755000D02*
X158755000Y-30485000D01*
X146945000Y-29442071D02*
X146945000Y-28987929D01*
X147705000Y-29442071D02*
X147705000Y-28987929D01*
X149485000Y-29442071D02*
X149485000Y-28987929D01*
X150245000Y-29442071D02*
X150245000Y-28987929D01*
X152025000Y-29442071D02*
X152025000Y-28987929D01*
X152785000Y-29442071D02*
X152785000Y-28987929D01*
X154565000Y-29442071D02*
X154565000Y-28987929D01*
X155325000Y-29442071D02*
X155325000Y-28987929D01*
X157105000Y-29442071D02*
X157105000Y-28987929D01*
X157865000Y-29442071D02*
X157865000Y-28987929D01*
X144405000Y-29375000D02*
X144405000Y-28987929D01*
X145165000Y-29375000D02*
X145165000Y-28987929D01*
X144405000Y-26902071D02*
X144405000Y-26505000D01*
X145165000Y-26902071D02*
X145165000Y-26505000D01*
X146945000Y-26902071D02*
X146945000Y-26505000D01*
X147705000Y-26902071D02*
X147705000Y-26505000D01*
X149485000Y-26902071D02*
X149485000Y-26505000D01*
X150245000Y-26902071D02*
X150245000Y-26505000D01*
X152025000Y-26902071D02*
X152025000Y-26505000D01*
X152785000Y-26902071D02*
X152785000Y-26505000D01*
X154565000Y-26902071D02*
X154565000Y-26505000D01*
X155325000Y-26902071D02*
X155325000Y-26505000D01*
X157105000Y-26902071D02*
X157105000Y-26505000D01*
X157865000Y-26902071D02*
X157865000Y-26505000D01*
X143455000Y-26505000D02*
X158815000Y-26505000D01*
X146055000Y-26505000D02*
X146055000Y-24389000D01*
X148595000Y-26505000D02*
X148595000Y-24389000D01*
X151135000Y-26505000D02*
X151135000Y-24389000D01*
X153675000Y-26505000D02*
X153675000Y-24389000D01*
X156215000Y-26505000D02*
X156215000Y-24389000D01*
X158815000Y-26505000D02*
X158815000Y-24389000D01*
X143455000Y-24389000D02*
X143455000Y-26505000D01*
X158815000Y-24389000D02*
X143455000Y-24389000D01*
X92595000Y-52791233D02*
X92595000Y-53083767D01*
X91575000Y-52791233D02*
X91575000Y-53083767D01*
X93436233Y-40770000D02*
X93728767Y-40770000D01*
X93436233Y-41790000D02*
X93728767Y-41790000D01*
X155010000Y-50865000D02*
X153680000Y-50865000D01*
X155010000Y-49535000D02*
X155010000Y-50865000D01*
X155010000Y-48265000D02*
X155010000Y-45665000D01*
X155010000Y-48265000D02*
X152350000Y-48265000D01*
X155010000Y-45665000D02*
X152350000Y-45665000D01*
X152350000Y-48265000D02*
X152350000Y-45665000D01*
X155685000Y-58270000D02*
X155685000Y-55810000D01*
X154215000Y-55810000D02*
X154215000Y-58270000D01*
X155685000Y-55810000D02*
X154215000Y-55810000D01*
X135895000Y-31755000D02*
X134625000Y-31755000D01*
X135895000Y-31755000D02*
X135895000Y-30485000D01*
X124085000Y-29442071D02*
X124085000Y-28987929D01*
X124845000Y-29442071D02*
X124845000Y-28987929D01*
X126625000Y-29442071D02*
X126625000Y-28987929D01*
X127385000Y-29442071D02*
X127385000Y-28987929D01*
X129165000Y-29442071D02*
X129165000Y-28987929D01*
X129925000Y-29442071D02*
X129925000Y-28987929D01*
X131705000Y-29442071D02*
X131705000Y-28987929D01*
X132465000Y-29442071D02*
X132465000Y-28987929D01*
X134245000Y-29442071D02*
X134245000Y-28987929D01*
X135005000Y-29442071D02*
X135005000Y-28987929D01*
X121545000Y-29375000D02*
X121545000Y-28987929D01*
X122305000Y-29375000D02*
X122305000Y-28987929D01*
X121545000Y-26902071D02*
X121545000Y-26505000D01*
X122305000Y-26902071D02*
X122305000Y-26505000D01*
X124085000Y-26902071D02*
X124085000Y-26505000D01*
X124845000Y-26902071D02*
X124845000Y-26505000D01*
X126625000Y-26902071D02*
X126625000Y-26505000D01*
X127385000Y-26902071D02*
X127385000Y-26505000D01*
X129165000Y-26902071D02*
X129165000Y-26505000D01*
X129925000Y-26902071D02*
X129925000Y-26505000D01*
X131705000Y-26902071D02*
X131705000Y-26505000D01*
X132465000Y-26902071D02*
X132465000Y-26505000D01*
X134245000Y-26902071D02*
X134245000Y-26505000D01*
X135005000Y-26902071D02*
X135005000Y-26505000D01*
X120595000Y-26505000D02*
X135955000Y-26505000D01*
X123195000Y-26505000D02*
X123195000Y-24389000D01*
X125735000Y-26505000D02*
X125735000Y-24389000D01*
X128275000Y-26505000D02*
X128275000Y-24389000D01*
X130815000Y-26505000D02*
X130815000Y-24389000D01*
X133355000Y-26505000D02*
X133355000Y-24389000D01*
X135955000Y-26505000D02*
X135955000Y-24389000D01*
X120595000Y-24389000D02*
X120595000Y-26505000D01*
X135955000Y-24389000D02*
X120595000Y-24389000D01*
X143645000Y-69138767D02*
X143645000Y-68846233D01*
X144665000Y-69138767D02*
X144665000Y-68846233D01*
X142310000Y-65990000D02*
X142310000Y-67320000D01*
X140980000Y-65990000D02*
X142310000Y-65990000D01*
X139710000Y-65990000D02*
X99010000Y-65990000D01*
X139710000Y-65990000D02*
X139710000Y-68590000D01*
X99010000Y-65990000D02*
X99010000Y-71190000D01*
X142310000Y-68590000D02*
X142310000Y-71190000D01*
X139710000Y-68590000D02*
X142310000Y-68590000D01*
X142310000Y-71190000D02*
X99010000Y-71190000D01*
X134690000Y-50745000D02*
X134690000Y-52075000D01*
X133360000Y-50745000D02*
X134690000Y-50745000D01*
X132090000Y-50745000D02*
X93930000Y-50745000D01*
X132090000Y-50745000D02*
X132090000Y-53345000D01*
X93930000Y-50745000D02*
X93930000Y-55945000D01*
X134690000Y-53345000D02*
X134690000Y-55945000D01*
X132090000Y-53345000D02*
X134690000Y-53345000D01*
X134690000Y-55945000D02*
X93930000Y-55945000D01*
%LPC*%
D14*
X143555000Y-144195000D03*
X139355000Y-121000000D03*
X138205000Y-130640000D03*
D15*
X128280000Y-57155000D03*
X126555000Y-57155000D03*
D16*
X116850000Y-144150000D03*
D17*
X152410000Y-56520000D03*
X152410000Y-58345000D03*
D14*
X132580000Y-101945000D03*
D18*
X81925000Y-56520000D03*
X81925000Y-58270000D03*
D16*
X156855000Y-144150000D03*
X93990000Y-29220000D03*
D14*
X139355000Y-90000000D03*
D16*
X139710000Y-29220000D03*
D19*
X111765000Y-30485000D03*
D20*
X111765000Y-27945000D03*
X109225000Y-30485000D03*
X109225000Y-27945000D03*
X106685000Y-30485000D03*
X106685000Y-27945000D03*
X104145000Y-30485000D03*
X104145000Y-27945000D03*
X101605000Y-30485000D03*
X101605000Y-27945000D03*
X99065000Y-30485000D03*
X99065000Y-27945000D03*
D14*
X94355000Y-90000000D03*
D19*
X88905000Y-30485000D03*
D20*
X88905000Y-27945000D03*
X86365000Y-30485000D03*
X86365000Y-27945000D03*
X83825000Y-30485000D03*
X83825000Y-27945000D03*
X81285000Y-30485000D03*
X81285000Y-27945000D03*
X78745000Y-30485000D03*
X78745000Y-27945000D03*
X76205000Y-30485000D03*
X76205000Y-27945000D03*
D21*
X144155000Y-46587500D03*
X144155000Y-44862500D03*
D14*
X100605000Y-130640000D03*
D16*
X76845000Y-144150000D03*
D19*
X140980000Y-59700000D03*
D20*
X140980000Y-62240000D03*
X138440000Y-59700000D03*
X138440000Y-62240000D03*
X135900000Y-59700000D03*
X135900000Y-62240000D03*
X133360000Y-59700000D03*
X133360000Y-62240000D03*
X130820000Y-59700000D03*
X130820000Y-62240000D03*
X128280000Y-59700000D03*
X128280000Y-62240000D03*
X125740000Y-59700000D03*
X125740000Y-62240000D03*
X123200000Y-59700000D03*
X123200000Y-62240000D03*
X120660000Y-59700000D03*
X120660000Y-62240000D03*
X118120000Y-59700000D03*
X118120000Y-62240000D03*
X115580000Y-59700000D03*
X115580000Y-62240000D03*
X113040000Y-59700000D03*
X113040000Y-62240000D03*
X110500000Y-59700000D03*
X110500000Y-62240000D03*
X107960000Y-59700000D03*
X107960000Y-62240000D03*
X105420000Y-59700000D03*
X105420000Y-62240000D03*
X102880000Y-59700000D03*
X102880000Y-62240000D03*
X100340000Y-59700000D03*
X100340000Y-62240000D03*
X97800000Y-59700000D03*
X97800000Y-62240000D03*
D14*
X94355000Y-121000000D03*
D19*
X140980000Y-44455000D03*
D20*
X140980000Y-46995000D03*
X138440000Y-44455000D03*
X138440000Y-46995000D03*
X135900000Y-44455000D03*
X135900000Y-46995000D03*
X133360000Y-44455000D03*
X133360000Y-46995000D03*
X130820000Y-44455000D03*
X130820000Y-46995000D03*
X128280000Y-44455000D03*
X128280000Y-46995000D03*
X125740000Y-44455000D03*
X125740000Y-46995000D03*
X123200000Y-44455000D03*
X123200000Y-46995000D03*
X120660000Y-44455000D03*
X120660000Y-46995000D03*
X118120000Y-44455000D03*
X118120000Y-46995000D03*
X115580000Y-44455000D03*
X115580000Y-46995000D03*
X113040000Y-44455000D03*
X113040000Y-46995000D03*
X110500000Y-44455000D03*
X110500000Y-46995000D03*
X107960000Y-44455000D03*
X107960000Y-46995000D03*
X105420000Y-44455000D03*
X105420000Y-46995000D03*
X102880000Y-44455000D03*
X102880000Y-46995000D03*
X100340000Y-44455000D03*
X100340000Y-46995000D03*
X97800000Y-44455000D03*
X97800000Y-46995000D03*
X95260000Y-44455000D03*
X95260000Y-46995000D03*
X92720000Y-44455000D03*
X92720000Y-46995000D03*
D22*
X149870000Y-49127500D03*
X149870000Y-47402500D03*
D16*
X116850000Y-29220000D03*
D17*
X84465000Y-56482500D03*
X84465000Y-58307500D03*
D14*
X98580000Y-101945000D03*
D19*
X157485000Y-30485000D03*
D20*
X157485000Y-27945000D03*
X154945000Y-30485000D03*
X154945000Y-27945000D03*
X152405000Y-30485000D03*
X152405000Y-27945000D03*
X149865000Y-30485000D03*
X149865000Y-27945000D03*
X147325000Y-30485000D03*
X147325000Y-27945000D03*
X144785000Y-30485000D03*
X144785000Y-27945000D03*
D22*
X92085000Y-52075000D03*
X92085000Y-53800000D03*
D23*
X92720000Y-41280000D03*
X94445000Y-41280000D03*
D19*
X153680000Y-49535000D03*
D20*
X153680000Y-46995000D03*
D14*
X97755000Y-144195000D03*
D18*
X154950000Y-58345000D03*
X154950000Y-56595000D03*
D19*
X134625000Y-30485000D03*
D20*
X134625000Y-27945000D03*
X132085000Y-30485000D03*
X132085000Y-27945000D03*
X129545000Y-30485000D03*
X129545000Y-27945000D03*
X127005000Y-30485000D03*
X127005000Y-27945000D03*
X124465000Y-30485000D03*
X124465000Y-27945000D03*
X121925000Y-30485000D03*
X121925000Y-27945000D03*
D21*
X144155000Y-69855000D03*
X144155000Y-68130000D03*
D19*
X140980000Y-67320000D03*
D20*
X140980000Y-69860000D03*
X138440000Y-67320000D03*
X138440000Y-69860000D03*
X135900000Y-67320000D03*
X135900000Y-69860000D03*
X133360000Y-67320000D03*
X133360000Y-69860000D03*
X130820000Y-67320000D03*
X130820000Y-69860000D03*
X128280000Y-67320000D03*
X128280000Y-69860000D03*
X125740000Y-67320000D03*
X125740000Y-69860000D03*
X123200000Y-67320000D03*
X123200000Y-69860000D03*
X120660000Y-67320000D03*
X120660000Y-69860000D03*
X118120000Y-67320000D03*
X118120000Y-69860000D03*
X115580000Y-67320000D03*
X115580000Y-69860000D03*
X113040000Y-67320000D03*
X113040000Y-69860000D03*
X110500000Y-67320000D03*
X110500000Y-69860000D03*
X107960000Y-67320000D03*
X107960000Y-69860000D03*
X105420000Y-67320000D03*
X105420000Y-69860000D03*
X102880000Y-67320000D03*
X102880000Y-69860000D03*
X100340000Y-67320000D03*
X100340000Y-69860000D03*
D19*
X133360000Y-52075000D03*
D20*
X133360000Y-54615000D03*
X130820000Y-52075000D03*
X130820000Y-54615000D03*
X128280000Y-52075000D03*
X128280000Y-54615000D03*
X125740000Y-52075000D03*
X125740000Y-54615000D03*
X123200000Y-52075000D03*
X123200000Y-54615000D03*
X120660000Y-52075000D03*
X120660000Y-54615000D03*
X118120000Y-52075000D03*
X118120000Y-54615000D03*
X115580000Y-52075000D03*
X115580000Y-54615000D03*
X113040000Y-52075000D03*
X113040000Y-54615000D03*
X110500000Y-52075000D03*
X110500000Y-54615000D03*
X107960000Y-52075000D03*
X107960000Y-54615000D03*
X105420000Y-52075000D03*
X105420000Y-54615000D03*
X102880000Y-52075000D03*
X102880000Y-54615000D03*
X100340000Y-52075000D03*
X100340000Y-54615000D03*
X97800000Y-52075000D03*
X97800000Y-54615000D03*
X95260000Y-52075000D03*
X95260000Y-54615000D03*
%LPD*%
M02*
